{"glyphs":{"0":{"ha":1120,"x_min":34,"x_max":1086,"o":"m 314 0 q 96 61 160 0 q 34 270 34 120 l 34 897 q 100 1080 34 1022 q 314 1138 167 1138 l 793 1138 q 928 1124 872 1138 q 1019 1081 983 1110 q 1070 1006 1054 1052 q 1086 897 1086 960 l 1086 270 q 1021 59 1086 118 q 794 0 958 0 l 314 0 m 501 799 l 502 329 q 515 267 501 286 q 559 249 529 249 q 605 267 591 249 q 619 329 618 286 l 618 799 q 559 881 618 881 q 515 861 528 881 q 501 799 502 842 z "},"1":{"ha":621,"x_min":34,"x_max":587,"o":"m 130 0 l 130 721 l 34 721 l 34 1128 l 587 1128 l 587 0 l 130 0 z "},"2":{"ha":1099,"x_min":34,"x_max":1065,"o":"m 34 1 l 34 240 l 566 702 q 595 742 584 720 q 605 787 605 763 q 593 845 606 826 q 551 864 581 864 q 509 845 525 864 q 494 796 494 826 l 493 729 l 34 729 l 34 918 q 106 1074 34 1020 q 316 1128 177 1128 l 783 1128 q 994 1074 922 1128 q 1065 918 1065 1020 l 1065 727 q 1048 607 1065 653 q 991 528 1030 562 l 674 254 l 1065 254 l 1065 1 l 34 1 z "},"3":{"ha":1091,"x_min":34,"x_max":1057,"o":"m 1057 244 q 989 59 1057 117 q 776 1 922 1 l 313 1 q 104 56 174 1 q 34 215 34 111 l 34 411 l 493 411 l 493 340 q 506 279 494 298 q 548 259 518 259 q 590 278 577 259 q 603 340 604 297 l 603 406 q 527 487 603 487 l 428 487 l 428 743 l 519 743 q 603 820 603 743 q 587 871 603 851 q 547 891 571 891 q 504 872 520 891 q 488 822 488 852 l 488 801 l 34 801 l 34 914 q 105 1073 34 1018 q 314 1128 176 1128 l 777 1128 q 986 1073 915 1128 q 1057 914 1057 1018 l 1057 840 q 1014 698 1057 752 q 873 610 971 644 q 959 579 925 598 q 1016 529 994 559 q 1048 456 1038 499 q 1057 352 1057 412 l 1057 244 z "},"4":{"ha":1221,"x_min":34,"x_max":1187,"o":"m 435 483 l 574 483 l 574 791 l 435 483 m 574 1 l 574 224 l 34 224 l 34 455 l 348 1128 l 1036 1128 l 1036 483 l 1187 483 l 1187 224 l 1036 224 l 1036 1 l 574 1 z "},"5":{"ha":1082,"x_min":34,"x_max":1049,"o":"m 489 368 q 502 310 489 329 q 544 292 515 292 q 587 309 573 292 q 600 368 600 327 l 600 471 q 587 530 600 512 q 545 548 574 548 l 34 548 l 34 1128 l 1048 1128 l 1049 883 l 489 883 l 488 811 l 751 812 q 974 751 900 812 q 1048 565 1049 689 l 1048 277 q 982 56 1049 112 q 772 1 916 1 l 311 1 q 104 53 174 1 q 34 204 34 105 l 34 411 l 489 411 l 489 368 z "},"6":{"ha":1086,"x_min":34,"x_max":1052,"o":"m 489 723 q 615 724 552 724 q 745 724 679 724 q 1052 465 1052 724 l 1052 241 q 985 58 1052 116 q 773 1 918 1 l 313 1 q 104 55 174 1 q 34 213 34 109 l 34 934 q 104 1093 34 1038 q 313 1147 174 1147 l 773 1147 q 981 1093 911 1147 q 1052 934 1052 1038 l 1052 788 l 598 788 l 598 820 q 583 870 598 851 q 541 888 567 888 q 500 868 512 888 q 489 797 489 848 l 489 723 m 601 330 l 601 380 q 545 452 601 452 l 490 452 l 490 377 l 490 330 q 545 258 490 258 q 601 330 601 258 z "},"7":{"ha":1021,"x_min":34,"x_max":987,"o":"m 34 0 l 471 871 l 34 871 l 34 1128 l 987 1128 l 987 835 l 566 0 l 34 0 z "},"8":{"ha":1083,"x_min":34,"x_max":1050,"o":"m 485 879 l 485 810 q 499 747 486 767 q 541 727 512 727 q 585 747 571 727 q 598 810 598 766 l 598 879 q 585 943 598 923 q 541 963 571 963 q 498 944 512 963 q 485 879 485 924 m 1049 244 q 982 59 1049 117 q 768 1 914 1 l 315 1 q 102 59 169 1 q 34 244 34 117 l 34 352 q 44 456 34 413 q 75 530 53 499 q 132 579 97 561 q 218 610 167 598 q 77 697 120 644 q 34 840 34 751 l 34 934 q 105 1093 34 1038 q 315 1148 177 1148 l 767 1148 q 978 1093 906 1148 q 1049 934 1049 1038 l 1050 840 q 1007 698 1049 752 q 865 610 964 644 q 952 579 917 598 q 1008 529 987 559 q 1040 456 1030 499 q 1049 352 1050 412 l 1049 244 m 487 369 l 487 299 q 501 238 488 258 q 544 217 514 217 q 601 299 601 217 l 601 369 q 587 434 602 413 q 544 454 573 454 q 500 434 514 454 q 487 369 487 415 z "},"9":{"ha":1086,"x_min":34,"x_max":1052,"o":"m 597 425 q 470 423 534 423 q 341 423 407 423 q 34 683 34 423 l 34 906 q 101 1089 34 1031 q 313 1147 168 1147 l 773 1147 q 982 1093 912 1147 q 1052 934 1052 1038 l 1052 213 q 982 55 1052 109 q 773 1 912 1 l 313 1 q 104 55 175 1 q 34 213 34 109 l 34 359 l 488 359 l 488 327 q 503 278 488 297 q 545 259 519 259 q 586 279 574 259 q 597 351 597 299 l 597 425 m 485 818 l 485 767 q 541 695 485 695 l 596 695 l 596 770 l 596 818 q 541 890 596 890 q 485 818 485 890 z "},"\u0000":{"ha":0,"x_min":0,"x_max":0,"o":""}," ":{"ha":267,"x_min":0,"x_max":0,"o":""},"!":{"ha":479,"x_min":34,"x_max":445,"o":"m 445 338 l 34 338 l 34 1128 l 445 1128 l 445 338 m 445 -1 l 34 -1 l 34 278 l 445 278 l 445 -1 z "},"\"":{"ha":626,"x_min":34,"x_max":592,"o":"m 287 1400 l 287 939 l 34 939 l 34 1400 l 287 1400 m 592 1400 l 592 939 l 339 939 l 339 1400 l 592 1400 z "},"#":{"ha":1066,"x_min":34,"x_max":1032,"o":"m 633 588 l 482 588 l 433 437 l 584 437 l 633 588 m 627 1036 l 546 778 l 689 778 l 771 1036 l 952 1036 l 871 778 l 1032 778 l 968 588 l 810 588 l 762 437 l 925 437 l 862 247 l 702 247 l 620 -11 l 438 -11 l 520 247 l 378 247 l 295 -11 l 114 -11 l 196 247 l 34 247 l 97 437 l 256 437 l 302 588 l 141 588 l 202 778 l 365 778 l 446 1036 l 627 1036 z "},"$":{"ha":1101,"x_min":34,"x_max":1067,"o":"m 648 94 l 648 2 l 450 2 l 450 94 l 317 94 q 105 149 177 94 q 34 308 34 203 l 34 418 l 497 418 l 497 338 q 510 277 497 295 q 553 258 522 258 q 596 279 583 258 q 610 350 610 300 q 608 385 610 371 q 597 411 605 400 q 574 432 589 423 q 532 451 558 441 l 219 575 q 73 666 112 618 q 34 802 34 716 l 34 820 q 106 979 34 924 q 317 1034 178 1034 l 450 1034 l 450 1126 l 648 1126 l 648 1034 l 783 1034 q 995 979 924 1034 q 1067 820 1067 924 l 1067 780 l 607 780 l 607 794 q 548 870 607 870 q 508 857 523 870 q 494 821 494 843 q 497 801 494 809 q 509 784 500 793 q 533 768 517 776 q 575 748 549 760 l 941 598 q 999 564 975 583 q 1038 516 1023 544 q 1060 450 1054 489 q 1067 358 1067 411 l 1067 337 q 999 152 1067 210 q 783 94 930 94 l 648 94 z "},"%":{"ha":1061,"x_min":34,"x_max":1027,"o":"m 915 1128 l 281 0 l 144 0 l 778 1128 l 915 1128 m 145 675 q 59 699 84 675 q 34 783 34 723 l 34 1032 q 61 1105 34 1082 q 145 1128 87 1128 l 336 1128 q 390 1122 368 1128 q 426 1105 412 1117 q 446 1075 439 1094 q 452 1032 452 1057 l 452 783 q 426 699 452 722 q 336 675 401 675 l 145 675 m 220 993 l 220 806 q 225 782 220 789 q 243 774 231 774 q 261 782 255 774 q 267 806 267 789 l 267 993 q 243 1025 267 1025 q 225 1018 231 1025 q 220 993 220 1010 m 720 0 q 634 24 659 0 q 609 107 609 48 l 609 357 q 636 430 609 407 q 720 453 662 453 l 911 453 q 965 447 943 453 q 1001 430 987 441 q 1021 400 1015 418 q 1027 357 1027 382 l 1027 107 q 1001 24 1027 47 q 911 0 976 0 l 720 0 m 795 318 l 795 131 q 800 106 795 114 q 818 99 806 99 q 836 106 830 99 q 842 131 842 114 l 842 318 q 818 350 842 350 q 800 343 806 350 q 795 318 795 335 z "},"&":{"ha":1122,"x_min":34,"x_max":1136,"o":"m 607 478 l 555 478 q 480 399 480 478 l 480 333 q 493 273 480 291 q 534 254 506 254 q 542 255 535 254 l 542 253 l 561 253 l 561 255 q 594 273 584 257 q 607 333 606 292 l 607 478 m 1136 729 l 1136 478 l 1086 478 l 1086 210 q 1017 54 1086 108 q 811 0 948 0 l 310 0 q 100 57 167 0 q 34 239 34 115 l 34 299 q 43 401 34 358 q 74 473 53 444 q 130 522 96 503 q 215 553 164 541 q 76 639 118 586 q 34 779 34 692 l 34 918 q 104 1074 34 1020 q 310 1128 174 1128 l 642 1128 q 847 1074 777 1128 q 917 918 917 1020 l 917 787 l 593 787 l 593 807 q 577 856 593 837 q 535 875 562 875 q 496 856 512 875 q 480 806 480 836 q 563 729 480 729 l 1136 729 z "},"'":{"ha":321,"x_min":34,"x_max":287,"o":"m 287 1400 l 287 939 l 34 939 l 34 1400 l 287 1400 z "},"(":{"ha":714,"x_min":34,"x_max":681,"o":"m 681 1403 l 681 1178 l 599 1178 q 542 1174 564 1178 q 509 1162 520 1171 q 494 1137 498 1153 q 490 1096 490 1121 l 490 47 q 494 6 490 22 q 509 -19 498 -10 q 542 -31 520 -28 q 599 -35 564 -35 l 681 -35 l 681 -260 l 358 -260 q 116 -205 199 -260 q 34 -46 34 -150 l 34 1189 q 116 1348 34 1293 q 358 1403 199 1403 l 681 1403 z "},")":{"ha":714,"x_min":34,"x_max":681,"o":"m 357 1403 q 598 1348 516 1403 q 681 1189 681 1293 l 681 -46 q 598 -205 681 -150 q 357 -260 516 -260 l 34 -260 l 34 -35 l 116 -35 q 172 -31 151 -35 q 205 -19 194 -28 q 220 6 216 -10 q 224 47 224 22 l 224 1096 q 220 1137 224 1121 q 205 1162 216 1153 q 172 1174 194 1171 q 116 1178 151 1178 l 34 1178 l 34 1403 l 357 1403 z "},"*":{"ha":483,"x_min":34,"x_max":449,"o":"m 197 1135 l 197 1222 l 292 1222 l 292 1135 l 355 1198 l 422 1131 l 356 1065 l 449 1065 l 449 970 l 361 970 l 421 910 l 354 843 l 292 905 l 292 815 l 197 815 l 197 906 l 129 838 l 62 905 l 127 970 l 34 970 l 34 1065 l 132 1065 l 66 1131 l 133 1198 l 197 1135 z "},"+":{"ha":701,"x_min":34,"x_max":667,"o":"m 222 436 l 34 436 l 34 693 l 222 693 l 222 881 l 479 881 l 479 693 l 667 693 l 667 436 l 479 436 l 479 248 l 222 248 l 222 436 z "},",":{"ha":401,"x_min":34,"x_max":367,"o":"m 226 -1 l 34 -1 l 34 278 l 367 278 l 367 -1 l 291 -126 l 154 -126 l 226 -1 z "},"-":{"ha":599,"x_min":34,"x_max":565,"o":"m 34 693 l 565 693 l 565 436 l 34 436 l 34 693 z "},".":{"ha":401,"x_min":34,"x_max":367,"o":"m 367 -1 l 34 -1 l 34 278 l 367 278 l 367 -1 z "},"/":{"ha":778,"x_min":34,"x_max":744,"o":"m 440 1240 l 744 1240 l 337 -114 l 34 -114 l 440 1240 z "},":":{"ha":401,"x_min":34,"x_max":367,"o":"m 367 -1 l 34 -1 l 34 278 l 367 278 l 367 -1 m 367 699 l 34 699 l 34 978 l 367 978 l 367 699 z "},";":{"ha":401,"x_min":34,"x_max":367,"o":"m 226 -1 l 34 -1 l 34 278 l 367 278 l 367 -1 l 291 -126 l 154 -126 l 226 -1 m 367 699 l 34 699 l 34 978 l 367 978 l 367 699 z "},"<":{"ha":691,"x_min":34,"x_max":657,"o":"m 657 706 l 355 574 l 657 442 l 657 202 l 34 478 l 34 671 l 657 946 l 657 706 z "},"=":{"ha":701,"x_min":34,"x_max":667,"o":"m 34 550 l 667 550 l 667 293 l 34 293 l 34 550 m 34 836 l 667 836 l 667 579 l 34 579 l 34 836 z "},">":{"ha":691,"x_min":34,"x_max":657,"o":"m 34 946 l 657 671 l 657 478 l 34 202 l 34 442 l 336 574 l 34 706 l 34 946 z "},"?":{"ha":1086,"x_min":21,"x_max":1050,"o":"m 763 -1 l 312 -1 l 312 278 l 763 278 l 763 -1 m 452 667 q 523 703 452 667 q 593 787 593 740 q 580 854 593 835 q 523 874 567 874 q 479 855 493 874 q 465 792 465 836 l 465 710 l 21 710 l 21 859 q 84 1068 21 1007 q 171 1113 115 1099 q 307 1128 227 1128 l 777 1128 q 904 1113 851 1128 q 988 1067 956 1099 q 1035 984 1020 1035 q 1050 859 1050 932 q 906 563 1050 621 q 763 431 763 506 l 763 339 l 312 339 l 312 476 q 452 667 312 595 z "},"@":{"ha":1705,"x_min":34,"x_max":1671,"o":"m 912 353 l 857 334 q 802 302 817 320 q 786 247 786 283 l 786 230 q 848 166 786 166 q 897 181 880 166 q 912 230 912 196 l 912 353 m 1612 1076 q 1671 912 1671 1024 l 1671 241 q 1616 54 1671 107 q 1421 0 1558 0 l 1334 0 l 1334 0 l 1322 0 l 1322 0 l 671 0 q 461 55 532 -2 q 381 271 390 113 q 667 513 386 480 l 915 515 l 915 583 q 900 632 915 618 q 853 646 885 646 q 807 631 821 646 q 792 583 792 616 l 792 556 l 394 556 l 394 613 q 409 699 394 665 q 455 755 423 734 q 539 785 487 776 q 667 795 591 795 l 1049 795 q 1177 785 1125 795 q 1261 754 1229 776 q 1308 698 1293 733 q 1322 613 1322 663 l 1322 222 l 1335 222 q 1373 239 1361 223 q 1385 294 1385 256 l 1385 713 q 1372 825 1385 788 q 1267 898 1345 898 l 455 898 q 351 825 377 898 q 337 713 337 788 l 337 -1 l 34 2 l 34 912 q 94 1076 34 1024 q 284 1128 153 1128 l 387 1127 l 387 1127 l 1336 1127 l 1336 1127 l 1421 1127 q 1612 1076 1552 1127 z "},"A":{"ha":1179,"x_min":34,"x_max":1145,"o":"m 549 493 l 630 493 l 589 877 l 549 493 m 34 0 l 249 1128 l 930 1128 l 1145 0 l 685 0 l 657 244 l 520 244 l 493 0 l 34 0 z "},"B":{"ha":1108,"x_min":34,"x_max":1074,"o":"m 492 871 l 492 712 l 543 712 q 594 730 578 712 q 609 791 609 748 q 595 854 609 837 q 543 871 581 871 l 492 871 m 492 259 l 543 259 q 595 276 581 259 q 609 339 609 294 l 609 386 q 595 448 609 430 q 543 466 581 466 l 492 466 l 492 259 m 34 1 l 34 1128 l 776 1128 q 913 1113 856 1128 q 1005 1066 970 1098 q 1057 982 1041 1034 q 1074 860 1074 931 q 1030 688 1074 748 q 883 604 986 628 q 1028 508 983 580 q 1074 291 1074 435 q 1007 66 1074 131 q 776 1 940 1 l 34 1 z "},"C":{"ha":1097,"x_min":34,"x_max":1063,"o":"m 1063 474 l 1063 242 q 1047 131 1063 177 q 997 56 1031 85 q 908 13 963 27 q 777 -1 854 -1 l 308 -1 q 100 58 165 -1 q 34 242 34 116 l 34 858 q 49 983 34 932 q 96 1066 64 1035 q 180 1113 128 1098 q 308 1127 233 1127 l 777 1127 q 913 1113 857 1127 q 1000 1068 969 1098 q 1063 858 1063 1007 l 1063 710 l 606 710 l 606 791 q 592 855 606 836 q 548 873 578 873 q 504 854 517 873 q 491 791 491 834 l 491 337 q 504 274 491 294 q 548 255 517 255 q 606 337 606 255 l 606 474 l 1063 474 z "},"D":{"ha":1108,"x_min":34,"x_max":1074,"o":"m 492 258 l 543 258 q 595 276 581 258 q 609 339 609 293 l 609 790 q 595 853 609 836 q 543 871 581 871 l 492 871 l 492 258 m 34 0 l 34 1128 l 783 1128 q 917 1114 861 1128 q 1007 1071 972 1100 q 1058 995 1042 1042 q 1074 885 1074 949 l 1074 272 q 1010 60 1074 121 q 922 15 979 29 q 783 0 864 0 l 34 0 z "},"E":{"ha":898,"x_min":34,"x_max":864,"o":"m 34 0 l 34 1128 l 864 1128 l 864 871 l 489 871 l 489 693 l 822 693 l 822 436 l 489 436 l 489 257 l 864 257 l 864 0 l 34 0 z "},"F":{"ha":926,"x_min":34,"x_max":892,"o":"m 34 0 l 34 1128 l 892 1128 l 892 871 l 489 871 l 489 693 l 850 693 l 850 436 l 489 436 l 489 1 l 34 0 z "},"G":{"ha":1098,"x_min":34,"x_max":1064,"o":"m 607 407 l 544 407 l 544 659 l 1064 659 l 1064 209 q 865 0 1064 0 l 553 0 l 308 0 q 181 15 233 0 q 96 62 128 29 q 49 146 63 95 q 34 271 34 197 l 34 887 q 100 1070 34 1013 q 308 1127 165 1127 l 778 1127 q 909 1114 855 1127 q 998 1072 964 1101 q 1048 996 1033 1042 q 1064 887 1064 950 l 1064 773 l 606 773 l 606 791 q 607 798 606 793 q 607 806 608 803 q 591 855 607 837 q 548 873 575 873 q 505 853 518 873 q 492 791 492 834 l 492 338 q 505 276 492 295 q 549 257 518 257 q 593 276 579 257 q 607 338 606 295 l 607 407 z "},"H":{"ha":1079,"x_min":34,"x_max":1045,"o":"m 34 0 l 34 1128 l 491 1128 l 491 746 l 588 746 l 588 1128 l 1045 1128 l 1045 0 l 588 0 l 588 489 l 491 489 l 491 0 l 34 0 z "},"I":{"ha":526,"x_min":34,"x_max":492,"o":"m 34 0 l 34 1128 l 492 1128 l 492 0 l 34 0 z "},"J":{"ha":1099,"x_min":34,"x_max":1065,"o":"m 1065 1128 l 1065 271 q 1001 60 1065 119 q 772 0 938 0 l 316 0 q 185 14 238 0 q 97 62 131 29 q 49 146 64 94 q 34 271 34 197 l 34 483 l 484 483 l 484 337 q 498 276 484 294 q 542 257 512 257 q 588 276 574 257 q 603 337 603 294 l 603 1128 l 1065 1128 z "},"K":{"ha":1163,"x_min":34,"x_max":1129,"o":"m 34 0 l 34 1128 l 492 1128 l 492 672 l 643 1128 l 1119 1128 l 939 604 l 1129 0 l 659 0 l 492 515 l 492 0 l 34 0 z "},"L":{"ha":803,"x_min":34,"x_max":769,"o":"m 34 0 l 34 1128 l 489 1128 l 489 257 l 769 257 l 769 0 l 34 0 z "},"M":{"ha":1520,"x_min":34,"x_max":1486,"o":"m 615 0 l 492 480 l 492 0 l 34 0 l 34 1128 l 611 1128 l 760 676 l 908 1128 l 1486 1128 l 1486 0 l 1027 0 l 1027 480 l 904 0 l 615 0 z "},"N":{"ha":1227,"x_min":34,"x_max":1193,"o":"m 34 0 l 34 1128 l 533 1128 l 732 663 l 732 1128 l 1193 1128 l 1193 0 l 716 0 l 494 531 l 494 0 l 34 0 z "},"O":{"ha":1126,"x_min":34,"x_max":1092,"o":"m 504 792 l 504 338 q 518 276 504 295 q 563 257 531 257 q 608 276 594 257 q 622 338 622 295 l 622 792 q 562 874 622 874 q 517 855 531 874 q 504 792 504 835 m 316 0 q 185 15 238 0 q 97 62 131 30 q 49 146 64 95 q 34 271 34 198 l 34 888 q 101 1071 34 1015 q 316 1128 169 1128 l 798 1128 q 933 1115 877 1128 q 1024 1073 988 1102 q 1076 998 1059 1044 q 1092 888 1092 952 l 1092 271 q 1027 60 1092 121 q 938 15 996 30 q 798 0 881 0 l 316 0 z "},"P":{"ha":1113,"x_min":34,"x_max":1079,"o":"m 556 873 l 494 873 l 494 557 l 554 557 q 604 575 589 557 q 619 637 619 593 l 619 792 q 604 855 619 836 q 556 873 590 873 m 34 0 l 34 1128 l 787 1128 q 921 1114 866 1128 q 1012 1071 977 1100 q 1063 995 1047 1042 q 1079 885 1079 949 l 1079 574 q 1014 361 1079 421 q 787 301 951 301 l 494 301 l 494 0 l 34 0 z "},"Q":{"ha":1126,"x_min":34,"x_max":1092,"o":"m 504 793 l 504 337 q 518 276 504 294 q 563 257 531 257 q 608 276 594 257 q 622 337 622 294 l 622 793 q 563 875 622 875 q 517 856 531 875 q 504 793 504 836 m 334 0 q 185 14 239 0 q 97 62 131 29 q 49 146 64 94 q 34 271 34 197 l 34 889 q 102 1072 34 1016 q 316 1129 169 1129 l 798 1129 q 933 1116 878 1129 q 1024 1074 989 1103 q 1076 999 1060 1045 q 1092 889 1092 953 l 1092 271 q 1027 60 1092 121 q 938 14 996 29 q 798 0 881 0 l 792 0 l 792 -215 l 333 -215 l 334 0 z "},"R":{"ha":1113,"x_min":34,"x_max":1079,"o":"m 556 873 l 494 873 l 494 648 l 554 648 q 604 666 589 648 q 619 729 619 685 l 619 792 q 604 855 619 836 q 556 873 590 873 m 494 328 l 494 0 l 34 0 l 34 1128 l 787 1128 q 921 1114 866 1128 q 1012 1071 977 1100 q 1063 995 1047 1042 q 1079 885 1079 949 l 1079 665 q 1014 453 1079 512 q 946 414 988 429 q 1076 0 1076 327 l 616 0 q 494 328 615 328 z "},"S":{"ha":1134,"x_min":34,"x_max":1100,"o":"m 326 0 q 107 52 181 0 q 37 227 34 105 l 37 424 l 513 424 l 513 348 q 571 270 513 270 q 616 289 602 270 q 630 354 630 309 q 627 397 630 380 q 616 426 625 413 q 592 447 608 438 q 550 466 576 456 l 227 586 q 76 674 114 627 q 37 806 37 724 l 37 923 q 110 1076 37 1024 q 329 1127 184 1127 l 808 1127 q 1027 1076 954 1127 q 1100 923 1100 1024 l 1100 794 l 627 794 l 627 807 q 566 882 627 882 q 526 867 541 882 q 510 828 510 852 q 513 807 510 815 q 524 790 515 798 q 550 773 533 782 q 594 754 566 764 l 970 608 q 1030 575 1006 594 q 1071 529 1055 556 q 1094 465 1087 502 q 1100 376 1100 427 l 1100 255 q 1028 56 1098 112 q 806 0 958 0 l 326 0 z "},"T":{"ha":1041,"x_min":34,"x_max":1007,"o":"m 281 0 l 281 871 l 34 871 l 34 1128 l 1007 1128 l 1007 871 l 760 871 l 760 0 l 281 0 z "},"U":{"ha":1126,"x_min":34,"x_max":1093,"o":"m 622 1135 l 1093 1135 l 1092 895 l 1092 262 q 1027 52 1092 113 q 938 6 996 21 q 798 -8 880 -8 l 315 -8 q 184 6 238 -8 q 97 53 131 21 q 49 137 64 86 q 34 262 34 189 l 34 1135 l 315 1135 l 504 1135 l 504 329 q 517 267 504 286 q 562 249 531 249 q 607 267 593 249 q 622 329 622 286 l 622 1135 z "},"V":{"ha":1147,"x_min":34,"x_max":1113,"o":"m 276 1 l 34 1128 l 494 1128 l 573 412 l 653 1128 l 1113 1128 l 871 1 l 276 1 z "},"W":{"ha":1672,"x_min":34,"x_max":1638,"o":"m 1004 1128 l 1095 612 l 1180 1128 l 1638 1128 l 1400 1 l 934 1 l 836 478 l 737 1 l 271 1 l 34 1128 l 493 1128 l 577 612 l 668 1128 l 1004 1128 z "},"X":{"ha":1141,"x_min":34,"x_max":1107,"o":"m 34 0 l 210 567 l 42 1128 l 493 1128 l 571 813 l 649 1128 l 1099 1128 l 932 567 l 1107 0 l 661 0 l 571 393 l 482 0 l 34 0 z "},"Y":{"ha":1222,"x_min":34,"x_max":1188,"o":"m 378 1 l 378 427 l 34 1128 l 487 1128 l 611 858 l 735 1128 l 1188 1128 l 843 427 l 843 1 l 378 1 z "},"Z":{"ha":960,"x_min":34,"x_max":926,"o":"m 926 1128 l 926 892 l 586 258 l 926 258 l 926 1 l 34 1 l 34 242 l 373 871 l 64 871 l 64 1128 l 926 1128 z "},"[":{"ha":710,"x_min":34,"x_max":676,"o":"m 34 -260 l 34 1400 l 676 1400 l 676 1174 l 489 1174 l 489 -34 l 676 -34 l 676 -260 l 34 -260 z "},"\\":{"ha":778,"x_min":34,"x_max":744,"o":"m 744 -114 l 440 -114 l 34 1240 l 337 1240 l 744 -114 z "},"]":{"ha":710,"x_min":34,"x_max":677,"o":"m 34 -260 l 34 -34 l 222 -34 l 222 1174 l 34 1174 l 34 1400 l 677 1400 l 676 -260 l 34 -260 z "},"^":{"ha":624,"x_min":34,"x_max":590,"o":"m 445 1407 l 590 1128 l 361 1128 l 312 1224 l 262 1128 l 34 1128 l 178 1407 l 445 1407 z "},"_":{"ha":701,"x_min":34,"x_max":667,"o":"m 34 -92 l 667 -92 l 667 -349 l 34 -349 l 34 -92 z "},"`":{"ha":433,"x_min":34,"x_max":399,"o":"m 253 1494 l 399 1222 l 180 1222 l 34 1494 l 253 1494 z "},"a":{"ha":1122,"x_min":34,"x_max":1088,"o":"m 635 257 l 635 395 l 573 374 q 511 338 528 359 q 494 277 494 317 l 494 257 q 563 186 494 186 q 617 203 599 186 q 635 257 635 220 m 632 574 l 632 652 q 616 708 633 693 q 563 723 599 723 q 511 707 527 723 q 495 652 495 690 l 495 623 l 49 623 l 50 687 q 65 783 50 744 q 117 846 81 822 q 212 880 153 869 q 355 890 270 890 l 783 890 q 926 880 867 890 q 1020 845 984 869 q 1072 782 1057 821 q 1088 687 1088 743 l 1088 0 l 359 0 q 124 62 203 -3 q 34 303 44 126 q 355 574 57 567 l 632 574 z "},"b":{"ha":1127,"x_min":34,"x_max":1094,"o":"m 499 234 q 564 168 499 168 q 627 234 627 168 l 627 635 q 612 686 627 671 q 564 701 597 701 q 499 635 499 701 l 499 234 m 494 890 l 788 890 q 931 879 873 890 q 1026 846 989 869 q 1078 784 1062 822 q 1094 693 1094 747 l 1094 198 q 1078 105 1094 143 q 1026 44 1062 67 q 931 10 990 21 q 788 0 873 0 l 338 0 q 195 10 253 0 q 102 43 137 21 q 50 104 66 66 q 34 198 34 142 l 34 1128 l 494 1128 l 494 890 z "},"c":{"ha":1127,"x_min":34,"x_max":1094,"o":"m 1094 200 q 1078 105 1094 143 q 1026 42 1062 66 q 931 8 989 18 q 788 -3 873 -3 l 338 -3 q 195 8 253 -3 q 101 42 137 18 q 50 104 66 65 q 34 200 34 143 l 34 685 q 101 843 34 798 q 195 877 135 865 q 290 885 224 882 q 460 887 356 887 l 788 887 q 931 877 873 887 q 1026 842 989 867 q 1078 779 1062 818 q 1094 685 1094 741 l 1094 549 l 627 549 l 627 648 q 563 715 627 715 q 514 700 530 715 q 499 648 499 684 l 499 236 q 563 168 499 168 q 612 184 596 168 q 627 236 627 200 l 627 378 l 1094 378 l 1094 200 z "},"d":{"ha":1127,"x_min":34,"x_max":1094,"o":"m 629 235 l 628 635 q 565 701 628 701 q 516 686 531 701 q 500 635 501 671 l 501 235 q 565 169 501 169 q 629 235 629 169 m 634 1128 l 1094 1128 l 1094 199 q 1078 105 1094 142 q 1027 44 1062 67 q 933 11 991 21 q 790 1 874 1 l 340 1 q 197 11 255 1 q 102 45 138 21 q 50 106 66 68 q 34 199 34 144 l 34 693 q 50 784 34 747 q 102 846 66 822 q 197 879 138 869 q 340 890 255 890 l 634 890 l 634 1128 z "},"e":{"ha":1127,"x_min":34,"x_max":1094,"o":"m 1094 200 q 1078 105 1094 143 q 1026 42 1062 66 q 931 8 989 18 q 788 -3 873 -3 l 338 -3 q 195 8 253 -3 q 101 42 137 18 q 50 104 66 65 q 34 200 34 143 l 34 685 q 50 781 34 742 q 101 843 66 820 q 195 877 137 867 q 338 887 253 887 l 788 887 q 931 877 873 887 q 1026 842 989 867 q 1078 779 1062 818 q 1094 685 1094 741 l 1094 417 l 499 417 l 499 236 q 563 168 499 168 q 612 184 596 168 q 627 236 627 200 l 627 350 l 1094 350 l 1094 200 m 495 648 l 495 577 l 633 577 l 632 648 q 563 723 632 723 q 511 705 527 723 q 495 648 495 688 z "},"f":{"ha":769,"x_min":34,"x_max":735,"o":"m 152 891 q 168 1004 152 948 q 219 1083 184 1060 q 313 1117 255 1107 q 457 1128 371 1128 l 735 1128 l 735 962 l 723 962 q 635 951 659 962 q 612 913 612 940 l 612 881 l 735 881 l 735 711 l 612 711 l 612 0 l 152 0 l 152 711 l 34 711 l 34 881 l 152 881 l 152 891 z "},"g":{"ha":1122,"x_min":34,"x_max":1088,"o":"m 1088 -25 q 1072 -147 1088 -108 q 1020 -210 1056 -186 q 927 -245 985 -235 q 784 -256 869 -256 l 212 -256 l 213 -85 l 556 -85 q 630 0 638 -86 q 459 1 527 1 q 355 1 391 1 q 115 64 196 1 q 34 255 34 128 l 34 636 q 115 830 34 763 q 350 890 196 896 l 1088 890 l 1088 -25 m 628 621 q 613 674 628 657 q 564 690 597 690 q 498 621 498 690 l 498 270 q 513 218 498 234 q 565 202 529 202 q 613 218 598 202 q 628 270 628 234 l 628 621 z "},"h":{"ha":1115,"x_min":34,"x_max":1081,"o":"m 34 0 l 34 1128 l 494 1128 l 494 890 l 762 889 q 1000 823 920 889 q 1081 631 1081 757 l 1081 0 l 622 0 l 622 618 q 557 686 622 686 q 509 670 524 686 q 494 618 494 654 l 494 0 l 34 0 z "},"i":{"ha":526,"x_min":34,"x_max":492,"o":"m 34 0 l 34 890 l 492 890 l 492 0 l 34 0 m 34 936 l 34 1127 l 492 1127 l 492 936 l 34 936 z "},"j":{"ha":526,"x_min":34,"x_max":492,"o":"m 34 -254 l 34 890 l 492 890 l 492 -254 l 34 -254 m 34 936 l 34 1127 l 492 1127 l 492 936 l 34 936 z "},"k":{"ha":1123,"x_min":34,"x_max":1089,"o":"m 34 0 l 34 1128 l 484 1128 l 484 535 l 534 890 l 1002 890 l 871 467 l 1089 0 l 623 0 l 484 414 l 484 0 l 34 0 z "},"l":{"ha":526,"x_min":34,"x_max":492,"o":"m 34 0 l 34 1128 l 492 1128 l 492 0 l 34 0 z "},"m":{"ha":1683,"x_min":34,"x_max":1649,"o":"m 34 0 l 34 890 l 1337 890 q 1569 829 1488 895 q 1649 637 1649 763 l 1649 0 l 1194 0 l 1194 622 q 1130 690 1194 690 q 1082 674 1097 690 q 1066 622 1066 658 l 1066 0 l 617 0 l 617 622 q 553 690 617 690 q 504 674 519 690 q 489 622 489 658 l 489 0 l 34 0 z "},"n":{"ha":1114,"x_min":34,"x_max":1080,"o":"m 34 0 l 34 890 l 764 890 q 1000 829 919 895 q 1080 637 1080 763 l 1080 0 l 621 0 l 621 622 q 557 690 621 690 q 509 674 524 690 q 493 622 493 658 l 493 0 l 34 0 z "},"o":{"ha":1125,"x_min":34,"x_max":1092,"o":"m 498 649 l 498 237 q 562 169 498 169 q 611 185 595 169 q 626 237 626 201 l 626 649 q 562 717 626 717 q 513 701 529 717 q 498 649 498 685 m 34 686 q 50 782 34 743 q 101 844 66 821 q 195 878 136 868 q 337 889 253 889 l 787 889 q 929 878 871 889 q 1024 844 987 868 q 1076 780 1060 819 q 1092 686 1092 742 l 1092 201 q 1076 106 1092 144 q 1024 44 1060 68 q 929 9 987 19 q 787 -1 871 -1 l 337 -1 q 195 9 253 -1 q 101 43 136 19 q 50 105 66 66 q 34 201 34 144 l 34 686 z "},"p":{"ha":1127,"x_min":34,"x_max":1094,"o":"m 499 656 l 499 253 q 563 186 499 186 q 612 202 596 186 q 627 253 627 217 l 627 656 q 563 722 627 722 q 499 656 499 722 m 494 -256 l 34 -256 l 34 692 q 50 786 34 748 q 101 847 66 824 q 195 880 137 870 q 338 890 253 890 l 788 890 q 931 880 873 890 q 1026 846 989 870 q 1078 785 1062 823 q 1094 692 1094 747 l 1094 195 q 1078 103 1094 141 q 1026 42 1062 65 q 931 8 990 18 q 788 -2 873 -2 l 494 -2 l 494 -256 z "},"q":{"ha":1127,"x_min":34,"x_max":1094,"o":"m 628 656 q 565 722 628 722 q 500 656 500 722 l 500 253 q 516 202 500 217 q 565 186 531 186 q 628 253 628 186 l 628 656 m 633 -2 l 339 -2 q 196 8 254 -2 q 102 42 138 18 q 50 103 65 65 q 34 195 34 141 l 34 692 q 50 785 34 747 q 102 846 65 823 q 196 880 138 870 q 339 890 254 890 l 789 890 q 932 880 874 890 q 1026 847 990 870 q 1077 786 1061 824 q 1093 692 1093 748 l 1094 -256 l 634 -256 l 633 -2 z "},"r":{"ha":762,"x_min":34,"x_max":728,"o":"m 34 0 l 34 887 l 480 887 l 480 818 q 728 888 557 901 l 728 637 q 494 474 507 635 l 494 0 l 34 0 z "},"s":{"ha":1127,"x_min":34,"x_max":1094,"o":"m 1094 200 q 1077 105 1093 143 q 1025 42 1061 66 q 931 8 989 18 q 788 -3 872 -3 l 338 -3 q 195 8 253 -3 q 101 42 136 18 q 50 104 65 65 q 34 200 34 143 l 34 309 l 499 309 l 499 236 q 563 168 499 168 q 612 184 596 168 q 627 236 627 200 l 627 259 q 520 347 627 319 l 253 412 q 85 483 128 444 q 42 602 42 522 l 42 685 q 58 781 42 742 q 110 843 74 820 q 204 877 146 867 q 348 887 263 887 l 788 887 q 931 877 872 887 q 1025 842 989 867 q 1077 779 1061 818 q 1093 685 1093 741 l 1094 625 l 632 625 l 632 648 q 568 715 632 715 q 523 702 541 715 q 505 666 505 688 q 509 641 505 652 q 526 620 513 630 q 564 601 539 610 q 631 583 589 592 l 831 532 q 1039 445 986 492 q 1094 307 1094 399 l 1094 200 z "},"t":{"ha":773,"x_min":34,"x_max":740,"o":"m 152 882 l 152 1128 l 612 1128 l 612 882 l 740 882 l 740 712 l 612 712 l 612 0 l 152 0 l 152 712 l 34 712 l 34 882 l 152 882 z "},"u":{"ha":1124,"x_min":34,"x_max":1090,"o":"m 1090 890 l 1090 0 l 356 1 q 115 64 196 1 q 34 254 34 127 l 34 890 l 497 890 l 497 269 q 562 201 497 201 q 611 217 595 201 q 626 269 626 233 l 626 890 l 1090 890 z "},"v":{"ha":1089,"x_min":34,"x_max":1056,"o":"m 870 0 l 221 0 l 34 890 l 468 890 l 545 388 l 624 890 l 1056 890 l 870 0 z "},"w":{"ha":1703,"x_min":34,"x_max":1669,"o":"m 356 1 q 115 64 196 1 q 34 254 34 127 l 34 890 l 497 890 l 497 269 q 558 201 497 203 q 618 269 618 203 l 618 890 l 1085 890 l 1085 269 q 1145 201 1085 203 q 1206 269 1206 203 l 1206 890 l 1669 890 l 1669 1 l 356 1 z "},"x":{"ha":1226,"x_min":34,"x_max":1192,"o":"m 731 890 l 1192 890 l 999 455 l 1189 0 l 709 0 l 614 375 l 517 0 l 37 0 l 227 455 l 34 890 l 495 890 l 611 557 l 731 890 z "},"y":{"ha":1122,"x_min":34,"x_max":1088,"o":"m 628 890 l 1088 890 l 1088 -25 q 1072 -147 1088 -108 q 1020 -210 1056 -186 q 926 -245 984 -235 q 784 -256 869 -256 l 85 -256 l 85 -86 l 517 -86 q 605 -75 581 -86 q 631 -4 629 -64 q 459 -5 527 -5 l 355 -5 q 114 61 195 -5 q 34 254 34 128 l 34 890 l 498 890 l 498 270 q 513 217 498 233 q 565 201 528 201 q 613 217 598 201 q 629 270 628 233 l 628 890 z "},"z":{"ha":926,"x_min":34,"x_max":892,"o":"m 34 0 l 34 162 l 367 704 l 66 704 l 66 890 l 870 890 l 870 726 l 537 182 l 892 182 l 892 0 l 34 0 z "},"{":{"ha":790,"x_min":34,"x_max":756,"o":"m 756 1176 l 714 1176 q 646 1172 672 1176 q 604 1155 620 1167 q 581 1122 588 1143 q 575 1067 575 1101 l 575 749 q 565 672 575 703 q 530 620 554 641 q 466 586 506 598 q 368 566 427 574 q 469 546 431 559 q 529 512 507 532 q 575 384 575 471 l 575 73 q 581 18 575 39 q 603 -14 588 -2 q 645 -30 618 -26 q 713 -35 672 -35 l 756 -35 l 756 -263 l 680 -263 q 564 -262 613 -263 q 478 -256 515 -260 q 413 -246 440 -252 q 364 -232 386 -241 q 285 -174 309 -214 q 261 -46 261 -133 l 261 283 q 217 407 261 371 q 81 441 173 443 l 34 441 l 34 691 l 85 691 q 217 726 173 690 q 261 849 261 762 l 262 1193 q 267 1270 261 1239 q 285 1322 273 1301 q 317 1357 297 1343 q 365 1380 336 1371 q 415 1394 388 1389 q 479 1404 442 1400 q 564 1410 515 1409 q 680 1411 613 1411 l 756 1411 l 756 1176 z "},"|":{"ha":334,"x_min":34,"x_max":300,"o":"m 300 1403 l 300 -328 l 34 -328 l 34 1403 l 300 1403 z "},"}":{"ha":790,"x_min":34,"x_max":756,"o":"m 34 1411 l 110 1411 q 226 1410 177 1411 q 311 1404 274 1409 q 375 1394 348 1400 q 426 1380 402 1389 q 473 1357 453 1371 q 505 1322 492 1343 q 523 1270 517 1301 q 528 1193 528 1239 l 528 849 q 573 726 528 762 q 705 691 617 690 l 756 691 l 756 441 l 709 441 q 573 407 617 443 q 528 283 528 371 l 528 -46 q 505 -174 528 -133 q 426 -232 481 -214 q 376 -246 404 -241 q 312 -256 349 -252 q 226 -262 274 -260 q 110 -263 177 -263 l 34 -263 l 34 -35 l 77 -35 q 144 -30 117 -35 q 187 -14 172 -26 q 208 18 202 -2 q 214 73 214 39 l 214 384 q 260 512 214 471 q 321 546 282 532 q 421 566 359 559 q 323 586 363 574 q 260 620 284 598 q 225 672 235 641 q 214 749 214 703 l 214 1067 q 208 1122 214 1101 q 186 1155 202 1143 q 144 1172 170 1167 q 76 1176 117 1176 l 34 1176 l 34 1411 z "},"~":{"ha":769,"x_min":34,"x_max":735,"o":"m 735 525 q 387 487 573 421 q 34 411 200 552 l 34 659 q 395 738 208 802 q 735 773 581 673 l 735 525 z "},"Ä":{"ha":1179,"x_min":34,"x_max":1145,"o":"m 549 493 l 630 493 l 589 877 l 549 493 m 34 0 l 249 1128 l 930 1128 l 1145 0 l 685 0 l 657 244 l 520 244 l 493 0 l 34 0 m 516 1223 l 230 1223 l 230 1462 l 516 1462 l 516 1223 m 978 1223 l 691 1223 l 691 1462 l 978 1462 l 978 1223 z "},"Å":{"ha":1179,"x_min":34,"x_max":1145,"o":"m 589 1339 q 544 1320 563 1339 q 525 1275 525 1301 q 544 1229 525 1248 q 589 1210 563 1210 q 635 1229 616 1210 q 654 1275 654 1248 q 635 1320 654 1301 q 589 1339 616 1339 m 714 1128 l 930 1128 l 1145 0 l 685 0 l 657 244 l 520 244 l 493 0 l 34 0 l 249 1128 l 464 1128 q 453 1139 458 1133 q 397 1275 397 1195 q 453 1410 397 1354 q 589 1467 510 1467 q 726 1410 669 1467 q 783 1275 783 1354 q 725 1138 783 1196 q 714 1128 720 1133 m 549 493 l 630 493 l 589 877 l 549 493 z "},"Ç":{"ha":1097,"x_min":34,"x_max":1063,"o":"m 494 1 l 308 1 q 100 59 165 1 q 34 244 34 117 l 34 874 q 49 999 34 948 q 96 1083 64 1051 q 180 1129 128 1115 q 308 1144 233 1144 l 777 1144 q 913 1129 857 1144 q 1000 1084 969 1115 q 1063 874 1063 1023 l 1063 726 l 606 726 l 606 808 q 592 871 606 852 q 548 890 578 890 q 504 870 517 890 q 491 808 491 851 l 491 338 q 504 276 491 295 q 548 256 517 256 q 606 338 606 256 l 606 469 l 1063 469 l 1063 244 q 1047 133 1063 179 q 997 58 1031 87 q 908 15 963 28 q 777 1 854 1 l 642 1 l 629 -74 q 706 -101 676 -79 q 751 -173 745 -131 q 712 -261 759 -223 q 405 -312 610 -341 l 423 -242 l 458 -242 q 554 -228 509 -242 q 591 -206 583 -219 q 597 -180 599 -194 q 576 -150 594 -163 q 520 -138 558 -138 q 466 -143 500 -138 l 494 1 z "},"É":{"ha":969,"x_min":34,"x_max":864,"o":"m 632 1494 l 485 1222 l 266 1222 l 413 1494 l 632 1494 m 34 0 l 34 1128 l 864 1128 l 864 871 l 489 871 l 489 693 l 822 693 l 822 436 l 489 436 l 489 257 l 864 257 l 864 0 l 34 0 z "},"Ñ":{"ha":1227,"x_min":34,"x_max":1193,"o":"m 34 0 l 34 1128 l 533 1128 l 732 663 l 732 1128 l 1193 1128 l 1193 0 l 716 0 l 494 531 l 494 0 l 34 0 m 942 1351 q 720 1217 841 1217 q 567 1262 662 1217 q 500 1280 525 1280 q 380 1213 450 1280 l 285 1341 q 498 1455 389 1455 q 641 1417 561 1455 q 718 1392 692 1392 q 847 1476 773 1392 l 942 1351 z "},"Ö":{"ha":1126,"x_min":34,"x_max":1092,"o":"m 504 799 l 504 329 q 518 267 504 286 q 563 249 531 249 q 608 267 594 249 q 622 329 622 286 l 622 799 q 562 881 622 881 q 517 861 531 881 q 504 799 504 842 m 316 -8 q 185 6 238 -8 q 97 53 131 21 q 49 137 64 86 q 34 262 34 189 l 34 895 q 101 1078 34 1021 q 316 1135 169 1135 l 798 1135 q 933 1122 877 1135 q 1024 1079 988 1108 q 1076 1004 1059 1050 q 1092 895 1092 958 l 1092 262 q 1027 52 1092 113 q 938 6 996 21 q 798 -8 881 -8 l 316 -8 m 470 1223 l 184 1223 l 184 1462 l 470 1462 l 470 1223 m 931 1223 l 645 1223 l 645 1462 l 931 1462 l 931 1223 z "},"Ü":{"ha":1126,"x_min":34,"x_max":1093,"o":"m 622 1135 l 1093 1135 l 1092 895 l 1092 262 q 1027 52 1092 113 q 938 6 996 21 q 798 -8 880 -8 l 315 -8 q 184 6 238 -8 q 97 53 131 21 q 49 137 64 86 q 34 262 34 189 l 34 1135 l 315 1135 l 504 1135 l 504 329 q 517 267 504 286 q 562 249 531 249 q 607 267 593 249 q 622 329 622 286 l 622 1135 m 481 1223 l 195 1223 l 195 1462 l 481 1462 l 481 1223 m 942 1223 l 656 1223 l 656 1462 l 942 1462 l 942 1223 z "},"á":{"ha":1122,"x_min":34,"x_max":1088,"o":"m 635 257 l 635 395 l 573 374 q 511 338 528 359 q 494 277 494 317 l 494 257 q 563 186 494 186 q 617 203 599 186 q 635 257 635 220 m 632 574 l 632 652 q 616 708 633 693 q 563 723 599 723 q 511 707 527 723 q 495 652 495 690 l 495 623 l 49 623 l 50 687 q 65 783 50 744 q 117 846 81 822 q 212 880 153 869 q 355 890 270 890 l 783 890 q 926 880 867 890 q 1020 845 984 869 q 1072 782 1057 821 q 1088 687 1088 743 l 1088 0 l 359 0 q 124 62 203 -3 q 34 303 44 126 q 355 574 57 567 l 632 574 m 805 1251 l 658 979 l 439 979 l 586 1251 l 805 1251 z "},"à":{"ha":1122,"x_min":34,"x_max":1088,"o":"m 635 257 l 635 395 l 573 374 q 511 338 528 359 q 494 277 494 317 l 494 257 q 563 186 494 186 q 617 203 599 186 q 635 257 635 220 m 632 574 l 632 652 q 616 708 633 693 q 563 723 599 723 q 511 707 527 723 q 495 652 495 690 l 495 623 l 49 623 l 50 687 q 65 783 50 744 q 117 846 81 822 q 212 880 153 869 q 355 890 270 890 l 783 890 q 926 880 867 890 q 1020 845 984 869 q 1072 782 1057 821 q 1088 687 1088 743 l 1088 0 l 359 0 q 124 62 203 -3 q 34 303 44 126 q 355 574 57 567 l 632 574 m 536 1251 l 683 979 l 464 979 l 317 1251 l 536 1251 z "},"â":{"ha":1122,"x_min":34,"x_max":1088,"o":"m 635 257 l 635 395 l 573 374 q 511 338 528 359 q 494 277 494 317 l 494 257 q 563 186 494 186 q 617 203 599 186 q 635 257 635 220 m 632 574 l 632 652 q 616 708 633 693 q 563 723 599 723 q 511 707 527 723 q 495 652 495 690 l 495 623 l 49 623 l 50 687 q 65 783 50 744 q 117 846 81 822 q 212 880 153 869 q 355 890 270 890 l 783 890 q 926 880 867 890 q 1020 845 984 869 q 1072 782 1057 821 q 1088 687 1088 743 l 1088 0 l 359 0 q 124 62 203 -3 q 34 303 44 126 q 355 574 57 567 l 632 574 m 626 980 l 561 1083 l 496 980 l 298 980 l 474 1254 l 649 1254 l 649 1254 l 825 980 l 626 980 z "},"ä":{"ha":1122,"x_min":34,"x_max":1088,"o":"m 635 257 l 635 395 l 573 374 q 511 338 528 359 q 494 277 494 317 l 494 257 q 563 186 494 186 q 617 203 599 186 q 635 257 635 220 m 632 574 l 632 652 q 616 708 633 693 q 563 723 599 723 q 511 707 527 723 q 495 652 495 690 l 495 623 l 49 623 l 50 687 q 65 783 50 744 q 117 846 81 822 q 212 880 153 869 q 355 890 270 890 l 783 890 q 926 880 867 890 q 1020 845 984 869 q 1072 782 1057 821 q 1088 687 1088 743 l 1088 0 l 359 0 q 124 62 203 -3 q 34 303 44 126 q 355 574 57 567 l 632 574 m 494 980 l 208 980 l 208 1220 l 494 1220 l 494 980 m 956 980 l 669 980 l 669 1220 l 956 1220 l 956 980 z "},"ã":{"ha":1122,"x_min":34,"x_max":1088,"o":"m 635 257 l 635 395 l 573 374 q 511 338 528 359 q 494 277 494 317 l 494 257 q 563 186 494 186 q 617 203 599 186 q 635 257 635 220 m 632 574 l 632 652 q 616 708 633 693 q 563 723 599 723 q 511 707 527 723 q 495 652 495 690 l 495 623 l 49 623 l 50 687 q 65 783 50 744 q 117 846 81 822 q 212 880 153 869 q 355 890 270 890 l 783 890 q 926 880 867 890 q 1020 845 984 869 q 1072 782 1057 821 q 1088 687 1088 743 l 1088 0 l 359 0 q 124 62 203 -3 q 34 303 44 126 q 355 574 57 567 l 632 574 m 926 1107 q 704 974 825 974 q 551 1018 646 974 q 484 1037 509 1037 q 364 970 434 1037 l 269 1097 q 482 1211 373 1211 q 625 1173 544 1211 q 701 1148 676 1148 q 831 1233 758 1148 l 926 1107 z "},"å":{"ha":1122,"x_min":34,"x_max":1088,"o":"m 635 257 l 635 395 l 573 374 q 511 338 528 359 q 494 277 494 317 l 494 257 q 563 186 494 186 q 617 203 599 186 q 635 257 635 220 m 561 1119 q 515 1099 534 1119 q 496 1054 496 1080 q 515 1008 496 1027 q 561 989 534 989 q 606 1008 588 989 q 626 1054 626 1027 q 607 1099 626 1080 q 561 1119 588 1119 m 663 890 l 783 890 q 926 880 867 890 q 1020 845 984 869 q 1072 782 1057 821 q 1088 687 1088 743 l 1088 0 l 359 0 q 124 62 203 -3 q 34 303 44 126 q 355 574 57 567 l 632 574 l 632 652 q 616 708 633 693 q 563 723 599 723 q 511 707 527 723 q 495 652 495 690 l 495 623 l 49 623 l 50 687 q 65 783 50 744 q 117 846 81 822 q 212 880 153 869 q 355 890 270 890 l 458 890 q 424 918 440 902 q 368 1054 368 974 q 424 1189 368 1133 q 560 1246 481 1246 q 697 1189 641 1246 q 754 1054 754 1133 q 697 918 754 975 q 663 890 681 902 z "},"ç":{"ha":1127,"x_min":34,"x_max":1094,"o":"m 493 -3 l 338 -3 q 195 8 253 -3 q 101 42 137 18 q 50 104 66 65 q 34 200 34 143 l 34 685 q 101 843 34 798 q 195 877 135 865 q 290 885 224 882 q 460 887 356 887 l 788 887 q 931 877 873 887 q 1026 842 989 867 q 1078 779 1062 818 q 1094 685 1094 741 l 1094 549 l 627 549 l 627 648 q 563 715 627 715 q 514 700 530 715 q 499 648 499 684 l 499 236 q 563 168 499 168 q 612 184 596 168 q 627 236 627 200 l 627 378 l 1094 378 l 1094 200 q 1078 105 1094 143 q 1026 42 1062 66 q 931 8 989 18 q 788 -3 873 -3 l 642 -3 l 629 -74 q 706 -101 676 -79 q 751 -173 745 -131 q 712 -261 759 -223 q 405 -312 610 -341 l 423 -242 l 458 -242 q 554 -228 509 -242 q 591 -206 583 -219 q 597 -180 599 -194 q 576 -150 594 -163 q 520 -138 558 -138 q 466 -143 500 -138 l 493 -3 z "},"é":{"ha":1127,"x_min":34,"x_max":1094,"o":"m 1094 200 q 1078 105 1094 143 q 1026 42 1062 66 q 931 8 989 18 q 788 -3 873 -3 l 338 -3 q 195 8 253 -3 q 101 42 137 18 q 50 104 66 65 q 34 200 34 143 l 34 685 q 50 781 34 742 q 101 843 66 820 q 195 877 137 867 q 338 887 253 887 l 788 887 q 931 877 873 887 q 1026 842 989 867 q 1078 779 1062 818 q 1094 685 1094 741 l 1094 417 l 499 417 l 499 236 q 563 168 499 168 q 612 184 596 168 q 627 236 627 200 l 627 350 l 1094 350 l 1094 200 m 495 648 l 495 577 l 633 577 l 632 648 q 563 723 632 723 q 511 705 527 723 q 495 648 495 688 m 807 1251 l 661 979 l 442 979 l 588 1251 l 807 1251 z "},"è":{"ha":1127,"x_min":34,"x_max":1094,"o":"m 1094 200 q 1078 105 1094 143 q 1026 42 1062 66 q 931 8 989 18 q 788 -3 873 -3 l 338 -3 q 195 8 253 -3 q 101 42 137 18 q 50 104 66 65 q 34 200 34 143 l 34 685 q 50 781 34 742 q 101 843 66 820 q 195 877 137 867 q 338 887 253 887 l 788 887 q 931 877 873 887 q 1026 842 989 867 q 1078 779 1062 818 q 1094 685 1094 741 l 1094 417 l 499 417 l 499 236 q 563 168 499 168 q 612 184 596 168 q 627 236 627 200 l 627 350 l 1094 350 l 1094 200 m 495 648 l 495 577 l 633 577 l 632 648 q 563 723 632 723 q 511 705 527 723 q 495 648 495 688 m 528 1251 l 674 979 l 455 979 l 309 1251 l 528 1251 z "},"ê":{"ha":1127,"x_min":34,"x_max":1094,"o":"m 1094 200 q 1078 105 1094 143 q 1026 42 1062 66 q 931 8 989 18 q 788 -3 873 -3 l 338 -3 q 195 8 253 -3 q 101 42 137 18 q 50 104 66 65 q 34 200 34 143 l 34 685 q 50 781 34 742 q 101 843 66 820 q 195 877 137 867 q 338 887 253 887 l 788 887 q 931 877 873 887 q 1026 842 989 867 q 1078 779 1062 818 q 1094 685 1094 741 l 1094 417 l 499 417 l 499 236 q 563 168 499 168 q 612 184 596 168 q 627 236 627 200 l 627 350 l 1094 350 l 1094 200 m 495 648 l 495 577 l 633 577 l 632 648 q 563 723 632 723 q 511 705 527 723 q 495 648 495 688 m 627 980 l 562 1084 l 497 980 l 299 980 l 475 1254 l 650 1254 l 650 1254 l 826 980 l 627 980 z "},"ë":{"ha":1127,"x_min":34,"x_max":1094,"o":"m 1094 200 q 1078 105 1094 143 q 1026 42 1062 66 q 931 8 989 18 q 788 -3 873 -3 l 338 -3 q 195 8 253 -3 q 101 42 137 18 q 50 104 66 65 q 34 200 34 143 l 34 685 q 50 781 34 742 q 101 843 66 820 q 195 877 137 867 q 338 887 253 887 l 788 887 q 931 877 873 887 q 1026 842 989 867 q 1078 779 1062 818 q 1094 685 1094 741 l 1094 417 l 499 417 l 499 236 q 563 168 499 168 q 612 184 596 168 q 627 236 627 200 l 627 350 l 1094 350 l 1094 200 m 495 648 l 495 577 l 633 577 l 632 648 q 563 723 632 723 q 511 705 527 723 q 495 648 495 688 m 479 980 l 193 980 l 193 1220 l 479 1220 l 479 980 m 940 980 l 654 980 l 654 1220 l 940 1220 l 940 980 z "},"í":{"ha":541,"x_min":34,"x_max":507,"o":"m 34 0 l 34 890 l 492 890 l 492 0 l 34 0 m 507 1251 l 360 979 l 141 979 l 288 1251 l 507 1251 z "},"ì":{"ha":526,"x_min":34,"x_max":492,"o":"m 34 0 l 34 890 l 492 890 l 492 0 l 34 0 m 253 1251 l 399 979 l 180 979 l 34 1251 l 253 1251 z "},"î":{"ha":526,"x_min":3,"x_max":530,"o":"m 34 0 l 34 890 l 492 890 l 492 0 l 34 0 m 332 980 l 267 1083 l 202 980 l 3 980 l 179 1254 l 354 1254 l 354 1254 l 530 980 l 332 980 z "},"ï":{"ha":526,"x_min":-108,"x_max":639,"o":"m 34 0 l 34 890 l 492 890 l 492 0 l 34 0 m 178 980 l -108 980 l -108 1220 l 178 1220 l 178 980 m 639 980 l 353 980 l 353 1220 l 639 1220 l 639 980 z "},"ñ":{"ha":1114,"x_min":34,"x_max":1080,"o":"m 34 0 l 34 890 l 764 890 q 1000 829 919 895 q 1080 637 1080 763 l 1080 0 l 621 0 l 621 622 q 557 690 621 690 q 509 674 524 690 q 493 622 493 658 l 493 0 l 34 0 m 879 1108 q 657 975 778 975 q 504 1020 598 975 q 437 1038 462 1038 q 317 971 387 1038 l 221 1099 q 435 1213 326 1213 q 577 1175 497 1213 q 654 1149 629 1149 q 784 1234 710 1149 l 879 1108 z "},"ó":{"ha":1125,"x_min":34,"x_max":1092,"o":"m 498 649 l 498 237 q 562 169 498 169 q 611 185 595 169 q 626 237 626 201 l 626 649 q 562 717 626 717 q 513 701 529 717 q 498 649 498 685 m 34 686 q 50 782 34 743 q 101 844 66 821 q 195 878 136 868 q 337 889 253 889 l 787 889 q 929 878 871 889 q 1024 844 987 868 q 1076 780 1060 819 q 1092 686 1092 742 l 1092 201 q 1076 106 1092 144 q 1024 44 1060 68 q 929 9 987 19 q 787 -1 871 -1 l 337 -1 q 195 9 253 -1 q 101 43 136 19 q 50 105 66 66 q 34 201 34 144 l 34 686 m 806 1251 l 660 979 l 441 979 l 587 1251 l 806 1251 z "},"ò":{"ha":1125,"x_min":34,"x_max":1092,"o":"m 498 649 l 498 237 q 562 169 498 169 q 611 185 595 169 q 626 237 626 201 l 626 649 q 562 717 626 717 q 513 701 529 717 q 498 649 498 685 m 34 686 q 50 782 34 743 q 101 844 66 821 q 195 878 136 868 q 337 889 253 889 l 787 889 q 929 878 871 889 q 1024 844 987 868 q 1076 780 1060 819 q 1092 686 1092 742 l 1092 201 q 1076 106 1092 144 q 1024 44 1060 68 q 929 9 987 19 q 787 -1 871 -1 l 337 -1 q 195 9 253 -1 q 101 43 136 19 q 50 105 66 66 q 34 201 34 144 l 34 686 m 538 1250 l 685 978 l 466 978 l 319 1250 l 538 1250 z "},"ô":{"ha":1125,"x_min":34,"x_max":1092,"o":"m 498 649 l 498 237 q 562 169 498 169 q 611 185 595 169 q 626 237 626 201 l 626 649 q 562 717 626 717 q 513 701 529 717 q 498 649 498 685 m 34 686 q 50 782 34 743 q 101 844 66 821 q 195 878 136 868 q 337 889 253 889 l 787 889 q 929 878 871 889 q 1024 844 987 868 q 1076 780 1060 819 q 1092 686 1092 742 l 1092 201 q 1076 106 1092 144 q 1024 44 1060 68 q 929 9 987 19 q 787 -1 871 -1 l 337 -1 q 195 9 253 -1 q 101 43 136 19 q 50 105 66 66 q 34 201 34 144 l 34 686 m 634 980 l 569 1084 l 505 980 l 306 980 l 482 1254 l 657 1254 l 657 1254 l 833 980 l 634 980 z "},"ö":{"ha":1125,"x_min":34,"x_max":1092,"o":"m 498 649 l 498 237 q 562 169 498 169 q 611 185 595 169 q 626 237 626 201 l 626 649 q 562 717 626 717 q 513 701 529 717 q 498 649 498 685 m 34 686 q 50 782 34 743 q 101 844 66 821 q 195 878 136 868 q 337 889 253 889 l 787 889 q 929 878 871 889 q 1024 844 987 868 q 1076 780 1060 819 q 1092 686 1092 742 l 1092 201 q 1076 106 1092 144 q 1024 44 1060 68 q 929 9 987 19 q 787 -1 871 -1 l 337 -1 q 195 9 253 -1 q 101 43 136 19 q 50 105 66 66 q 34 201 34 144 l 34 686 m 482 980 l 196 980 l 196 1220 l 482 1220 l 482 980 m 943 980 l 657 980 l 657 1220 l 943 1220 l 943 980 z "},"õ":{"ha":1125,"x_min":34,"x_max":1092,"o":"m 498 649 l 498 237 q 562 169 498 169 q 611 185 595 169 q 626 237 626 201 l 626 649 q 562 717 626 717 q 513 701 529 717 q 498 649 498 685 m 34 686 q 50 782 34 743 q 101 844 66 821 q 195 878 136 868 q 337 889 253 889 l 787 889 q 929 878 871 889 q 1024 844 987 868 q 1076 780 1060 819 q 1092 686 1092 742 l 1092 201 q 1076 106 1092 144 q 1024 44 1060 68 q 929 9 987 19 q 787 -1 871 -1 l 337 -1 q 195 9 253 -1 q 101 43 136 19 q 50 105 66 66 q 34 201 34 144 l 34 686 m 906 1107 q 684 974 805 974 q 531 1018 626 974 q 464 1037 489 1037 q 344 970 413 1037 l 248 1097 q 462 1211 353 1211 q 604 1173 524 1211 q 681 1148 656 1148 q 811 1233 737 1148 l 906 1107 z "},"ú":{"ha":1124,"x_min":34,"x_max":1090,"o":"m 1090 890 l 1090 0 l 356 1 q 115 64 196 1 q 34 254 34 127 l 34 890 l 497 890 l 497 269 q 562 201 497 201 q 611 217 595 201 q 626 269 626 233 l 626 890 l 1090 890 m 806 1250 l 660 978 l 440 978 l 587 1250 l 806 1250 z "},"ù":{"ha":1124,"x_min":34,"x_max":1090,"o":"m 1090 890 l 1090 0 l 356 1 q 115 64 196 1 q 34 254 34 127 l 34 890 l 497 890 l 497 269 q 562 201 497 201 q 611 217 595 201 q 626 269 626 233 l 626 890 l 1090 890 m 537 1250 l 684 978 l 465 978 l 318 1250 l 537 1250 z "},"û":{"ha":1124,"x_min":34,"x_max":1090,"o":"m 1090 890 l 1090 0 l 356 1 q 115 64 196 1 q 34 254 34 127 l 34 890 l 497 890 l 497 269 q 562 201 497 201 q 611 217 595 201 q 626 269 626 233 l 626 890 l 1090 890 m 634 980 l 569 1084 l 504 980 l 306 980 l 481 1254 l 656 1254 l 656 1254 l 832 980 l 634 980 z "},"ü":{"ha":1124,"x_min":34,"x_max":1090,"o":"m 1090 890 l 1090 0 l 356 1 q 115 64 196 1 q 34 254 34 127 l 34 890 l 497 890 l 497 269 q 562 201 497 201 q 611 217 595 201 q 626 269 626 233 l 626 890 l 1090 890 m 477 980 l 191 980 l 191 1220 l 477 1220 l 477 980 m 938 980 l 652 980 l 652 1220 l 938 1220 l 938 980 z "},"†":{"ha":676,"x_min":34,"x_max":643,"o":"m 425 1004 l 643 1004 l 643 832 l 425 832 l 425 -53 l 252 -53 l 252 832 l 34 832 l 34 1004 l 252 1004 l 252 1222 l 425 1222 l 425 1004 z "},"°":{"ha":454,"x_min":34,"x_max":420,"o":"m 226 1607 q 363 1550 307 1607 q 420 1415 420 1494 q 363 1278 420 1336 q 227 1222 307 1222 q 90 1279 146 1222 q 34 1415 34 1335 q 90 1550 34 1494 q 226 1607 147 1607 m 227 1522 q 151 1490 182 1522 q 119 1415 119 1459 q 150 1338 119 1370 q 227 1307 182 1307 q 303 1338 271 1307 q 335 1415 335 1371 q 304 1490 335 1459 q 227 1522 272 1522 z "},"¢":{"ha":1127,"x_min":34,"x_max":1094,"o":"m 468 887 l 468 979 l 660 979 l 660 887 l 788 887 q 931 877 873 887 q 1026 842 989 867 q 1078 779 1062 818 q 1094 685 1094 741 l 1094 549 l 627 549 l 627 648 q 563 715 627 715 q 514 700 530 715 q 499 648 499 684 l 499 236 q 563 168 499 168 q 612 184 596 168 q 627 236 627 200 l 627 378 l 1094 378 l 1094 200 q 1078 105 1094 143 q 1026 42 1062 66 q 931 8 989 18 q 788 -3 873 -3 l 660 -3 l 660 -94 l 468 -94 l 468 -3 l 338 -3 q 195 8 253 -3 q 101 42 137 18 q 50 104 66 65 q 34 200 34 143 l 34 685 q 101 843 34 798 q 195 877 135 865 q 290 885 224 882 q 460 887 356 887 l 468 887 z "},"£":{"ha":1010,"x_min":34,"x_max":976,"o":"m 576 380 q 546 258 573 321 l 976 258 l 976 0 l 72 0 l 72 256 l 73 256 l 72 257 q 144 380 132 321 l 34 380 l 34 555 l 88 555 q 36 737 48 640 l 35 737 l 35 882 q 93 1073 35 1019 q 302 1127 152 1127 l 716 1127 q 835 1114 786 1127 q 913 1071 884 1101 q 958 995 944 1042 q 971 882 971 948 l 971 689 l 563 689 l 563 821 q 550 877 563 860 q 510 894 537 894 q 468 877 481 894 q 455 821 455 860 l 455 738 l 455 738 q 528 555 453 684 l 670 555 l 670 380 l 576 380 z "},"§":{"ha":807,"x_min":34,"x_max":773,"o":"m 82 537 q 98 768 34 649 q 121 799 112 788 q 82 856 99 825 q 98 1086 34 969 q 357 1222 180 1214 l 711 1222 l 711 1019 l 374 1018 q 275 980 292 1015 q 377 903 253 931 q 574 848 485 884 q 729 702 664 812 l 734 684 l 734 683 q 691 445 771 555 q 694 442 689 448 q 734 365 696 439 l 734 363 q 696 117 773 232 q 435 0 618 1 l 93 1 l 93 203 l 468 203 q 535 264 525 214 q 507 323 544 302 q 492 331 500 328 l 491 331 l 244 401 q 181 433 236 402 q 82 537 126 463 m 332 694 l 310 690 l 310 690 q 275 661 293 686 q 277 620 266 641 q 289 610 280 615 l 299 607 l 307 604 l 512 548 l 517 547 l 518 547 q 535 583 530 558 q 507 643 544 622 q 423 669 499 647 q 342 692 346 691 q 335 693 340 693 q 332 694 332 694 z "},"•":{"ha":337,"x_min":34,"x_max":303,"o":"m 169 710 q 264 671 224 710 q 303 575 303 631 q 264 480 303 520 q 169 441 224 441 q 73 480 113 441 q 34 575 34 520 q 73 671 34 631 q 169 710 113 710 z "},"¶":{"ha":844,"x_min":34,"x_max":810,"o":"m 344 -154 l 344 394 l 333 394 q 148 474 238 394 q 38 724 40 571 q 136 995 34 893 q 558 1125 268 1125 l 810 1125 l 810 -154 l 641 -154 l 641 982 l 514 982 l 514 -154 l 344 -154 z "},"ß":{"ha":1126,"x_min":34,"x_max":1092,"o":"m 34 918 q 107 1074 34 1020 q 312 1128 177 1128 l 816 1128 q 1022 1074 952 1128 q 1092 918 1092 1020 l 1092 825 q 1050 685 1092 739 q 911 599 1008 632 q 996 568 962 587 q 1052 519 1030 549 q 1083 447 1073 490 q 1092 346 1092 404 l 1092 239 q 1025 57 1092 115 q 816 0 959 0 l 585 0 l 585 255 q 592 254 591 254 q 633 273 620 254 q 646 333 646 291 l 646 399 q 572 478 646 478 l 572 729 q 609 748 590 735 q 646 806 646 774 q 630 856 646 836 q 573 876 616 873 q 499 856 525 879 q 484 807 484 842 l 484 1 l 34 1 l 34 918 z "},"®":{"ha":1087,"x_min":34,"x_max":1053,"o":"m 634 598 q 607 666 631 642 q 545 690 584 690 q 467 642 495 690 q 439 506 439 593 q 551 328 439 328 q 637 425 631 328 l 805 425 q 730 264 801 323 q 546 204 660 204 q 338 283 413 204 q 263 500 263 361 q 338 719 263 636 q 534 803 413 803 q 723 749 655 803 q 798 598 792 694 l 634 598 m 949 504 q 919 658 949 585 q 831 790 889 732 q 544 910 712 910 q 387 881 460 910 q 259 793 314 851 q 169 659 201 733 q 138 504 138 585 q 169 350 138 424 q 257 218 199 276 q 544 99 377 99 q 699 130 624 99 q 832 219 773 161 q 920 349 891 278 q 949 504 949 421 m 542 1013 q 741 974 648 1013 q 906 864 834 936 q 1015 700 977 793 q 1053 503 1053 607 q 1016 308 1053 399 q 906 146 978 217 q 737 32 831 71 q 542 -7 642 -7 q 350 31 441 -7 q 184 144 259 70 q 71 309 109 217 q 34 503 34 401 q 72 699 34 607 q 185 867 110 792 q 347 975 256 938 q 542 1013 438 1013 z "},"©":{"ha":1087,"x_min":34,"x_max":1053,"o":"m 496 682 l 496 551 l 532 551 q 613 618 613 551 q 523 682 613 682 l 496 682 m 549 790 q 729 749 667 790 q 791 628 791 707 q 762 536 791 575 q 680 479 732 497 l 801 239 l 612 239 l 513 450 l 496 450 l 496 239 l 323 239 l 323 790 l 549 790 m 949 504 q 919 658 949 585 q 831 790 889 732 q 544 910 712 910 q 387 881 460 910 q 259 793 314 851 q 169 659 201 733 q 138 504 138 585 q 169 350 138 424 q 257 218 199 276 q 544 99 377 99 q 699 130 624 99 q 832 219 773 161 q 920 349 891 278 q 949 504 949 421 m 542 1013 q 741 974 648 1013 q 906 864 834 936 q 1015 700 977 793 q 1053 503 1053 607 q 1016 308 1053 399 q 906 146 978 217 q 737 32 831 71 q 542 -7 642 -7 q 350 31 441 -7 q 184 144 259 70 q 71 309 109 217 q 34 503 34 401 q 72 699 34 607 q 185 867 110 792 q 347 975 256 938 q 542 1013 438 1013 z "},"™":{"ha":1247,"x_min":34,"x_max":1214,"o":"m 145 677 l 145 1025 l 34 1025 l 34 1128 l 472 1128 l 472 1025 l 360 1025 l 360 677 l 145 677 m 791 677 l 705 925 l 705 677 l 499 677 l 499 1128 l 792 1128 l 856 941 l 920 1128 l 1214 1128 l 1214 677 l 1007 677 l 1007 925 l 921 677 l 791 677 z "},"´":{"ha":433,"x_min":34,"x_max":399,"o":"m 399 1494 l 253 1222 l 34 1222 l 180 1494 l 399 1494 z "},"¨":{"ha":815,"x_min":34,"x_max":781,"o":"m 320 1223 l 34 1223 l 34 1462 l 320 1462 l 320 1223 m 781 1223 l 495 1223 l 495 1462 l 781 1462 l 781 1223 z "},"≠":{"ha":701,"x_min":34,"x_max":667,"o":"m 140 293 l 34 293 l 34 550 l 295 550 l 312 579 l 34 579 l 34 836 l 466 836 l 507 903 l 602 903 l 562 836 l 667 836 l 667 579 l 407 579 l 390 550 l 667 550 l 667 293 l 235 293 l 195 226 l 100 226 l 140 293 z "},"Æ":{"ha":1604,"x_min":34,"x_max":1570,"o":"m 603 493 l 704 493 l 706 874 l 603 493 m 688 0 l 689 244 l 552 244 l 493 0 l 34 0 l 396 1128 l 1570 1128 l 1570 871 l 1124 871 l 1124 747 l 1528 747 l 1528 490 l 1124 490 l 1124 257 l 1570 257 l 1570 0 l 688 0 z "},"Ø":{"ha":1126,"x_min":34,"x_max":1092,"o":"m 622 626 l 504 370 l 504 329 q 518 267 504 286 q 563 249 531 249 q 608 267 594 249 q 622 329 622 286 l 622 626 m 786 1135 l 834 1240 l 905 1240 l 855 1133 q 933 1122 898 1129 q 1024 1079 988 1108 q 1076 1004 1059 1050 q 1092 895 1092 958 l 1092 262 q 1027 52 1092 113 q 938 6 996 21 q 798 -8 881 -8 l 330 -8 l 281 -114 l 211 -114 l 260 -6 q 185 6 218 -3 q 97 53 131 21 q 49 137 64 86 q 34 262 34 189 l 34 895 q 101 1078 34 1021 q 316 1135 169 1135 l 786 1135 m 504 523 l 622 778 l 622 799 q 562 881 622 881 q 517 861 531 881 q 504 799 504 842 l 504 523 z "},"∞":{"ha":1005,"x_min":34,"x_max":971,"o":"m 449 604 q 553 710 490 680 q 702 739 615 739 q 893 675 815 739 q 971 511 971 611 q 893 345 971 409 q 724 281 814 281 q 603 316 656 281 q 497 424 549 350 q 277 310 424 310 q 103 367 172 310 q 34 512 34 425 q 97 655 34 597 q 252 713 160 713 q 358 690 309 713 q 449 604 407 667 m 527 479 q 613 379 568 411 q 727 347 659 347 q 860 393 807 347 q 912 511 912 438 q 858 632 912 582 q 731 682 804 682 q 669 672 696 682 q 622 641 643 661 q 580 582 602 621 l 527 479 m 414 529 l 420 544 q 251 650 360 650 q 137 612 181 650 q 92 513 93 574 q 135 409 93 451 q 237 367 177 367 q 332 399 289 367 q 414 529 375 432 z "},"±":{"ha":701,"x_min":34,"x_max":667,"o":"m 222 527 l 34 527 l 34 784 l 222 784 l 222 972 l 479 972 l 479 784 l 667 784 l 667 527 l 479 527 l 479 383 l 667 383 l 667 126 l 34 126 l 34 383 l 222 383 l 222 527 z "},"≤":{"ha":701,"x_min":34,"x_max":667,"o":"m 659 889 l 356 757 l 659 625 l 659 386 l 36 661 l 36 854 l 659 1129 l 659 889 m 34 385 l 667 385 l 667 127 l 34 127 l 34 385 z "},"≥":{"ha":701,"x_min":34,"x_max":667,"o":"m 36 1129 l 659 854 l 659 661 l 36 386 l 36 625 l 338 757 l 36 889 l 36 1129 m 34 385 l 667 385 l 667 127 l 34 127 l 34 385 z "},"¥":{"ha":1222,"x_min":34,"x_max":1188,"o":"m 372 440 l 247 440 l 247 615 l 286 615 l 34 1128 l 487 1128 l 611 858 l 735 1128 l 1188 1128 l 936 615 l 975 615 l 975 440 l 850 440 l 843 427 l 843 371 l 975 371 l 975 196 l 843 196 l 843 1 l 378 1 l 378 196 l 247 196 l 247 371 l 378 371 l 378 427 l 372 440 z "},"µ":{"ha":1116,"x_min":34,"x_max":1083,"o":"m 34 0 l 34 0 l 34 883 l 502 883 l 501 231 q 510 215 505 221 q 559 199 526 199 q 623 267 623 199 l 623 883 l 1083 883 l 1082 252 q 1002 63 1082 126 q 763 1 922 1 l 501 0 l 501 -257 l 34 -257 l 34 0 z "},"æ":{"ha":1729,"x_min":34,"x_max":1695,"o":"m 635 257 l 635 395 l 573 374 q 511 338 528 359 q 494 277 494 317 l 494 257 q 563 186 494 186 q 617 203 599 186 q 635 257 635 220 m 1097 648 l 1097 577 l 1235 577 l 1234 648 q 1165 723 1234 723 q 1113 705 1129 723 q 1097 648 1097 688 m 359 0 q 124 62 203 -3 q 34 303 44 126 q 355 574 39 538 l 632 573 l 632 652 q 616 708 633 693 q 563 723 599 723 q 511 707 527 723 q 495 652 495 690 l 495 623 l 49 623 l 50 687 q 65 783 50 744 q 117 846 81 822 q 212 880 153 869 q 355 890 270 890 l 1390 890 q 1533 877 1475 887 q 1627 842 1591 867 q 1679 779 1664 818 q 1695 685 1695 741 l 1695 417 l 1101 417 l 1101 236 q 1165 168 1101 168 q 1214 184 1198 168 q 1229 236 1229 200 l 1229 350 l 1695 350 l 1695 200 q 1679 105 1695 143 q 1627 42 1664 66 q 1533 9 1591 18 q 1390 1 1475 1 l 359 0 z "},"ø":{"ha":1127,"x_min":34,"x_max":1094,"o":"m 276 0 q 195 9 230 3 q 101 43 137 19 q 50 106 65 67 q 34 201 34 144 l 34 688 q 50 783 34 744 q 101 846 66 822 q 195 880 137 869 q 338 890 253 890 l 765 890 l 833 1014 l 900 1014 l 832 890 q 931 880 888 888 q 1026 845 989 869 q 1077 782 1062 821 q 1094 688 1093 743 l 1094 201 q 1077 106 1093 144 q 1025 44 1061 68 q 931 9 989 19 q 788 -1 873 -1 l 342 -1 l 284 -107 l 217 -107 l 276 0 m 627 517 l 499 284 l 499 237 q 563 170 499 170 q 612 185 596 170 q 627 237 627 201 l 627 517 m 499 406 l 627 638 l 627 650 q 563 718 627 718 q 514 702 530 718 q 499 650 499 686 l 499 406 z "},"¿":{"ha":1086,"x_min":21,"x_max":1050,"o":"m 308 1128 l 759 1128 l 759 849 l 308 849 l 308 1128 m 618 460 q 548 424 618 460 q 478 340 478 388 q 491 273 478 292 q 548 253 504 253 q 592 272 578 253 q 606 335 606 291 l 606 417 l 1049 417 l 1050 269 q 986 59 1049 120 q 900 14 956 28 q 764 -1 844 -1 l 294 -1 q 167 14 219 -1 q 83 60 115 28 q 36 144 51 92 q 21 269 21 195 q 165 564 21 507 q 308 696 308 621 l 308 788 l 759 788 l 759 651 q 618 460 759 532 z "},"¡":{"ha":479,"x_min":34,"x_max":445,"o":"m 445 -1 l 34 -1 l 34 789 l 445 789 l 445 -1 m 445 849 l 34 849 l 34 1128 l 445 1128 l 445 849 z "},"«":{"ha":907,"x_min":34,"x_max":873,"o":"m 495 27 l 34 423 l 495 869 l 495 640 l 278 428 l 495 255 l 495 27 m 873 27 l 411 423 l 873 869 l 873 640 l 655 428 l 873 255 l 873 27 z "},"»":{"ha":907,"x_min":34,"x_max":873,"o":"m 412 255 l 629 428 l 412 640 l 411 869 l 873 423 l 411 27 l 412 255 m 34 255 l 251 428 l 34 640 l 34 869 l 496 423 l 34 27 l 34 255 z "},"…":{"ha":1106,"x_min":34,"x_max":1072,"o":"m 320 -1 l 34 -1 l 34 239 l 320 239 l 320 -1 m 696 0 l 410 0 l 410 240 l 696 240 l 696 0 m 1072 0 l 786 0 l 786 240 l 1072 240 l 1072 0 z "}," ":{"ha":68,"x_min":0,"x_max":0,"o":""},"À":{"ha":1179,"x_min":34,"x_max":1145,"o":"m 34 0 l 249 1128 l 930 1128 l 1145 0 l 685 0 l 657 244 l 520 244 l 493 0 l 34 0 m 565 1493 l 712 1221 l 493 1221 l 346 1493 l 565 1493 m 549 493 l 630 493 l 589 877 l 549 493 z "},"Ã":{"ha":1179,"x_min":34,"x_max":1145,"o":"m 549 493 l 630 493 l 589 877 l 549 493 m 34 0 l 249 1128 l 930 1128 l 1145 0 l 685 0 l 657 244 l 520 244 l 493 0 l 34 0 m 905 1350 q 683 1217 804 1217 q 530 1261 625 1217 q 463 1280 488 1280 q 343 1213 412 1280 l 248 1340 q 461 1454 352 1454 q 603 1416 523 1454 q 680 1391 655 1391 q 810 1476 736 1391 l 905 1350 z "},"Õ":{"ha":1126,"x_min":34,"x_max":1092,"o":"m 504 799 l 504 329 q 518 267 504 286 q 563 249 531 249 q 608 267 594 249 q 622 329 622 286 l 622 799 q 562 881 622 881 q 517 861 531 881 q 504 799 504 842 m 316 -8 q 185 6 238 -8 q 97 53 131 21 q 49 137 64 86 q 34 262 34 189 l 34 895 q 101 1078 34 1021 q 316 1135 169 1135 l 798 1135 q 933 1122 877 1135 q 1024 1079 988 1108 q 1076 1004 1059 1050 q 1092 895 1092 958 l 1092 262 q 1027 52 1092 113 q 938 6 996 21 q 798 -8 881 -8 l 316 -8 m 902 1350 q 679 1217 800 1217 q 527 1261 621 1217 q 459 1280 485 1280 q 339 1213 409 1280 l 244 1340 q 457 1454 349 1454 q 600 1416 520 1454 q 676 1391 652 1391 q 806 1476 733 1391 l 902 1350 z "},"Œ":{"ha":1576,"x_min":34,"x_max":1542,"o":"m 504 807 l 504 338 q 517 276 504 295 q 562 257 531 257 q 607 276 593 257 q 622 338 621 295 l 621 807 q 562 889 621 889 q 517 870 531 889 q 504 807 504 850 m 315 0 q 184 15 238 0 q 97 62 131 29 q 49 146 64 95 q 34 271 34 197 l 34 888 q 101 1071 34 1014 q 315 1128 168 1128 l 1542 1128 l 1542 879 l 1096 879 l 1096 756 l 1500 756 l 1500 499 l 1096 499 l 1096 266 l 1542 266 l 1542 0 l 315 0 z "},"œ":{"ha":1728,"x_min":34,"x_max":1694,"o":"m 499 654 l 499 242 q 563 174 499 174 q 612 190 596 174 q 627 242 627 206 l 627 654 q 563 723 627 723 q 514 706 530 723 q 499 654 499 690 m 1095 652 l 1095 581 l 1233 581 l 1233 652 q 1163 727 1233 727 q 1111 709 1127 727 q 1095 652 1095 692 m 338 1 q 195 13 253 3 q 101 47 137 24 q 50 110 65 71 q 34 206 34 149 l 34 692 q 50 788 34 749 q 101 850 66 827 q 195 884 137 874 q 338 895 253 895 l 1385 895 q 1531 881 1473 892 q 1626 847 1590 871 q 1678 784 1662 823 q 1694 689 1694 745 l 1694 422 l 1100 422 l 1099 240 q 1163 172 1100 172 q 1212 188 1197 172 q 1227 240 1227 204 l 1227 354 l 1694 354 l 1694 204 q 1678 109 1694 147 q 1626 47 1662 71 q 1531 12 1590 22 q 1389 1 1473 1 l 338 1 z "},"–":{"ha":813,"x_min":34,"x_max":779,"o":"m 34 693 l 779 693 l 779 436 l 34 436 l 34 693 z "},"—":{"ha":1076,"x_min":34,"x_max":1042,"o":"m 34 693 l 1042 693 l 1042 436 l 34 436 l 34 693 z "},"“":{"ha":814,"x_min":34,"x_max":781,"o":"m 588 1002 l 781 1002 l 781 723 l 448 723 l 448 1002 l 524 1127 l 661 1127 l 588 1002 m 175 1002 l 367 1002 l 367 723 l 34 723 l 34 1002 l 110 1127 l 247 1127 l 175 1002 z "},"”":{"ha":814,"x_min":34,"x_max":781,"o":"m 226 848 l 34 848 l 34 1127 l 367 1127 l 367 848 l 291 723 l 154 723 l 226 848 m 640 848 l 448 848 l 448 1127 l 781 1127 l 781 848 l 704 723 l 568 723 l 640 848 z "},"‘":{"ha":401,"x_min":34,"x_max":367,"o":"m 175 1002 l 367 1002 l 367 723 l 34 723 l 34 1002 l 110 1127 l 247 1127 l 175 1002 z "},"’":{"ha":401,"x_min":34,"x_max":367,"o":"m 226 848 l 34 848 l 34 1127 l 367 1127 l 367 848 l 291 723 l 154 723 l 226 848 z "},"÷":{"ha":701,"x_min":34,"x_max":667,"o":"m 34 693 l 667 693 l 667 436 l 34 436 l 34 693 m 350 410 q 440 372 402 410 q 477 283 477 335 q 439 194 477 232 q 350 157 402 157 q 261 194 297 157 q 224 283 224 231 q 261 372 224 335 q 350 410 298 410 m 350 972 q 440 935 402 972 q 477 846 477 898 q 439 757 477 794 q 350 720 402 720 q 261 757 297 720 q 224 846 224 793 q 261 935 224 898 q 350 972 298 972 z "},"ÿ":{"ha":1122,"x_min":34,"x_max":1088,"o":"m 628 890 l 1088 890 l 1088 -25 q 1072 -147 1088 -108 q 1020 -210 1056 -186 q 926 -245 984 -235 q 784 -256 869 -256 l 85 -256 l 85 -86 l 517 -86 q 605 -75 581 -86 q 631 -4 629 -64 q 459 -5 527 -5 l 355 -5 q 114 61 195 -5 q 34 254 34 128 l 34 890 l 498 890 l 498 270 q 513 217 498 233 q 565 201 528 201 q 613 217 598 201 q 629 270 628 233 l 628 890 m 473 984 l 187 984 l 187 1224 l 473 1224 l 473 984 m 935 984 l 648 984 l 648 1224 l 935 1224 l 935 984 z "},"Ÿ":{"ha":1222,"x_min":34,"x_max":1188,"o":"m 378 1 l 378 427 l 34 1128 l 487 1128 l 611 858 l 735 1128 l 1188 1128 l 843 427 l 843 1 l 378 1 m 524 1223 l 237 1223 l 237 1463 l 524 1463 l 524 1223 m 985 1223 l 699 1223 l 699 1463 l 985 1463 l 985 1223 z "},"∕":{"ha":1205,"x_min":34,"x_max":1171,"o":"m 1171 1270 l 171 -60 l 34 -60 l 1034 1270 l 1171 1270 z "},"€":{"ha":935,"x_min":34,"x_max":901,"o":"m 550 328 l 550 293 q 563 237 550 254 q 600 221 574 221 l 901 221 l 901 -1 l 382 -1 q 188 53 245 -1 q 133 239 133 105 l 133 328 l 34 328 l 34 503 l 133 503 l 133 622 l 34 622 l 34 797 l 133 797 l 133 911 q 192 1074 133 1022 q 382 1126 252 1126 l 901 1126 l 901 897 l 601 897 q 561 880 572 897 q 550 823 550 863 l 550 797 l 670 797 l 670 622 l 550 622 l 550 503 l 670 503 l 670 328 l 550 328 z "},"‹":{"ha":529,"x_min":34,"x_max":495,"o":"m 495 27 l 34 423 l 495 869 l 495 640 l 278 428 l 495 255 l 495 27 z "},"›":{"ha":529,"x_min":34,"x_max":496,"o":"m 34 255 l 251 428 l 34 640 l 34 869 l 496 423 l 34 27 l 34 255 z "},"ﬁ":{"ha":1315,"x_min":34,"x_max":1281,"o":"m 152 925 q 168 1021 152 982 q 219 1083 184 1060 q 313 1117 255 1107 q 457 1128 371 1128 l 1281 1128 l 1281 890 l 723 890 q 635 879 659 890 q 612 842 612 868 l 612 775 l 735 775 l 735 606 l 612 606 l 612 0 l 152 0 l 152 606 l 34 606 l 34 775 l 152 775 l 152 925 m 821 0 l 821 783 l 1280 783 l 1280 0 l 821 0 z "},"ﬂ":{"ha":1314,"x_min":34,"x_max":1280,"o":"m 821 890 l 723 890 q 635 879 659 890 q 612 842 612 868 l 612 775 l 735 775 l 735 606 l 612 606 l 612 0 l 152 0 l 152 606 l 34 606 l 34 775 l 152 775 l 152 925 q 168 1021 152 982 q 219 1083 184 1060 q 313 1117 255 1107 q 457 1128 371 1128 l 1280 1128 l 1280 0 l 821 0 l 821 890 z "},"‡":{"ha":676,"x_min":34,"x_max":643,"o":"m 252 832 l 34 832 l 34 1004 l 252 1004 l 252 1222 l 424 1222 l 425 1004 l 643 1004 l 642 832 l 424 832 l 424 337 l 642 337 l 642 165 l 424 165 l 425 -53 l 252 -53 l 252 165 l 34 165 l 34 337 l 252 337 l 252 832 z "},"∙":{"ha":401,"x_min":34,"x_max":367,"o":"m 367 697 l 34 697 l 34 418 l 367 418 l 367 697 z "},"‚":{"ha":401,"x_min":34,"x_max":367,"o":"m 226 -1 l 34 -1 l 34 278 l 367 278 l 367 -1 l 291 -126 l 154 -126 l 226 -1 z "},"„":{"ha":814,"x_min":34,"x_max":781,"o":"m 226 -1 l 34 -1 l 34 278 l 367 278 l 367 -1 l 291 -126 l 154 -126 l 226 -1 m 640 -1 l 448 -1 l 448 278 l 781 278 l 781 -1 l 704 -126 l 568 -126 l 640 -1 z "},"‰":{"ha":1638,"x_min":34,"x_max":1605,"o":"m 1171 1270 l 171 -60 l 34 -60 l 1034 1270 l 1171 1270 m 213 699 q 127 723 152 699 q 102 806 102 746 l 102 1055 q 129 1128 102 1105 q 213 1151 155 1151 l 404 1151 q 458 1146 436 1151 q 494 1128 480 1140 q 514 1099 508 1117 q 520 1055 520 1080 l 520 806 q 494 722 520 746 q 404 699 469 699 l 213 699 m 288 1016 l 288 829 q 293 805 288 812 q 311 798 299 798 q 329 805 323 798 q 335 829 335 812 l 335 1016 q 311 1049 335 1049 q 293 1041 299 1049 q 288 1016 288 1034 m 844 90 q 758 114 783 90 q 733 197 733 137 l 733 446 q 759 519 733 496 q 844 542 786 542 l 1035 542 q 1088 537 1066 542 q 1124 519 1111 531 q 1145 490 1138 508 q 1151 446 1151 471 l 1151 197 q 1125 113 1151 137 q 1035 90 1100 90 l 844 90 m 919 407 l 919 220 q 924 196 919 203 q 942 189 929 189 q 960 196 954 189 q 965 220 965 203 l 965 407 q 942 440 965 440 q 924 432 929 440 q 919 407 919 425 m 1297 90 q 1211 114 1236 90 q 1186 197 1186 137 l 1186 446 q 1213 519 1186 496 q 1297 542 1239 542 l 1488 542 q 1542 537 1520 542 q 1578 519 1564 531 q 1598 490 1592 508 q 1605 446 1605 471 l 1605 197 q 1578 113 1605 137 q 1488 90 1553 90 l 1297 90 m 1372 407 l 1372 220 q 1377 196 1372 203 q 1395 189 1383 189 q 1413 196 1408 189 q 1419 220 1419 203 l 1419 407 q 1395 440 1419 440 q 1377 432 1383 440 q 1372 407 1372 425 z "},"Â":{"ha":1179,"x_min":34,"x_max":1145,"o":"m 549 493 l 630 493 l 590 877 l 549 493 m 34 0 l 249 1128 l 930 1128 l 1145 0 l 685 0 l 657 244 l 520 244 l 493 0 l 34 0 m 654 1223 l 590 1326 l 525 1223 l 326 1223 l 502 1497 l 677 1497 l 677 1497 l 853 1223 l 654 1223 z "},"Ê":{"ha":969,"x_min":34,"x_max":935,"o":"m 34 0 l 34 1128 l 935 1128 l 935 871 l 489 871 l 489 693 l 893 693 l 893 436 l 489 436 l 489 257 l 935 257 l 935 0 l 34 0 m 549 1223 l 485 1326 l 420 1223 l 221 1223 l 397 1497 l 572 1497 l 572 1497 l 748 1223 l 549 1223 z "},"Á":{"ha":1179,"x_min":34,"x_max":1145,"o":"m 34 0 l 249 1128 l 930 1128 l 1145 0 l 685 0 l 657 244 l 520 244 l 493 0 l 34 0 m 833 1493 l 687 1221 l 468 1221 l 614 1493 l 833 1493 m 549 493 l 630 493 l 589 877 l 549 493 z "},"Ë":{"ha":969,"x_min":34,"x_max":935,"o":"m 34 0 l 34 1128 l 935 1128 l 935 871 l 489 871 l 489 693 l 893 693 l 893 436 l 489 436 l 489 257 l 935 257 l 935 0 l 34 0 m 406 1223 l 119 1223 l 119 1462 l 406 1462 l 406 1223 m 867 1223 l 581 1223 l 581 1462 l 867 1462 l 867 1223 z "},"È":{"ha":969,"x_min":34,"x_max":935,"o":"m 34 0 l 34 1128 l 935 1128 l 935 871 l 489 871 l 489 693 l 893 693 l 893 436 l 489 436 l 489 257 l 935 257 l 935 0 l 34 0 m 460 1493 l 606 1221 l 387 1221 l 241 1493 l 460 1493 z "},"Í":{"ha":541,"x_min":34,"x_max":507,"o":"m 34 0 l 34 1128 l 492 1128 l 492 0 l 34 0 m 507 1493 l 360 1221 l 141 1221 l 288 1493 l 507 1493 z "},"Î":{"ha":526,"x_min":8,"x_max":535,"o":"m 34 0 l 34 1128 l 492 1128 l 492 0 l 34 0 m 336 1223 l 272 1326 l 207 1223 l 8 1223 l 184 1497 l 359 1497 l 359 1497 l 535 1223 l 336 1223 z "},"Ï":{"ha":526,"x_min":-102,"x_max":645,"o":"m 34 0 l 34 1128 l 492 1128 l 492 0 l 34 0 m 184 1223 l -102 1223 l -102 1462 l 184 1462 l 184 1223 m 645 1223 l 359 1223 l 359 1462 l 645 1462 l 645 1223 z "},"Ì":{"ha":541,"x_min":34,"x_max":507,"o":"m 48 0 l 48 1128 l 507 1128 l 507 0 l 48 0 m 253 1493 l 399 1221 l 180 1221 l 34 1493 l 253 1493 z "},"Ó":{"ha":1126,"x_min":34,"x_max":1092,"o":"m 504 799 l 504 329 q 518 267 504 286 q 563 249 531 249 q 608 267 594 249 q 622 329 622 286 l 622 799 q 562 881 622 881 q 517 861 531 881 q 504 799 504 842 m 316 -8 q 185 6 238 -8 q 97 53 131 21 q 49 137 64 86 q 34 262 34 189 l 34 895 q 101 1078 34 1021 q 316 1135 169 1135 l 798 1135 q 933 1122 877 1135 q 1024 1079 988 1108 q 1076 1004 1059 1050 q 1092 895 1092 958 l 1092 262 q 1027 52 1092 113 q 938 6 996 21 q 798 -8 881 -8 l 316 -8 m 807 1493 l 660 1221 l 441 1221 l 588 1493 l 807 1493 z "},"Ô":{"ha":1126,"x_min":34,"x_max":1092,"o":"m 504 799 l 504 329 q 518 267 504 286 q 563 249 531 249 q 608 267 594 249 q 622 329 622 286 l 622 799 q 562 881 622 881 q 517 861 531 881 q 504 799 504 842 m 316 -8 q 185 6 238 -8 q 97 53 131 21 q 49 137 64 86 q 34 262 34 189 l 34 895 q 101 1078 34 1021 q 316 1135 169 1135 l 798 1135 q 933 1122 877 1135 q 1024 1079 988 1108 q 1076 1004 1059 1050 q 1092 895 1092 958 l 1092 262 q 1027 52 1092 113 q 938 6 996 21 q 798 -8 881 -8 l 316 -8 m 628 1221 l 563 1325 l 498 1221 l 299 1221 l 475 1495 l 650 1496 l 650 1495 l 826 1221 l 628 1221 z "},"Ò":{"ha":1126,"x_min":34,"x_max":1092,"o":"m 504 799 l 504 329 q 518 267 504 286 q 563 249 531 249 q 608 267 594 249 q 622 329 622 286 l 622 799 q 562 881 622 881 q 517 861 531 881 q 504 799 504 842 m 316 -8 q 185 6 238 -8 q 97 53 131 21 q 49 137 64 86 q 34 262 34 189 l 34 895 q 101 1078 34 1021 q 316 1135 169 1135 l 798 1135 q 933 1122 877 1135 q 1024 1079 988 1108 q 1076 1004 1059 1050 q 1092 895 1092 958 l 1092 262 q 1027 52 1092 113 q 938 6 996 21 q 798 -8 881 -8 l 316 -8 m 538 1493 l 685 1221 l 466 1221 l 319 1493 l 538 1493 z "},"Ú":{"ha":1126,"x_min":34,"x_max":1093,"o":"m 622 1135 l 1093 1135 l 1092 895 l 1092 262 q 1027 52 1092 113 q 938 6 996 21 q 798 -8 880 -8 l 315 -8 q 184 6 238 -8 q 97 53 131 21 q 49 137 64 86 q 34 262 34 189 l 34 1135 l 315 1135 l 504 1135 l 504 329 q 517 267 504 286 q 562 249 531 249 q 607 267 593 249 q 622 329 622 286 l 622 1135 m 793 1493 l 647 1221 l 428 1221 l 574 1493 l 793 1493 z "},"Û":{"ha":1126,"x_min":34,"x_max":1093,"o":"m 622 1135 l 1093 1135 l 1092 895 l 1092 262 q 1027 52 1092 113 q 938 6 996 21 q 798 -8 880 -8 l 315 -8 q 184 6 238 -8 q 97 53 131 21 q 49 137 64 86 q 34 262 34 189 l 34 1135 l 315 1135 l 504 1135 l 504 329 q 517 267 504 286 q 562 249 531 249 q 607 267 593 249 q 622 329 622 286 l 622 1135 m 628 1221 l 563 1325 l 498 1221 l 300 1221 l 476 1495 l 651 1496 l 651 1495 l 827 1221 l 628 1221 z "},"Ù":{"ha":1126,"x_min":34,"x_max":1093,"o":"m 622 1135 l 1093 1135 l 1092 895 l 1092 262 q 1027 52 1092 113 q 938 6 996 21 q 798 -8 880 -8 l 315 -8 q 184 6 238 -8 q 97 53 131 21 q 49 137 64 86 q 34 262 34 189 l 34 1135 l 315 1135 l 504 1135 l 504 329 q 517 267 504 286 q 562 249 531 249 q 607 267 593 249 q 622 329 622 286 l 622 1135 m 525 1493 l 671 1221 l 452 1221 l 306 1493 l 525 1493 z "},"ı":{"ha":526,"x_min":34,"x_max":492,"o":"m 34 0 l 34 890 l 492 890 l 492 0 l 34 0 z "},"ˆ":{"ha":595,"x_min":34,"x_max":561,"o":"m 362 1222 l 297 1326 l 233 1222 l 34 1222 l 210 1496 l 385 1497 l 385 1496 l 561 1222 l 362 1222 z "},"˜":{"ha":725,"x_min":34,"x_max":691,"o":"m 691 1340 q 469 1207 590 1207 q 316 1252 411 1207 q 250 1270 274 1270 q 130 1203 199 1270 l 34 1331 q 248 1444 138 1444 q 390 1407 310 1444 q 467 1381 441 1381 q 596 1466 523 1381 l 691 1340 z "},"ˉ":{"ha":616,"x_min":34,"x_max":582,"o":"m 582 1400 l 582 1228 l 34 1228 l 34 1400 l 582 1400 z "},"˘":{"ha":552,"x_min":34,"x_max":518,"o":"m 517 1466 q 518 1464 517 1463 q 499 1370 517 1415 q 447 1293 480 1327 q 370 1241 413 1260 q 276 1222 325 1222 q 181 1241 227 1222 q 105 1293 138 1260 q 53 1370 71 1327 q 34 1464 34 1415 q 34 1466 34 1463 l 204 1466 q 242 1404 209 1419 q 309 1404 276 1389 q 347 1466 342 1419 l 517 1466 z "},"˙":{"ha":354,"x_min":34,"x_max":320,"o":"m 320 1462 l 34 1462 l 34 1223 l 320 1223 l 320 1462 z "},"˚":{"ha":454,"x_min":34,"x_max":420,"o":"m 226 1607 q 363 1550 307 1607 q 420 1415 420 1494 q 363 1278 420 1336 q 227 1222 307 1222 q 90 1279 146 1222 q 34 1415 34 1335 q 90 1550 34 1494 q 226 1607 147 1607 m 227 1479 q 181 1460 200 1479 q 162 1415 162 1441 q 181 1369 162 1388 q 227 1350 200 1350 q 272 1369 253 1350 q 292 1415 292 1388 q 273 1460 292 1441 q 227 1479 254 1479 z "},"¸":{"ha":422,"x_min":34,"x_max":389,"o":"m 258 -74 q 335 -101 305 -79 q 380 -173 374 -131 q 341 -261 389 -223 q 34 -312 239 -341 l 52 -242 l 87 -242 q 183 -228 138 -242 q 220 -206 212 -219 q 226 -180 229 -194 q 205 -150 223 -163 q 149 -138 188 -138 q 95 -143 130 -138 l 130 34 l 277 34 l 258 -74 z "},"˝":{"ha":666,"x_min":34,"x_max":632,"o":"m 632 1520 l 540 1222 l 328 1222 l 420 1520 l 632 1520 m 338 1520 l 246 1222 l 34 1222 l 126 1520 l 338 1520 z "},"˛":{"ha":818,"x_min":34,"x_max":784,"o":"m 784 -1 q 429 -82 527 1 q 345 -216 331 -164 q 414 -278 350 -264 q 516 -278 468 -290 l 515 -387 q 347 -438 454 -416 q 112 -434 175 -460 q 45 -358 57 -412 q 64 -240 34 -307 q 160 -106 95 -172 q 410 64 220 -46 l 407 67 l 782 7 l 784 -1 z "},"ˇ":{"ha":595,"x_min":34,"x_max":561,"o":"m 561 1497 l 385 1223 l 385 1222 l 210 1223 l 34 1497 l 233 1497 l 297 1393 l 362 1497 l 561 1497 z "},"Ł":{"ha":813,"x_min":-47,"x_max":779,"o":"m 499 551 l 499 257 l 779 257 l 779 0 l 44 0 l 44 248 l -47 188 l -47 362 l 44 423 l 44 1128 l 499 1128 l 499 726 l 691 853 l 691 679 l 499 551 z "},"ł":{"ha":704,"x_min":34,"x_max":670,"o":"m 581 629 l 581 0 l 123 0 l 123 324 l 34 265 l 34 440 l 123 499 l 123 1128 l 581 1128 l 581 804 l 670 863 l 670 688 l 581 629 z "},"Š":{"ha":1134,"x_min":34,"x_max":1100,"o":"m 326 0 q 107 52 181 0 q 37 227 34 105 l 37 424 l 513 424 l 513 348 q 571 270 513 270 q 616 289 602 270 q 630 354 630 309 q 627 397 630 380 q 616 426 625 413 q 592 447 608 438 q 550 466 576 456 l 227 586 q 76 674 114 627 q 37 806 37 724 l 37 923 q 110 1076 37 1024 q 329 1127 184 1127 l 808 1127 q 1027 1076 954 1127 q 1100 923 1100 1024 l 1100 794 l 627 794 l 627 807 q 566 882 627 882 q 526 867 541 882 q 510 828 510 852 q 513 807 510 815 q 524 790 515 798 q 550 773 533 782 q 594 754 566 764 l 970 608 q 1030 575 1006 594 q 1071 529 1055 556 q 1094 465 1087 502 q 1100 376 1100 427 l 1100 255 q 1028 56 1098 112 q 806 0 958 0 l 326 0 m 832 1497 l 656 1223 l 656 1222 l 481 1223 l 305 1497 l 504 1497 l 568 1393 l 633 1497 l 832 1497 z "},"š":{"ha":1127,"x_min":34,"x_max":1094,"o":"m 1094 200 q 1077 105 1093 143 q 1025 42 1061 66 q 931 8 989 18 q 788 -3 872 -3 l 338 -3 q 195 8 253 -3 q 101 42 136 18 q 50 104 65 65 q 34 200 34 143 l 34 309 l 499 309 l 499 236 q 563 168 499 168 q 612 184 596 168 q 627 236 627 200 l 627 259 q 520 347 627 319 l 253 412 q 85 483 128 444 q 42 602 42 522 l 42 685 q 58 781 42 742 q 110 843 74 820 q 204 877 146 867 q 348 887 263 887 l 788 887 q 931 877 872 887 q 1025 842 989 867 q 1077 779 1061 818 q 1093 685 1093 741 l 1094 625 l 632 625 l 632 648 q 568 715 632 715 q 523 702 541 715 q 505 666 505 688 q 509 641 505 652 q 526 620 513 630 q 564 601 539 610 q 631 583 589 592 l 831 532 q 1039 445 986 492 q 1094 307 1094 399 l 1094 200 m 842 1254 l 666 980 l 666 980 l 491 980 l 315 1254 l 514 1254 l 579 1151 l 644 1254 l 842 1254 z "},"Ž":{"ha":960,"x_min":34,"x_max":926,"o":"m 926 1128 l 926 892 l 586 258 l 926 258 l 926 1 l 34 1 l 34 242 l 373 871 l 64 871 l 64 1128 l 926 1128 m 744 1497 l 568 1223 l 568 1222 l 393 1223 l 217 1497 l 415 1497 l 480 1393 l 545 1497 l 744 1497 z "},"ž":{"ha":926,"x_min":34,"x_max":892,"o":"m 34 0 l 34 162 l 367 704 l 66 704 l 66 890 l 870 890 l 870 726 l 537 182 l 892 182 l 892 0 l 34 0 m 727 1254 l 551 980 l 551 980 l 376 980 l 200 1254 l 398 1254 l 463 1151 l 528 1254 l 727 1254 z "},"¦":{"ha":243,"x_min":34,"x_max":209,"o":"m 209 360 l 209 -260 l 34 -260 l 34 360 l 209 360 m 209 1400 l 209 780 l 34 780 l 34 1400 l 209 1400 z "},"Ð":{"ha":1191,"x_min":34,"x_max":1158,"o":"m 117 651 l 118 1128 l 867 1128 q 1000 1114 945 1128 q 1090 1071 1056 1100 q 1142 995 1125 1042 q 1157 885 1158 949 l 1157 272 q 1094 60 1157 121 q 1005 15 1063 29 q 866 0 948 0 l 117 0 l 117 476 l 34 476 l 34 651 l 117 651 m 575 651 l 659 651 l 659 476 l 575 476 l 575 258 l 626 258 q 678 275 664 258 q 692 338 692 292 l 692 790 q 678 853 692 836 q 626 870 664 870 l 575 870 l 575 651 z "},"ð":{"ha":1125,"x_min":34,"x_max":1092,"o":"m 498 650 q 513 702 498 686 q 562 718 529 718 q 626 650 626 718 l 626 238 q 610 186 626 202 q 562 171 595 171 q 498 238 498 171 l 498 650 m 337 890 q 195 880 253 890 q 101 846 136 869 q 50 783 66 822 q 34 688 34 745 l 34 202 q 50 106 34 145 q 101 44 66 68 q 195 11 136 21 q 337 0 253 0 l 787 0 q 929 11 871 0 q 1024 45 987 21 q 1076 107 1060 69 q 1092 202 1092 145 l 1092 638 q 963 944 1092 798 q 486 1164 834 1090 l 510 1232 l 378 1270 l 348 1182 q 264 1185 304 1185 l 209 1065 q 303 1050 248 1062 l 273 962 l 405 924 l 433 1008 q 594 890 535 962 l 337 890 z "},"Ý":{"ha":1222,"x_min":34,"x_max":1188,"o":"m 378 1 l 378 427 l 34 1128 l 487 1128 l 611 858 l 735 1128 l 1188 1128 l 843 427 l 843 1 l 378 1 m 855 1493 l 708 1221 l 489 1221 l 636 1493 l 855 1493 z "},"ý":{"ha":1122,"x_min":34,"x_max":1088,"o":"m 628 890 l 1088 890 l 1088 -25 q 1072 -147 1088 -108 q 1020 -210 1056 -186 q 926 -245 984 -235 q 784 -256 869 -256 l 85 -256 l 85 -86 l 517 -86 q 605 -75 581 -86 q 631 -4 629 -64 q 459 -5 527 -5 l 355 -5 q 114 61 195 -5 q 34 254 34 128 l 34 890 l 498 890 l 498 270 q 513 217 498 233 q 565 201 528 201 q 613 217 598 201 q 629 270 628 233 l 628 890 m 805 1252 l 659 980 l 439 980 l 586 1252 l 805 1252 z "},"Þ":{"ha":1113,"x_min":34,"x_max":1079,"o":"m 556 724 l 494 724 l 494 408 l 554 408 q 604 426 589 408 q 619 488 619 444 l 619 643 q 604 706 619 687 q 556 724 590 724 m 34 0 l 34 1128 l 496 1128 l 495 979 l 787 979 q 921 965 866 979 q 1012 922 977 951 q 1063 846 1047 892 q 1079 735 1079 800 l 1079 425 q 1014 212 1079 272 q 787 152 951 152 l 494 152 l 494 0 l 34 0 z "},"þ":{"ha":1127,"x_min":34,"x_max":1094,"o":"m 563 722 q 499 656 499 722 l 499 253 q 563 186 499 186 q 612 202 596 186 q 627 253 627 217 l 627 656 q 563 722 627 722 m 490 890 l 788 890 q 931 880 873 890 q 1026 846 989 870 q 1078 785 1062 823 q 1094 692 1094 747 l 1094 195 q 1078 103 1094 141 q 1026 42 1062 65 q 931 8 989 18 q 788 -2 873 -2 l 494 -2 l 494 -256 l 34 -256 l 34 1128 l 490 1128 l 490 890 z "},"−":{"ha":701,"x_min":34,"x_max":667,"o":"m 34 693 l 667 693 l 667 436 l 34 436 l 34 693 z "},"×":{"ha":697,"x_min":34,"x_max":663,"o":"m 349 383 l 216 250 l 34 432 l 167 565 l 34 697 l 216 879 l 349 746 l 481 879 l 663 697 l 531 565 l 663 432 l 481 250 l 349 383 z "},"¹":{"ha":289,"x_min":34,"x_max":255,"o":"m 72 660 l 72 949 l 34 949 l 34 1112 l 255 1112 l 255 660 l 72 660 z "},"²":{"ha":480,"x_min":34,"x_max":447,"o":"m 34 661 l 34 756 l 247 941 q 259 957 254 948 q 263 975 263 966 q 258 998 263 991 q 241 1006 253 1006 q 224 998 231 1006 q 218 979 218 991 l 218 952 l 34 952 l 34 1027 q 63 1090 34 1068 q 147 1112 92 1112 l 334 1112 q 418 1090 390 1112 q 447 1027 447 1068 l 447 951 q 440 903 447 922 q 417 871 433 885 l 290 762 l 447 762 l 447 661 l 34 661 z "},"³":{"ha":477,"x_min":34,"x_max":444,"o":"m 443 758 q 416 684 444 707 q 331 661 389 661 l 146 661 q 62 683 90 661 q 34 746 34 705 l 34 825 l 218 825 l 218 796 q 223 772 218 780 q 240 764 228 764 q 257 771 251 764 q 262 796 262 779 l 262 823 q 232 855 262 855 l 192 855 l 192 957 l 228 957 q 262 988 262 957 q 256 1009 262 1001 q 239 1017 249 1017 q 222 1009 229 1017 q 216 989 216 1001 l 216 981 l 34 981 l 34 1026 q 62 1089 34 1067 q 146 1112 91 1112 l 331 1112 q 415 1089 386 1112 q 444 1026 443 1067 l 444 996 q 426 940 444 961 q 370 905 409 918 q 404 892 391 900 q 427 872 418 884 q 439 843 436 860 q 444 801 443 825 l 443 758 z "},"½":{"ha":1205,"x_min":34,"x_max":1171,"o":"m 1171 1270 l 171 -60 l 34 -60 l 1034 1270 l 1171 1270 m 713 87 l 713 183 l 926 368 q 937 384 933 375 q 942 402 942 393 q 937 425 942 418 q 920 433 932 433 q 903 425 909 433 q 897 406 897 418 l 897 379 l 713 379 l 713 454 q 742 517 713 495 q 826 538 770 538 l 1013 538 q 1097 517 1068 538 q 1125 454 1125 495 l 1125 378 q 1118 330 1125 349 q 1096 298 1112 312 l 969 189 l 1125 189 l 1125 87 l 713 87 m 267 685 l 267 973 l 229 973 l 229 1136 l 450 1136 l 450 685 l 267 685 z "},"¼":{"ha":1205,"x_min":34,"x_max":1171,"o":"m 1171 1270 l 171 -60 l 34 -60 l 1034 1270 l 1171 1270 m 267 685 l 267 973 l 229 973 l 229 1136 l 450 1136 l 450 685 l 267 685 m 791 280 l 846 280 l 846 402 l 791 280 m 846 90 l 846 178 l 633 178 l 633 269 l 757 535 l 1029 535 l 1029 280 l 1089 280 l 1089 178 l 1029 178 l 1029 90 l 846 90 z "},"¾":{"ha":1205,"x_min":34,"x_max":1171,"o":"m 1171 1270 l 171 -60 l 34 -60 l 1034 1270 l 1171 1270 m 799 280 l 853 280 l 853 402 l 799 280 m 853 90 l 853 178 l 640 178 l 640 269 l 764 535 l 1036 535 l 1036 280 l 1096 280 l 1096 178 l 1036 178 l 1036 90 l 853 90 m 519 777 q 492 703 519 727 q 407 680 465 680 l 221 680 q 138 702 166 680 q 110 766 110 724 l 110 844 l 293 844 l 293 815 q 298 791 293 799 q 315 783 303 783 q 332 791 327 783 q 337 815 337 798 l 337 842 q 307 874 337 874 l 267 874 l 267 977 l 304 977 q 337 1008 337 977 q 331 1028 337 1020 q 315 1036 325 1036 q 298 1028 304 1036 q 291 1008 291 1021 l 291 1000 l 110 1000 l 110 1045 q 138 1109 110 1087 q 221 1131 166 1131 l 407 1131 q 490 1109 462 1131 q 519 1045 519 1087 l 519 1016 q 502 959 519 981 q 446 924 485 937 q 480 911 466 919 q 503 891 494 903 q 515 862 511 880 q 519 821 519 844 l 519 777 z "},"Ğ":{"ha":1105,"x_min":34,"x_max":1071,"o":"m 606 407 l 544 407 l 543 659 l 1064 659 l 1065 209 q 865 0 1071 0 l 552 0 l 308 0 q 180 15 233 0 q 95 62 128 29 q 48 146 63 95 q 34 271 34 197 l 34 903 q 99 1086 34 1029 q 308 1143 165 1143 l 778 1143 q 909 1130 855 1143 q 998 1088 963 1117 q 1048 1013 1032 1059 q 1064 903 1064 967 l 1064 789 l 605 789 l 606 807 q 607 815 606 810 q 607 822 607 820 q 591 871 607 853 q 548 889 574 889 q 505 870 518 889 q 491 807 491 850 l 492 338 q 505 276 491 295 q 548 257 518 257 q 592 276 579 257 q 606 338 606 295 l 606 407 m 793 1466 q 794 1465 794 1464 q 775 1371 794 1415 q 723 1294 756 1327 q 646 1242 690 1260 q 552 1223 601 1223 q 458 1242 503 1223 q 381 1294 415 1260 q 330 1371 348 1327 q 311 1465 310 1415 q 310 1466 310 1464 l 480 1466 q 519 1404 485 1419 q 585 1404 552 1389 q 624 1466 619 1419 l 793 1466 z "},"ğ":{"ha":1122,"x_min":34,"x_max":1088,"o":"m 1088 -25 q 1072 -147 1088 -108 q 1020 -210 1056 -186 q 927 -245 985 -235 q 784 -256 869 -256 l 212 -256 l 213 -85 l 556 -85 q 630 0 638 -86 q 459 1 527 1 q 355 1 391 1 q 115 64 196 1 q 34 255 34 128 l 34 636 q 115 830 34 763 q 350 890 196 896 l 1088 890 l 1088 -25 m 628 621 q 613 674 628 657 q 564 690 597 690 q 498 621 498 690 l 498 270 q 513 218 498 234 q 565 202 529 202 q 613 218 598 202 q 628 270 628 234 l 628 621 m 814 1223 q 815 1221 814 1220 q 796 1127 814 1172 q 744 1050 777 1084 q 667 998 710 1017 q 573 979 622 979 q 478 998 524 979 q 402 1050 435 1017 q 350 1127 368 1084 q 331 1221 331 1172 q 331 1223 331 1220 l 501 1223 q 539 1161 506 1176 q 606 1161 573 1146 q 644 1223 640 1176 l 814 1223 z "},"İ":{"ha":526,"x_min":34,"x_max":492,"o":"m 34 0 l 34 1128 l 492 1128 l 492 0 l 34 0 m 406 1461 l 120 1461 l 120 1222 l 406 1222 l 406 1461 z "},"Ş":{"ha":1134,"x_min":34,"x_max":1100,"o":"m 494 0 l 326 0 q 107 52 181 0 q 37 227 34 105 l 37 424 l 513 424 l 513 348 q 571 270 513 270 q 616 289 602 270 q 630 354 630 309 q 627 397 630 380 q 616 426 625 413 q 592 447 608 438 q 550 466 576 456 l 227 586 q 76 674 114 627 q 37 806 37 724 l 37 923 q 110 1076 37 1024 q 329 1127 184 1127 l 808 1127 q 1027 1076 954 1127 q 1100 923 1100 1024 l 1100 794 l 627 794 l 627 807 q 566 882 627 882 q 526 867 541 882 q 510 828 510 852 q 513 807 510 815 q 524 790 515 798 q 550 773 533 782 q 594 754 566 764 l 970 608 q 1030 575 1006 594 q 1071 529 1055 556 q 1094 465 1087 502 q 1100 376 1100 427 l 1100 255 q 1028 56 1098 112 q 806 0 958 0 l 642 0 l 629 -74 q 706 -101 676 -79 q 751 -173 745 -131 q 712 -261 759 -223 q 405 -312 610 -341 l 423 -242 l 458 -242 q 554 -228 509 -242 q 591 -206 583 -219 q 597 -180 599 -194 q 576 -150 594 -163 q 520 -138 558 -138 q 466 -143 500 -138 l 494 0 z "},"ş":{"ha":1127,"x_min":34,"x_max":1094,"o":"m 493 -3 l 338 -3 q 195 8 253 -3 q 101 42 136 18 q 50 104 65 65 q 34 200 34 143 l 34 309 l 499 309 l 499 236 q 563 168 499 168 q 612 184 596 168 q 627 236 627 200 l 627 259 q 520 347 627 319 l 253 412 q 85 483 128 444 q 42 602 42 522 l 42 685 q 58 781 42 742 q 110 843 74 820 q 204 877 146 867 q 348 887 263 887 l 788 887 q 931 877 872 887 q 1025 842 989 867 q 1077 779 1061 818 q 1093 685 1093 741 l 1094 625 l 632 625 l 632 648 q 568 715 632 715 q 523 702 541 715 q 505 666 505 688 q 509 641 505 652 q 526 620 513 630 q 564 601 539 610 q 631 583 589 592 l 831 532 q 1039 445 986 492 q 1094 307 1094 399 l 1094 200 q 1077 105 1093 143 q 1025 42 1061 66 q 931 8 989 18 q 788 -3 872 -3 l 642 -3 l 629 -74 q 706 -101 676 -79 q 751 -173 745 -131 q 712 -261 759 -223 q 405 -312 610 -341 l 423 -242 l 458 -242 q 554 -228 509 -242 q 591 -206 583 -219 q 597 -180 599 -194 q 576 -150 594 -163 q 520 -138 558 -138 q 466 -143 500 -138 l 493 -3 z "},"Ć":{"ha":1097,"x_min":34,"x_max":1063,"o":"m 792 1496 l 645 1224 l 426 1224 l 573 1496 l 792 1496 m 606 475 l 606 338 q 548 256 606 256 q 504 275 517 256 q 491 338 491 294 l 491 792 q 504 855 491 836 q 548 874 517 874 q 592 856 578 874 q 606 792 606 837 l 606 710 l 1063 710 l 1063 859 q 1000 1068 1063 1007 q 913 1114 969 1099 q 777 1128 857 1128 l 308 1128 q 180 1114 233 1128 q 96 1067 128 1099 q 49 984 64 1035 q 34 859 34 932 l 34 243 q 99 58 34 117 q 308 0 165 0 l 777 0 q 908 14 854 0 q 997 57 963 28 q 1047 132 1031 86 q 1063 243 1063 178 l 1063 475 l 606 475 z "},"ć":{"ha":1127,"x_min":34,"x_max":1094,"o":"m 1094 200 q 1078 105 1094 143 q 1026 42 1062 66 q 931 8 989 18 q 788 -3 873 -3 l 338 -3 q 195 8 253 -3 q 101 42 137 18 q 50 104 66 65 q 34 200 34 143 l 34 685 q 101 843 34 798 q 195 877 135 865 q 290 885 224 882 q 460 887 356 887 l 788 887 q 931 877 873 887 q 1026 842 989 867 q 1078 779 1062 818 q 1094 685 1094 741 l 1094 549 l 627 549 l 627 648 q 563 715 627 715 q 514 700 530 715 q 499 648 499 684 l 499 236 q 563 168 499 168 q 612 184 596 168 q 627 236 627 200 l 627 378 l 1094 378 l 1094 200 m 808 1250 l 661 978 l 442 978 l 589 1250 l 808 1250 z "},"Č":{"ha":1097,"x_min":34,"x_max":1063,"o":"m 812 1497 l 636 1223 l 636 1222 l 461 1223 l 285 1497 l 484 1497 l 549 1393 l 613 1497 l 812 1497 m 606 475 l 606 338 q 548 256 606 256 q 504 275 517 256 q 491 338 491 294 l 491 792 q 504 855 491 836 q 548 874 517 874 q 592 856 578 874 q 606 792 606 837 l 606 710 l 1063 710 l 1063 859 q 1000 1068 1063 1007 q 913 1114 969 1099 q 777 1128 857 1128 l 308 1128 q 180 1114 233 1128 q 96 1067 128 1099 q 49 984 64 1035 q 34 859 34 932 l 34 243 q 99 58 34 117 q 308 0 165 0 l 777 0 q 908 14 854 0 q 997 57 963 28 q 1047 132 1031 86 q 1063 243 1063 178 l 1063 475 l 606 475 z "},"č":{"ha":1127,"x_min":34,"x_max":1094,"o":"m 1094 200 q 1078 105 1094 143 q 1026 42 1062 66 q 931 8 989 18 q 788 -3 873 -3 l 338 -3 q 195 8 253 -3 q 101 42 137 18 q 50 104 66 65 q 34 200 34 143 l 34 685 q 101 843 34 798 q 195 877 135 865 q 290 885 224 882 q 460 887 356 887 l 788 887 q 931 877 873 887 q 1026 842 989 867 q 1078 779 1062 818 q 1094 685 1094 741 l 1094 549 l 627 549 l 627 648 q 563 715 627 715 q 514 700 530 715 q 499 648 499 684 l 499 236 q 563 168 499 168 q 612 184 596 168 q 627 236 627 200 l 627 378 l 1094 378 l 1094 200 m 812 1254 l 636 980 l 636 979 l 461 980 l 285 1254 l 484 1254 l 549 1150 l 613 1254 l 812 1254 z "},"đ":{"ha":1125,"x_min":34,"x_max":1168,"o":"m 565 165 q 628 231 628 165 l 628 635 q 565 701 628 701 q 516 686 531 701 q 500 635 500 671 l 500 231 q 565 165 500 165 m 1094 1024 l 1094 196 q 1078 101 1094 139 q 1026 41 1062 63 q 933 8 991 18 q 790 -3 874 -3 l 340 -3 q 196 8 255 -3 q 102 41 138 18 q 50 103 66 65 q 34 196 34 140 l 34 693 q 50 784 34 747 q 102 846 66 822 q 196 879 138 869 q 339 890 255 890 l 634 890 l 634 1024 l 472 1024 l 472 1127 l 634 1127 l 634 1222 l 1094 1222 l 1094 1127 l 1168 1127 l 1168 1024 l 1094 1024 z "},"¯":{"ha":701,"x_min":34,"x_max":667,"o":"m 34 1478 l 667 1478 l 667 1221 l 34 1221 l 34 1478 z "},"·":{"ha":401,"x_min":34,"x_max":367,"o":"m 367 697 l 34 697 l 34 418 l 367 418 l 367 697 z "},"Ā":{"ha":1179,"x_min":34,"x_max":1145,"o":"m 34 0 l 249 1128 l 930 1128 l 1145 0 l 685 0 l 657 244 l 520 244 l 493 0 l 34 0 m 864 1394 l 864 1222 l 316 1222 l 316 1394 l 864 1394 m 549 493 l 630 493 l 589 877 l 549 493 z "},"ā":{"ha":1122,"x_min":34,"x_max":1088,"o":"m 635 257 l 635 395 l 573 374 q 511 338 528 359 q 494 277 494 317 l 494 257 q 563 186 494 186 q 617 203 599 186 q 635 257 635 220 m 632 574 l 632 652 q 616 708 633 693 q 563 723 599 723 q 511 707 527 723 q 495 652 495 690 l 495 623 l 49 623 l 50 687 q 65 783 50 744 q 117 846 81 822 q 212 880 153 869 q 355 890 270 890 l 783 890 q 926 880 867 890 q 1020 845 984 869 q 1072 782 1057 821 q 1088 687 1088 743 l 1088 0 l 359 0 q 124 62 203 -3 q 34 303 44 126 q 355 574 57 567 l 632 574 m 835 1150 l 835 978 l 287 978 l 287 1150 l 835 1150 z "},"Ă":{"ha":1179,"x_min":34,"x_max":1145,"o":"m 34 0 l 249 1128 l 930 1128 l 1145 0 l 685 0 l 657 244 l 520 244 l 493 0 l 34 0 m 831 1465 q 831 1463 831 1462 q 812 1369 831 1414 q 760 1292 793 1326 q 683 1240 727 1259 q 589 1221 638 1221 q 495 1240 540 1221 q 418 1292 452 1259 q 367 1369 385 1326 q 348 1463 348 1414 q 348 1465 348 1462 l 518 1465 q 556 1403 523 1418 q 623 1403 589 1388 q 661 1465 656 1418 l 831 1465 m 549 493 l 630 493 l 589 877 l 549 493 z "},"ă":{"ha":1122,"x_min":34,"x_max":1088,"o":"m 635 257 l 635 395 l 573 374 q 511 338 528 359 q 494 277 494 317 l 494 257 q 563 186 494 186 q 617 203 599 186 q 635 257 635 220 m 632 574 l 632 652 q 616 708 633 693 q 563 723 599 723 q 511 707 527 723 q 495 652 495 690 l 495 623 l 49 623 l 50 687 q 65 783 50 744 q 117 846 81 822 q 212 880 153 869 q 355 890 270 890 l 783 890 q 926 880 867 890 q 1020 845 984 869 q 1072 782 1057 821 q 1088 687 1088 743 l 1088 0 l 359 0 q 124 62 203 -3 q 34 303 44 126 q 355 574 57 567 l 632 574 m 803 1223 q 803 1221 803 1220 q 784 1127 803 1172 q 732 1050 765 1084 q 655 998 699 1017 q 561 979 610 979 q 467 998 512 979 q 390 1050 424 1017 q 339 1127 357 1084 q 320 1221 319 1172 q 319 1223 319 1220 l 490 1223 q 528 1161 494 1176 q 595 1161 561 1146 q 633 1223 628 1176 l 803 1223 z "},"Ą":{"ha":1182,"x_min":34,"x_max":1148,"o":"m 685 0 l 657 244 l 520 244 l 493 0 l 34 0 l 249 1128 l 930 1128 l 1148 -1 q 794 -82 892 1 q 710 -216 695 -164 q 779 -278 715 -264 q 881 -278 832 -290 l 880 -387 q 712 -438 819 -416 q 476 -434 540 -460 q 410 -358 422 -412 q 429 -240 399 -307 q 525 -106 459 -172 q 685 0 585 -46 m 549 493 l 630 493 l 589 877 l 549 493 z "},"ą":{"ha":1122,"x_min":34,"x_max":1088,"o":"m 635 257 l 635 395 l 573 374 q 511 338 528 359 q 494 277 494 317 l 494 257 q 563 186 494 186 q 617 203 599 186 q 635 257 635 220 m 609 0 l 359 0 q 124 62 203 -3 q 34 303 44 126 q 355 574 57 567 l 632 574 l 632 652 q 616 708 633 693 q 563 723 599 723 q 511 707 527 723 q 495 652 495 690 l 495 623 l 49 623 l 50 687 q 65 783 50 744 q 117 846 81 822 q 212 880 153 869 q 355 890 270 890 l 783 890 q 926 880 867 890 q 1020 845 984 869 q 1072 782 1057 821 q 1088 687 1088 743 l 1088 0 l 1088 -1 q 734 -82 832 1 q 650 -216 635 -164 q 719 -278 655 -264 q 821 -278 772 -290 l 820 -387 q 652 -438 759 -416 q 416 -434 480 -460 q 350 -358 362 -412 q 369 -240 339 -307 q 465 -106 399 -172 q 609 0 507 -65 z "},"Ĉ":{"ha":1097,"x_min":34,"x_max":1063,"o":"m 612 1223 l 548 1326 l 483 1223 l 284 1223 l 460 1497 l 635 1497 l 635 1497 l 811 1223 l 612 1223 m 606 475 l 606 338 q 548 256 606 256 q 504 275 517 256 q 491 338 491 294 l 491 792 q 504 855 491 836 q 548 874 517 874 q 592 856 578 874 q 606 792 606 837 l 606 710 l 1063 710 l 1063 859 q 1000 1068 1063 1007 q 913 1114 969 1099 q 777 1128 857 1128 l 308 1128 q 180 1114 233 1128 q 96 1067 128 1099 q 49 984 64 1035 q 34 859 34 932 l 34 243 q 99 58 34 117 q 308 0 165 0 l 777 0 q 908 14 854 0 q 997 57 963 28 q 1047 132 1031 86 q 1063 243 1063 178 l 1063 475 l 606 475 z "},"ĉ":{"ha":1127,"x_min":34,"x_max":1094,"o":"m 1094 200 q 1078 105 1094 143 q 1026 42 1062 66 q 931 8 989 18 q 788 -3 873 -3 l 338 -3 q 195 8 253 -3 q 101 42 137 18 q 50 104 66 65 q 34 200 34 143 l 34 685 q 101 843 34 798 q 195 877 135 865 q 290 885 224 882 q 460 887 356 887 l 788 887 q 931 877 873 887 q 1026 842 989 867 q 1078 779 1062 818 q 1094 685 1094 741 l 1094 549 l 627 549 l 627 648 q 563 715 627 715 q 514 700 530 715 q 499 648 499 684 l 499 236 q 563 168 499 168 q 612 184 596 168 q 627 236 627 200 l 627 378 l 1094 378 l 1094 200 m 632 980 l 567 1084 l 502 980 l 303 980 l 479 1254 l 654 1254 l 654 1254 l 830 980 l 632 980 z "},"Ċ":{"ha":1097,"x_min":34,"x_max":1063,"o":"m 692 1461 l 405 1461 l 405 1222 l 692 1222 l 692 1461 m 606 475 l 606 338 q 548 256 606 256 q 504 275 517 256 q 491 338 491 294 l 491 792 q 504 855 491 836 q 548 874 517 874 q 592 856 578 874 q 606 792 606 837 l 606 710 l 1063 710 l 1063 859 q 1000 1068 1063 1007 q 913 1114 969 1099 q 777 1128 857 1128 l 308 1128 q 180 1114 233 1128 q 96 1067 128 1099 q 49 984 64 1035 q 34 859 34 932 l 34 243 q 99 58 34 117 q 308 0 165 0 l 777 0 q 908 14 854 0 q 997 57 963 28 q 1047 132 1031 86 q 1063 243 1063 178 l 1063 475 l 606 475 z "},"ċ":{"ha":1127,"x_min":34,"x_max":1094,"o":"m 1094 200 q 1078 105 1094 143 q 1026 42 1062 66 q 931 8 989 18 q 788 -3 873 -3 l 338 -3 q 195 8 253 -3 q 101 42 137 18 q 50 104 66 65 q 34 200 34 143 l 34 685 q 101 843 34 798 q 195 877 135 865 q 290 885 224 882 q 460 887 356 887 l 788 887 q 931 877 873 887 q 1026 842 989 867 q 1078 779 1062 818 q 1094 685 1094 741 l 1094 549 l 627 549 l 627 648 q 563 715 627 715 q 514 700 530 715 q 499 648 499 684 l 499 236 q 563 168 499 168 q 612 184 596 168 q 627 236 627 200 l 627 378 l 1094 378 l 1094 200 m 707 1223 l 421 1223 l 421 983 l 707 983 l 707 1223 z "},"Ď":{"ha":1108,"x_min":34,"x_max":1074,"o":"m 492 258 l 543 258 q 595 276 581 258 q 609 339 609 293 l 609 790 q 595 853 609 836 q 543 871 581 871 l 492 871 l 492 258 m 34 0 l 34 1128 l 783 1128 q 917 1114 861 1128 q 1007 1071 972 1100 q 1058 995 1042 1042 q 1074 885 1074 949 l 1074 272 q 1010 60 1074 121 q 922 15 979 29 q 783 0 864 0 l 34 0 m 812 1497 l 636 1223 l 636 1222 l 461 1223 l 285 1497 l 484 1497 l 549 1393 l 613 1497 l 812 1497 z "},"ď":{"ha":1449,"x_min":34,"x_max":1415,"o":"m 629 235 l 628 635 q 565 701 628 701 q 516 686 531 701 q 500 635 501 671 l 501 235 q 565 169 501 169 q 629 235 629 169 m 634 1128 l 1094 1128 l 1094 199 q 1078 105 1094 142 q 1027 44 1062 67 q 933 11 991 21 q 790 1 874 1 l 340 1 q 197 11 255 1 q 102 45 138 21 q 50 106 66 68 q 34 199 34 144 l 34 693 q 50 784 34 747 q 102 846 66 822 q 197 879 138 869 q 340 890 255 890 l 634 890 l 634 1128 m 1202 723 l 1275 849 l 1154 849 l 1154 1128 l 1415 1128 l 1415 849 l 1339 723 l 1202 723 z "},"Ē":{"ha":898,"x_min":34,"x_max":864,"o":"m 723 1395 l 723 1223 l 175 1223 l 175 1395 l 723 1395 m 34 0 l 34 1128 l 864 1128 l 864 871 l 489 871 l 489 693 l 822 693 l 822 436 l 489 436 l 489 257 l 864 257 l 864 0 l 34 0 z "},"ē":{"ha":1127,"x_min":34,"x_max":1094,"o":"m 1094 200 q 1078 105 1094 143 q 1026 42 1062 66 q 931 8 989 18 q 788 -3 873 -3 l 338 -3 q 195 8 253 -3 q 101 42 137 18 q 50 104 66 65 q 34 200 34 143 l 34 685 q 50 781 34 742 q 101 843 66 820 q 195 877 137 867 q 338 887 253 887 l 788 887 q 931 877 873 887 q 1026 842 989 867 q 1078 779 1062 818 q 1094 685 1094 741 l 1094 417 l 499 417 l 499 236 q 563 168 499 168 q 612 184 596 168 q 627 236 627 200 l 627 350 l 1094 350 l 1094 200 m 495 648 l 495 577 l 633 577 l 632 648 q 563 723 632 723 q 511 705 527 723 q 495 648 495 688 m 838 1151 l 838 979 l 290 979 l 290 1151 l 838 1151 z "},"Ĕ":{"ha":898,"x_min":34,"x_max":864,"o":"m 690 1465 q 691 1463 690 1462 q 672 1369 690 1414 q 620 1292 653 1326 q 543 1240 586 1259 q 449 1221 498 1221 q 354 1240 399 1221 q 278 1292 311 1259 q 226 1369 244 1326 q 207 1463 207 1414 q 207 1465 207 1462 l 377 1465 q 415 1403 382 1418 q 482 1403 449 1388 q 520 1465 515 1418 l 690 1465 m 34 0 l 34 1128 l 864 1128 l 864 871 l 489 871 l 489 693 l 822 693 l 822 436 l 489 436 l 489 257 l 864 257 l 864 0 l 34 0 z "},"ĕ":{"ha":1127,"x_min":34,"x_max":1094,"o":"m 1094 200 q 1078 105 1094 143 q 1026 42 1062 66 q 931 8 989 18 q 788 -3 873 -3 l 338 -3 q 195 8 253 -3 q 101 42 137 18 q 50 104 66 65 q 34 200 34 143 l 34 685 q 50 781 34 742 q 101 843 66 820 q 195 877 137 867 q 338 887 253 887 l 788 887 q 931 877 873 887 q 1026 842 989 867 q 1078 779 1062 818 q 1094 685 1094 741 l 1094 417 l 499 417 l 499 236 q 563 168 499 168 q 612 184 596 168 q 627 236 627 200 l 627 350 l 1094 350 l 1094 200 m 495 648 l 495 577 l 633 577 l 632 648 q 563 723 632 723 q 511 705 527 723 q 495 648 495 688 m 805 1223 q 806 1221 805 1220 q 787 1127 805 1172 q 734 1050 768 1084 q 657 998 701 1017 q 564 979 613 979 q 469 998 514 979 q 393 1050 426 1017 q 341 1127 359 1084 q 322 1221 322 1172 q 322 1223 322 1220 l 492 1223 q 530 1161 497 1176 q 597 1161 564 1146 q 635 1223 630 1176 l 805 1223 z "},"Ė":{"ha":898,"x_min":34,"x_max":864,"o":"m 592 1462 l 306 1462 l 306 1223 l 592 1223 l 592 1462 m 34 0 l 34 1128 l 864 1128 l 864 871 l 489 871 l 489 693 l 822 693 l 822 436 l 489 436 l 489 257 l 864 257 l 864 0 l 34 0 z "},"ė":{"ha":1127,"x_min":34,"x_max":1094,"o":"m 1094 200 q 1078 105 1094 143 q 1026 42 1062 66 q 931 8 989 18 q 788 -3 873 -3 l 338 -3 q 195 8 253 -3 q 101 42 137 18 q 50 104 66 65 q 34 200 34 143 l 34 685 q 50 781 34 742 q 101 843 66 820 q 195 877 137 867 q 338 887 253 887 l 788 887 q 931 877 873 887 q 1026 842 989 867 q 1078 779 1062 818 q 1094 685 1094 741 l 1094 417 l 499 417 l 499 236 q 563 168 499 168 q 612 184 596 168 q 627 236 627 200 l 627 350 l 1094 350 l 1094 200 m 495 648 l 495 577 l 633 577 l 632 648 q 563 723 632 723 q 511 705 527 723 q 495 648 495 688 m 707 1220 l 420 1220 l 420 980 l 707 980 l 707 1220 z "},"Ę":{"ha":896,"x_min":34,"x_max":862,"o":"m 383 0 l 34 0 l 34 1128 l 862 1128 l 862 871 l 480 871 l 480 693 l 821 693 l 821 436 l 480 436 l 480 257 l 862 257 l 862 0 l 862 0 l 862 -1 q 507 -82 606 1 q 424 -216 409 -164 q 492 -278 429 -264 q 595 -278 546 -290 l 594 -387 q 426 -438 532 -416 q 190 -434 254 -460 q 124 -358 136 -412 q 143 -240 113 -307 q 239 -106 173 -172 q 383 0 280 -65 z "},"ę":{"ha":1127,"x_min":34,"x_max":1094,"o":"m 495 648 l 495 577 l 633 577 l 632 648 q 563 723 632 723 q 511 705 527 723 q 495 648 495 688 m 548 -3 l 338 -3 q 195 8 253 -3 q 101 42 137 18 q 50 104 66 65 q 34 200 34 143 l 34 685 q 50 781 34 742 q 101 843 66 820 q 195 877 137 867 q 338 887 253 887 l 788 887 q 931 877 873 887 q 1026 842 989 867 q 1078 779 1062 818 q 1094 685 1094 741 l 1094 417 l 499 417 l 499 236 q 563 168 499 168 q 612 184 596 168 q 627 236 627 200 l 627 350 l 1094 350 l 1094 200 q 1078 105 1094 143 q 1015 42 1062 66 q 893 2 969 18 q 696 -70 761 -15 q 612 -203 598 -152 q 681 -266 617 -252 q 783 -266 735 -278 l 783 -375 q 614 -426 721 -404 q 379 -422 442 -448 q 313 -346 324 -399 q 331 -228 301 -295 q 428 -94 362 -160 q 548 -3 464 -58 z "},"Ě":{"ha":898,"x_min":34,"x_max":864,"o":"m 712 1497 l 536 1223 l 536 1222 l 361 1223 l 185 1497 l 384 1497 l 449 1393 l 514 1497 l 712 1497 m 34 0 l 34 1128 l 864 1128 l 864 871 l 489 871 l 489 693 l 822 693 l 822 436 l 489 436 l 489 257 l 864 257 l 864 0 l 34 0 z "},"ě":{"ha":1127,"x_min":34,"x_max":1094,"o":"m 1094 200 q 1078 105 1094 143 q 1026 42 1062 66 q 931 8 989 18 q 788 -3 873 -3 l 338 -3 q 195 8 253 -3 q 101 42 137 18 q 50 104 66 65 q 34 200 34 143 l 34 685 q 50 781 34 742 q 101 843 66 820 q 195 877 137 867 q 338 887 253 887 l 788 887 q 931 877 873 887 q 1026 842 989 867 q 1078 779 1062 818 q 1094 685 1094 741 l 1094 417 l 499 417 l 499 236 q 563 168 499 168 q 612 184 596 168 q 627 236 627 200 l 627 350 l 1094 350 l 1094 200 m 495 648 l 495 577 l 633 577 l 632 648 q 563 723 632 723 q 511 705 527 723 q 495 648 495 688 m 812 1254 l 636 980 l 636 979 l 461 980 l 285 1254 l 484 1254 l 549 1150 l 613 1254 l 812 1254 z "},"Ĝ":{"ha":1046,"x_min":34,"x_max":1064,"o":"m 606 407 l 544 407 l 543 659 l 1064 659 l 1064 209 q 865 0 1064 0 l 552 0 l 308 0 q 180 15 233 0 q 95 62 128 29 q 48 146 63 95 q 34 271 34 197 l 34 903 q 99 1086 34 1029 q 308 1143 165 1143 l 778 1143 q 909 1130 855 1143 q 998 1088 963 1117 q 1048 1013 1032 1059 q 1064 903 1064 967 l 1064 789 l 605 789 l 606 807 q 607 815 606 810 q 607 822 607 820 q 591 871 607 853 q 548 889 574 889 q 505 870 518 889 q 491 807 491 850 l 492 338 q 505 276 491 295 q 548 257 518 257 q 592 276 579 257 q 606 338 606 295 l 606 407 m 627 1223 l 563 1326 l 498 1223 l 299 1223 l 475 1497 l 650 1497 l 650 1497 l 826 1223 l 627 1223 z "},"ĝ":{"ha":1122,"x_min":34,"x_max":1088,"o":"m 1088 -25 q 1072 -147 1088 -108 q 1020 -210 1056 -186 q 927 -245 985 -235 q 784 -256 869 -256 l 212 -256 l 213 -85 l 556 -85 q 630 0 638 -86 q 459 1 527 1 q 355 1 391 1 q 115 64 196 1 q 34 255 34 128 l 34 636 q 115 830 34 763 q 350 890 196 896 l 1088 890 l 1088 -25 m 628 621 q 613 674 628 657 q 564 690 597 690 q 498 621 498 690 l 498 270 q 513 218 498 234 q 565 202 529 202 q 613 218 598 202 q 628 270 628 234 l 628 621 m 637 980 l 573 1084 l 508 980 l 309 980 l 485 1254 l 660 1254 l 660 1254 l 836 980 l 637 980 z "},"Ġ":{"ha":1105,"x_min":34,"x_max":1071,"o":"m 606 407 l 544 407 l 543 659 l 1064 659 l 1065 209 q 865 0 1071 0 l 552 0 l 308 0 q 180 15 233 0 q 95 62 128 29 q 48 146 63 95 q 34 271 34 197 l 34 903 q 99 1086 34 1029 q 308 1143 165 1143 l 778 1143 q 909 1130 855 1143 q 998 1088 963 1117 q 1048 1013 1032 1059 q 1064 903 1064 967 l 1064 789 l 605 789 l 606 807 q 607 815 606 810 q 607 822 607 820 q 591 871 607 853 q 548 889 574 889 q 505 870 518 889 q 491 807 491 850 l 492 338 q 505 276 491 295 q 548 257 518 257 q 592 276 579 257 q 606 338 606 295 l 606 407 m 692 1462 l 406 1462 l 406 1223 l 692 1223 l 692 1462 z "},"ġ":{"ha":1122,"x_min":34,"x_max":1088,"o":"m 1088 -25 q 1072 -147 1088 -108 q 1020 -210 1056 -186 q 927 -245 985 -235 q 784 -256 869 -256 l 212 -256 l 213 -85 l 556 -85 q 630 0 638 -86 q 459 1 527 1 q 355 1 391 1 q 115 64 196 1 q 34 255 34 128 l 34 636 q 115 830 34 763 q 350 890 196 896 l 1088 890 l 1088 -25 m 628 621 q 613 674 628 657 q 564 690 597 690 q 498 621 498 690 l 498 270 q 513 218 498 234 q 565 202 529 202 q 613 218 598 202 q 628 270 628 234 l 628 621 m 724 1220 l 438 1220 l 438 980 l 724 980 l 724 1220 z "},"Ģ":{"ha":1105,"x_min":34,"x_max":1064,"o":"m 606 407 l 544 407 l 543 659 l 1064 659 l 1064 209 q 865 0 1064 0 l 552 0 l 308 0 q 180 15 233 0 q 95 62 128 29 q 48 146 63 95 q 34 271 34 197 l 34 886 q 99 1069 34 1013 q 308 1126 165 1126 l 778 1126 q 909 1113 855 1126 q 998 1071 963 1100 q 1048 996 1032 1042 q 1064 886 1064 950 l 1064 772 l 605 772 l 606 790 q 607 798 606 793 q 607 805 607 803 q 591 854 607 836 q 548 872 574 872 q 505 853 518 872 q 491 790 491 833 l 492 338 q 505 276 491 295 q 548 257 518 257 q 592 276 579 257 q 606 338 606 295 l 606 407 m 617 -413 l 679 -311 l 679 -85 l 409 -85 l 409 -311 l 565 -311 l 507 -413 l 617 -413 z "},"ģ":{"ha":1122,"x_min":34,"x_max":1088,"o":"m 1088 -25 q 1072 -147 1088 -108 q 1020 -210 1056 -186 q 927 -245 985 -235 q 784 -256 869 -256 l 212 -256 l 213 -85 l 556 -85 q 630 0 638 -86 q 459 1 527 1 q 355 1 391 1 q 115 64 196 1 q 34 255 34 128 l 34 636 q 115 830 34 763 q 350 890 196 896 l 1088 890 l 1088 -25 m 628 621 q 613 674 628 657 q 564 690 597 690 q 498 621 498 690 l 498 270 q 513 218 498 234 q 565 202 529 202 q 613 218 598 202 q 628 270 628 234 l 628 621 m 616 1308 l 557 1206 l 713 1206 l 713 980 l 443 980 l 443 1206 l 505 1308 l 616 1308 z "},"Ĥ":{"ha":1079,"x_min":34,"x_max":1045,"o":"m 604 1223 l 539 1326 l 475 1223 l 276 1223 l 452 1497 l 627 1497 l 627 1497 l 803 1223 l 604 1223 m 34 0 l 34 1128 l 491 1128 l 491 746 l 588 746 l 588 1128 l 1045 1128 l 1045 0 l 588 0 l 588 489 l 491 489 l 491 0 l 34 0 z "},"ĥ":{"ha":1115,"x_min":34,"x_max":1081,"o":"m 34 0 l 34 1128 l 494 1128 l 494 890 l 762 890 q 1000 824 920 890 q 1081 631 1081 757 l 1081 0 l 622 0 l 622 618 q 557 686 622 686 q 509 670 524 686 q 494 618 494 654 l 494 0 l 34 0 m 622 1223 l 557 1327 l 493 1223 l 294 1223 l 470 1497 l 645 1497 l 645 1497 l 821 1223 l 622 1223 z "},"Ħ":{"ha":1096,"x_min":-20,"x_max":1116,"o":"m 1056 850 l 1056 0 l 598 0 l 598 489 l 502 489 l 502 0 l 44 0 l 44 850 l -20 850 l -20 1023 l 44 1023 l 44 1128 l 502 1128 l 502 1023 l 598 1023 l 598 1128 l 1056 1128 l 1056 1023 l 1116 1023 l 1116 850 l 1056 850 m 502 850 l 502 746 l 598 746 l 598 850 l 502 850 z "},"ħ":{"ha":1203,"x_min":34,"x_max":1170,"o":"m 582 957 l 582 890 l 850 890 q 1089 823 1008 889 q 1169 631 1169 757 l 1170 0 l 710 0 l 710 618 q 646 686 710 686 q 597 670 613 686 q 582 618 582 654 l 582 0 l 122 0 l 122 957 l 34 957 l 34 1069 l 122 1069 l 122 1128 l 582 1128 l 582 1069 l 672 1069 l 672 957 l 582 957 z "},"Ĩ":{"ha":526,"x_min":-52,"x_max":606,"o":"m 34 0 l 34 1128 l 492 1128 l 492 0 l 34 0 m 606 1340 q 384 1207 505 1207 q 231 1252 326 1207 q 164 1270 189 1270 q 44 1203 113 1270 l -52 1331 q 162 1444 53 1444 q 304 1407 224 1444 q 381 1381 356 1381 q 511 1466 437 1381 l 606 1340 z "},"ĩ":{"ha":526,"x_min":-72,"x_max":586,"o":"m 34 0 l 34 890 l 492 890 l 492 0 l 34 0 m 586 1107 q 364 974 485 974 q 211 1018 306 974 q 144 1037 169 1037 q 24 970 93 1037 l -72 1097 q 142 1211 33 1211 q 284 1173 204 1211 q 361 1148 336 1148 q 491 1233 417 1148 l 586 1107 z "},"Ī":{"ha":526,"x_min":-11,"x_max":537,"o":"m 34 0 l 34 1128 l 492 1128 l 492 0 l 34 0 m 537 1398 l 537 1226 l -11 1226 l -11 1398 l 537 1398 z "},"ī":{"ha":616,"x_min":34,"x_max":582,"o":"m 79 0 l 79 890 l 537 890 l 537 0 l 79 0 m 582 1151 l 582 979 l 34 979 l 34 1151 l 582 1151 z "},"Ĭ":{"ha":526,"x_min":20,"x_max":504,"o":"m 34 0 l 34 1128 l 492 1128 l 492 0 l 34 0 m 504 1467 q 504 1466 504 1465 q 485 1372 504 1416 q 433 1295 466 1328 q 356 1243 400 1261 q 262 1224 311 1224 q 168 1243 213 1224 q 91 1295 125 1261 q 40 1372 58 1328 q 21 1466 20 1416 q 20 1467 20 1465 l 191 1467 q 229 1405 195 1420 q 296 1405 262 1390 q 334 1467 329 1420 l 504 1467 z "},"ĭ":{"ha":526,"x_min":22,"x_max":506,"o":"m 34 0 l 34 890 l 492 890 l 492 0 l 34 0 m 505 1223 q 506 1221 506 1220 q 487 1127 506 1172 q 435 1050 468 1084 q 358 998 401 1017 q 264 979 313 979 q 170 998 215 979 q 93 1050 126 1017 q 41 1127 59 1084 q 22 1221 22 1172 q 22 1223 22 1220 l 192 1223 q 230 1161 197 1176 q 297 1161 264 1146 q 335 1223 331 1176 l 505 1223 z "},"Į":{"ha":527,"x_min":-125,"x_max":492,"o":"m 106 0 l 34 0 l 34 1129 l 492 1129 l 492 19 l 492 0 q 270 -56 313 -20 q 186 -190 172 -139 q 255 -253 191 -239 q 357 -253 309 -264 l 356 -361 q 188 -412 295 -391 q -47 -409 16 -435 q -114 -333 -102 -386 q -95 -215 -125 -282 q 1 -81 -64 -147 q 106 0 34 -48 z "},"į":{"ha":526,"x_min":-125,"x_max":492,"o":"m 34 936 l 34 1127 l 492 1127 l 492 936 l 34 936 m 106 0 l 34 0 l 34 890 l 492 890 l 492 19 l 492 0 q 270 -56 313 -20 q 186 -190 172 -139 q 255 -253 191 -239 q 357 -253 309 -264 l 356 -361 q 188 -412 295 -391 q -47 -409 16 -435 q -114 -333 -102 -386 q -95 -215 -125 -282 q 1 -81 -64 -147 q 106 0 34 -48 z "},"Ĳ":{"ha":1625,"x_min":34,"x_max":1591,"o":"m 34 0 l 34 1128 l 492 1128 l 492 0 l 34 0 m 1591 1128 l 1591 262 q 1528 51 1591 111 q 1298 -8 1464 -8 l 842 -8 q 711 6 765 -8 q 624 53 657 21 q 575 137 590 86 q 560 262 560 189 l 560 475 l 1010 475 l 1010 329 q 1024 267 1010 286 q 1068 249 1038 249 q 1115 267 1101 249 q 1129 329 1129 286 l 1129 1128 l 1591 1128 z "},"ĳ":{"ha":1053,"x_min":34,"x_max":1019,"o":"m 34 0 l 34 890 l 492 890 l 492 0 l 34 0 m 34 936 l 34 1127 l 492 1127 l 492 936 l 34 936 m 560 -254 l 560 890 l 1019 890 l 1019 -254 l 560 -254 m 560 936 l 560 1127 l 1019 1127 l 1019 936 l 560 936 z "},"Ĵ":{"ha":1099,"x_min":34,"x_max":1104,"o":"m 1065 1128 l 1065 262 q 1001 51 1065 111 q 772 -8 938 -8 l 316 -8 q 185 6 238 -8 q 97 53 131 21 q 49 137 64 86 q 34 262 34 189 l 34 475 l 484 475 l 484 329 q 498 267 484 286 q 542 249 512 249 q 588 267 574 249 q 603 329 603 286 l 603 1128 l 1065 1128 m 905 1221 l 841 1325 l 776 1221 l 577 1221 l 753 1495 l 928 1495 l 928 1495 l 1104 1221 l 905 1221 z "},"ĵ":{"ha":526,"x_min":6,"x_max":533,"o":"m 34 -254 l 34 1129 l 492 1129 l 492 -254 l 34 -254 m 334 1221 l 269 1325 l 204 1221 l 6 1221 l 182 1495 l 357 1495 l 357 1495 l 533 1221 l 334 1221 z "},"Ķ":{"ha":1163,"x_min":34,"x_max":1129,"o":"m 34 0 l 34 1128 l 492 1128 l 492 672 l 643 1128 l 1119 1128 l 939 604 l 1129 0 l 659 0 l 492 515 l 492 0 l 34 0 m 532 -413 l 590 -312 l 435 -312 l 435 -85 l 705 -85 l 705 -312 l 643 -413 l 532 -413 z "},"ķ":{"ha":1123,"x_min":34,"x_max":1089,"o":"m 34 0 l 34 1128 l 484 1128 l 484 535 l 534 890 l 1002 890 l 871 467 l 1089 0 l 623 0 l 484 414 l 484 0 l 34 0 m 511 -413 l 569 -312 l 413 -312 l 413 -85 l 683 -85 l 683 -312 l 621 -413 l 511 -413 z "},"ĸ":{"ha":1163,"x_min":34,"x_max":1129,"o":"m 34 0 l 34 890 l 492 890 l 492 530 l 643 890 l 1119 890 l 939 477 l 1129 0 l 659 0 l 492 407 l 492 0 l 34 0 z "},"Ĺ":{"ha":803,"x_min":34,"x_max":769,"o":"m 34 0 l 34 1128 l 489 1128 l 489 257 l 769 257 l 769 0 l 34 0 m 522 1492 l 376 1220 l 157 1220 l 303 1492 l 522 1492 z "},"ĺ":{"ha":526,"x_min":34,"x_max":511,"o":"m 34 0 l 34 1128 l 492 1128 l 492 0 l 34 0 m 511 1493 l 365 1221 l 146 1221 l 292 1493 l 511 1493 z "},"Ļ":{"ha":803,"x_min":34,"x_max":769,"o":"m 34 0 l 34 1128 l 489 1128 l 489 257 l 769 257 l 769 0 l 34 0 m 345 -413 l 403 -312 l 247 -312 l 247 -85 l 517 -85 l 517 -312 l 455 -413 l 345 -413 z "},"ļ":{"ha":526,"x_min":34,"x_max":492,"o":"m 34 0 l 34 1128 l 492 1128 l 492 0 l 34 0 m 225 -413 l 284 -312 l 128 -312 l 128 -85 l 398 -85 l 398 -312 l 336 -413 l 225 -413 z "},"Ľ":{"ha":831,"x_min":34,"x_max":810,"o":"m 34 0 l 34 1128 l 489 1128 l 489 257 l 769 257 l 769 0 l 34 0 m 597 723 l 669 849 l 548 849 l 548 1128 l 810 1128 l 810 849 l 734 723 l 597 723 z "},"ľ":{"ha":834,"x_min":34,"x_max":810,"o":"m 34 0 l 34 1128 l 492 1128 l 492 0 l 34 0 m 597 723 l 669 849 l 548 849 l 548 1128 l 810 1128 l 810 849 l 734 723 l 597 723 z "},"Ŀ":{"ha":813,"x_min":34,"x_max":793,"o":"m 34 0 l 34 1128 l 489 1128 l 489 257 l 769 257 l 769 0 l 34 0 m 793 714 l 549 714 l 549 475 l 793 475 l 793 714 z "},"ŀ":{"ha":827,"x_min":34,"x_max":793,"o":"m 793 714 l 549 714 l 549 475 l 793 475 l 793 714 m 489 0 l 34 0 l 34 1128 l 489 1128 l 489 0 z "},"Ń":{"ha":1227,"x_min":34,"x_max":1193,"o":"m 34 0 l 34 1128 l 533 1128 l 732 663 l 732 1128 l 1193 1128 l 1193 0 l 716 0 l 494 531 l 494 0 l 34 0 m 879 1492 l 732 1220 l 513 1220 l 660 1492 l 879 1492 z "},"ń":{"ha":1114,"x_min":34,"x_max":1080,"o":"m 34 0 l 34 890 l 764 890 q 1000 829 919 895 q 1080 637 1080 763 l 1080 0 l 621 0 l 621 622 q 557 690 621 690 q 509 674 524 690 q 493 622 493 658 l 493 0 l 34 0 m 801 1252 l 654 980 l 435 980 l 582 1252 l 801 1252 z "},"Ņ":{"ha":1227,"x_min":34,"x_max":1193,"o":"m 34 0 l 34 1128 l 533 1128 l 732 663 l 732 1128 l 1193 1128 l 1193 0 l 716 0 l 494 531 l 494 0 l 34 0 m 576 -413 l 634 -312 l 478 -312 l 478 -85 l 749 -85 l 749 -312 l 686 -413 l 576 -413 z "},"ņ":{"ha":1114,"x_min":34,"x_max":1080,"o":"m 34 0 l 34 890 l 764 890 q 1000 829 919 895 q 1080 637 1080 763 l 1080 0 l 621 0 l 621 622 q 557 690 621 690 q 509 674 524 690 q 493 622 493 658 l 493 0 l 34 0 m 511 -413 l 569 -312 l 413 -312 l 413 -85 l 683 -85 l 683 -312 l 621 -413 l 511 -413 z "},"Ň":{"ha":1227,"x_min":34,"x_max":1193,"o":"m 34 0 l 34 1128 l 533 1128 l 732 663 l 732 1128 l 1193 1128 l 1193 0 l 716 0 l 494 531 l 494 0 l 34 0 m 877 1497 l 701 1223 l 701 1222 l 526 1223 l 350 1497 l 549 1497 l 614 1393 l 679 1497 l 877 1497 z "},"ň":{"ha":1114,"x_min":34,"x_max":1080,"o":"m 34 0 l 34 890 l 764 890 q 1000 829 919 895 q 1080 637 1080 763 l 1080 0 l 621 0 l 621 622 q 557 690 621 690 q 509 674 524 690 q 493 622 493 658 l 493 0 l 34 0 m 812 1254 l 636 980 l 636 979 l 461 980 l 285 1254 l 484 1254 l 549 1150 l 613 1254 l 812 1254 z "},"ŉ":{"ha":1421,"x_min":34,"x_max":1387,"o":"m 340 0 l 340 890 l 1070 890 q 1306 829 1226 895 q 1387 637 1387 763 l 1387 0 l 927 0 l 927 622 q 864 690 928 690 q 815 674 831 690 q 800 622 800 658 l 800 0 l 340 0 m 83 486 l 155 611 l 34 611 l 34 890 l 296 890 l 296 611 l 219 486 l 83 486 z "},"Ŋ":{"ha":1229,"x_min":34,"x_max":1195,"o":"m 681 76 l 494 531 l 494 0 l 34 0 l 34 1128 l 533 1128 l 732 663 l 732 1128 l 1193 1128 l 1193 867 l 1195 867 l 1195 -58 q 1179 -153 1195 -115 q 1128 -216 1163 -192 q 1034 -250 1093 -240 q 890 -260 976 -260 l 612 -260 l 612 -23 q 681 76 723 -25 z "},"ŋ":{"ha":1116,"x_min":34,"x_max":1082,"o":"m 622 45 l 622 45 l 622 622 q 557 690 622 690 q 509 674 524 690 q 494 622 494 659 l 494 0 l 34 0 l 34 890 l 764 890 q 1000 830 920 896 q 1081 637 1081 764 l 1082 -63 q 776 -260 1079 -261 l 498 -260 l 498 -23 l 511 -23 q 622 45 621 -25 z "},"Ō":{"ha":1126,"x_min":34,"x_max":1092,"o":"m 504 799 l 504 329 q 518 267 504 286 q 563 249 531 249 q 608 267 594 249 q 622 329 622 286 l 622 799 q 562 881 622 881 q 517 861 531 881 q 504 799 504 842 m 316 -8 q 185 6 238 -8 q 97 53 131 21 q 49 137 64 86 q 34 262 34 189 l 34 895 q 101 1078 34 1021 q 316 1135 169 1135 l 798 1135 q 933 1122 877 1135 q 1024 1079 988 1108 q 1076 1004 1059 1050 q 1092 895 1092 958 l 1092 262 q 1027 52 1092 113 q 938 6 996 21 q 798 -8 881 -8 l 316 -8 m 837 1400 l 837 1228 l 289 1228 l 289 1400 l 837 1400 z "},"ō":{"ha":1125,"x_min":34,"x_max":1092,"o":"m 498 649 l 498 237 q 562 169 498 169 q 611 185 595 169 q 626 237 626 201 l 626 649 q 562 717 626 717 q 513 701 529 717 q 498 649 498 685 m 34 686 q 50 782 34 743 q 101 844 66 821 q 195 878 136 868 q 337 889 253 889 l 787 889 q 929 878 871 889 q 1024 844 987 868 q 1076 780 1060 819 q 1092 686 1092 742 l 1092 201 q 1076 106 1092 144 q 1024 44 1060 68 q 929 9 987 19 q 787 -1 871 -1 l 337 -1 q 195 9 253 -1 q 101 43 136 19 q 50 105 66 66 q 34 201 34 144 l 34 686 m 837 1150 l 837 978 l 289 978 l 289 1150 l 837 1150 z "},"Ŏ":{"ha":1126,"x_min":34,"x_max":1092,"o":"m 504 799 l 504 329 q 518 267 504 286 q 563 249 531 249 q 608 267 594 249 q 622 329 622 286 l 622 799 q 562 881 622 881 q 517 861 531 881 q 504 799 504 842 m 316 -8 q 185 6 238 -8 q 97 53 131 21 q 49 137 64 86 q 34 262 34 189 l 34 895 q 101 1078 34 1021 q 316 1135 169 1135 l 798 1135 q 933 1122 877 1135 q 1024 1079 988 1108 q 1076 1004 1059 1050 q 1092 895 1092 958 l 1092 262 q 1027 52 1092 113 q 938 6 996 21 q 798 -8 881 -8 l 316 -8 m 804 1465 q 805 1463 805 1462 q 786 1369 805 1414 q 734 1292 767 1326 q 657 1240 701 1259 q 563 1221 612 1221 q 469 1240 514 1221 q 392 1292 426 1259 q 340 1369 358 1326 q 321 1463 321 1414 q 321 1465 321 1462 l 491 1465 q 529 1403 496 1418 q 596 1403 563 1388 q 634 1465 630 1418 l 804 1465 z "},"ŏ":{"ha":1125,"x_min":34,"x_max":1092,"o":"m 499 649 l 499 237 q 563 169 499 169 q 612 185 596 169 q 627 237 627 201 l 627 649 q 563 717 627 717 q 514 701 530 717 q 499 649 499 685 m 34 686 q 50 782 34 743 q 101 844 66 821 q 195 878 136 868 q 337 889 253 889 l 787 889 q 929 878 871 889 q 1024 844 987 868 q 1076 780 1060 819 q 1092 686 1092 742 l 1092 201 q 1076 106 1092 144 q 1024 44 1060 68 q 929 9 987 19 q 787 -1 871 -1 l 337 -1 q 195 9 253 -1 q 101 43 136 19 q 50 105 66 66 q 34 201 34 144 l 34 686 m 804 1223 q 805 1221 804 1220 q 786 1127 804 1172 q 733 1050 767 1084 q 656 998 700 1017 q 563 979 612 979 q 468 998 513 979 q 392 1050 425 1017 q 340 1127 358 1084 q 321 1221 321 1172 q 321 1223 321 1220 l 491 1223 q 529 1161 496 1176 q 596 1161 563 1146 q 634 1223 629 1176 l 804 1223 z "},"Ő":{"ha":1126,"x_min":34,"x_max":1092,"o":"m 504 799 l 504 329 q 518 267 504 286 q 563 249 531 249 q 608 267 594 249 q 622 329 622 286 l 622 799 q 562 881 622 881 q 517 861 531 881 q 504 799 504 842 m 316 -8 q 185 6 238 -8 q 97 53 131 21 q 49 137 64 86 q 34 262 34 189 l 34 895 q 101 1078 34 1021 q 316 1135 169 1135 l 798 1135 q 933 1122 877 1135 q 1024 1079 988 1108 q 1076 1004 1059 1050 q 1092 895 1092 958 l 1092 262 q 1027 52 1092 113 q 938 6 996 21 q 798 -8 881 -8 l 316 -8 m 908 1520 l 817 1223 l 604 1223 l 696 1520 l 908 1520 m 614 1520 l 523 1223 l 310 1223 l 402 1520 l 614 1520 z "},"ő":{"ha":1125,"x_min":34,"x_max":1092,"o":"m 498 649 l 498 237 q 562 169 498 169 q 611 185 595 169 q 626 237 626 201 l 626 649 q 562 717 626 717 q 513 701 529 717 q 498 649 498 685 m 34 686 q 50 782 34 743 q 101 844 66 821 q 195 878 136 868 q 337 889 253 889 l 787 889 q 929 878 871 889 q 1024 844 987 868 q 1076 780 1060 819 q 1092 686 1092 742 l 1092 201 q 1076 106 1092 144 q 1024 44 1060 68 q 929 9 987 19 q 787 -1 871 -1 l 337 -1 q 195 9 253 -1 q 101 43 136 19 q 50 105 66 66 q 34 201 34 144 l 34 686 m 899 1276 l 806 979 l 594 979 l 686 1276 l 899 1276 m 605 1276 l 512 979 l 300 979 l 392 1276 l 605 1276 z "},"Ŕ":{"ha":1113,"x_min":34,"x_max":1079,"o":"m 803 1492 l 656 1220 l 437 1220 l 584 1492 l 803 1492 m 556 873 l 494 873 l 494 648 l 554 648 q 604 666 589 648 q 619 729 619 685 l 619 792 q 604 855 619 836 q 556 873 590 873 m 494 328 l 494 0 l 34 0 l 34 1128 l 787 1128 q 921 1114 866 1128 q 1012 1071 977 1100 q 1063 995 1047 1042 q 1079 885 1079 949 l 1079 665 q 1014 453 1079 512 q 946 414 988 429 q 1076 0 1076 327 l 616 0 q 494 328 615 328 z "},"ŕ":{"ha":762,"x_min":34,"x_max":728,"o":"m 34 0 l 34 887 l 480 887 l 480 818 q 728 888 557 901 l 728 637 q 494 474 507 635 l 494 0 l 34 0 m 564 1250 l 417 978 l 198 978 l 345 1250 l 564 1250 z "},"Ŗ":{"ha":1113,"x_min":34,"x_max":1079,"o":"m 556 873 l 494 873 l 494 648 l 554 648 q 604 666 589 648 q 619 729 619 685 l 619 792 q 604 855 619 836 q 556 873 590 873 m 494 328 l 494 0 l 34 0 l 34 1128 l 787 1128 q 921 1114 866 1128 q 1012 1071 977 1100 q 1063 995 1047 1042 q 1079 885 1079 949 l 1079 665 q 1014 453 1079 512 q 946 414 988 429 q 1076 0 1076 327 l 616 0 q 494 328 615 328 m 511 -413 l 569 -312 l 413 -312 l 413 -85 l 683 -85 l 683 -312 l 621 -413 l 511 -413 z "},"ŗ":{"ha":762,"x_min":34,"x_max":728,"o":"m 34 0 l 34 887 l 480 887 l 480 818 q 728 888 557 901 l 728 637 q 494 474 507 635 l 494 0 l 34 0 m 217 -413 l 275 -312 l 119 -312 l 119 -85 l 389 -85 l 389 -312 l 327 -413 l 217 -413 z "},"Ř":{"ha":1113,"x_min":34,"x_max":1079,"o":"m 556 873 l 494 873 l 494 648 l 554 648 q 604 666 589 648 q 619 729 619 685 l 619 792 q 604 855 619 836 q 556 873 590 873 m 494 328 l 494 0 l 34 0 l 34 1128 l 787 1128 q 921 1114 866 1128 q 1012 1071 977 1100 q 1063 995 1047 1042 q 1079 885 1079 949 l 1079 665 q 1014 453 1079 512 q 946 414 988 429 q 1076 0 1076 327 l 616 0 q 494 328 615 328 m 812 1497 l 636 1223 l 636 1222 l 461 1223 l 285 1497 l 484 1497 l 549 1393 l 613 1497 l 812 1497 z "},"ř":{"ha":782,"x_min":54,"x_max":748,"o":"m 54 0 l 54 887 l 500 887 l 500 818 q 748 888 577 901 l 748 637 q 514 474 527 635 l 514 0 l 54 0 m 665 1254 l 489 980 l 489 980 l 314 980 l 138 1254 l 336 1254 l 401 1151 l 466 1254 l 665 1254 z "},"Ś":{"ha":1134,"x_min":34,"x_max":1100,"o":"m 326 0 q 107 52 181 0 q 37 227 34 105 l 37 424 l 513 424 l 513 348 q 571 270 513 270 q 616 289 602 270 q 630 354 630 309 q 627 397 630 380 q 616 426 625 413 q 592 447 608 438 q 550 466 576 456 l 227 586 q 76 674 114 627 q 37 806 37 724 l 37 923 q 110 1076 37 1024 q 329 1127 184 1127 l 808 1127 q 1027 1076 954 1127 q 1100 923 1100 1024 l 1100 794 l 627 794 l 627 807 q 566 882 627 882 q 526 867 541 882 q 510 828 510 852 q 513 807 510 815 q 524 790 515 798 q 550 773 533 782 q 594 754 566 764 l 970 608 q 1030 575 1006 594 q 1071 529 1055 556 q 1094 465 1087 502 q 1100 376 1100 427 l 1100 255 q 1028 56 1098 112 q 806 0 958 0 l 326 0 m 812 1493 l 666 1221 l 447 1221 l 593 1493 l 812 1493 z "},"ś":{"ha":1127,"x_min":34,"x_max":1094,"o":"m 1094 200 q 1077 105 1093 143 q 1025 42 1061 66 q 931 8 989 18 q 788 -3 872 -3 l 338 -3 q 195 8 253 -3 q 101 42 136 18 q 50 104 65 65 q 34 200 34 143 l 34 309 l 499 309 l 499 236 q 563 168 499 168 q 612 184 596 168 q 627 236 627 200 l 627 259 q 520 347 627 319 l 253 412 q 85 483 128 444 q 42 602 42 522 l 42 685 q 58 781 42 742 q 110 843 74 820 q 204 877 146 867 q 348 887 263 887 l 788 887 q 931 877 872 887 q 1025 842 989 867 q 1077 779 1061 818 q 1093 685 1093 741 l 1094 625 l 632 625 l 632 648 q 568 715 632 715 q 523 702 541 715 q 505 666 505 688 q 509 641 505 652 q 526 620 513 630 q 564 601 539 610 q 631 583 589 592 l 831 532 q 1039 445 986 492 q 1094 307 1094 399 l 1094 200 m 807 1252 l 661 980 l 441 980 l 588 1252 l 807 1252 z "},"Ŝ":{"ha":1134,"x_min":34,"x_max":1100,"o":"m 326 0 q 107 52 181 0 q 37 227 34 105 l 37 424 l 513 424 l 513 348 q 571 270 513 270 q 616 289 602 270 q 630 354 630 309 q 627 397 630 380 q 616 426 625 413 q 592 447 608 438 q 550 466 576 456 l 227 586 q 76 674 114 627 q 37 806 37 724 l 37 923 q 110 1076 37 1024 q 329 1127 184 1127 l 808 1127 q 1027 1076 954 1127 q 1100 923 1100 1024 l 1100 794 l 627 794 l 627 807 q 566 882 627 882 q 526 867 541 882 q 510 828 510 852 q 513 807 510 815 q 524 790 515 798 q 550 773 533 782 q 594 754 566 764 l 970 608 q 1030 575 1006 594 q 1071 529 1055 556 q 1094 465 1087 502 q 1100 376 1100 427 l 1100 255 q 1028 56 1098 112 q 806 0 958 0 l 326 0 m 633 1221 l 568 1325 l 504 1221 l 305 1221 l 481 1495 l 656 1495 l 656 1495 l 832 1221 l 633 1221 z "},"ŝ":{"ha":1127,"x_min":34,"x_max":1094,"o":"m 1094 200 q 1077 105 1093 143 q 1025 42 1061 66 q 931 8 989 18 q 788 -3 872 -3 l 338 -3 q 195 8 253 -3 q 101 42 136 18 q 50 104 65 65 q 34 200 34 143 l 34 309 l 499 309 l 499 236 q 563 168 499 168 q 612 184 596 168 q 627 236 627 200 l 627 259 q 520 347 627 319 l 253 412 q 85 483 128 444 q 42 602 42 522 l 42 685 q 58 781 42 742 q 110 843 74 820 q 204 877 146 867 q 348 887 263 887 l 788 887 q 931 877 872 887 q 1025 842 989 867 q 1077 779 1061 818 q 1093 685 1093 741 l 1094 625 l 632 625 l 632 648 q 568 715 632 715 q 523 702 541 715 q 505 666 505 688 q 509 641 505 652 q 526 620 513 630 q 564 601 539 610 q 631 583 589 592 l 831 532 q 1039 445 986 492 q 1094 307 1094 399 l 1094 200 m 645 980 l 580 1084 l 515 980 l 317 980 l 493 1254 l 668 1254 l 668 1254 l 844 980 l 645 980 z "},"Ţ":{"ha":1041,"x_min":34,"x_max":1007,"o":"m 281 0 l 281 871 l 34 871 l 34 1128 l 1007 1128 l 1007 871 l 760 871 l 760 0 l 281 0 m 483 -413 l 541 -312 l 386 -312 l 386 -85 l 655 -85 l 655 -312 l 593 -413 l 483 -413 z "},"ţ":{"ha":773,"x_min":34,"x_max":740,"o":"m 152 777 l 152 1128 l 612 1128 l 612 777 l 740 777 l 740 607 l 612 607 l 612 0 l 152 0 l 152 607 l 34 607 l 34 777 l 152 777 m 349 -413 l 408 -312 l 252 -312 l 252 -85 l 522 -85 l 522 -312 l 460 -413 l 349 -413 z "},"Ť":{"ha":1041,"x_min":34,"x_max":1007,"o":"m 281 0 l 281 871 l 34 871 l 34 1128 l 1007 1128 l 1007 871 l 760 871 l 760 0 l 281 0 m 784 1497 l 608 1223 l 608 1222 l 433 1223 l 257 1497 l 456 1497 l 520 1393 l 585 1497 l 784 1497 z "},"ť":{"ha":998,"x_min":34,"x_max":964,"o":"m 152 777 l 152 1128 l 612 1128 l 612 777 l 740 777 l 740 607 l 612 607 l 612 0 l 152 0 l 152 607 l 34 607 l 34 777 l 152 777 m 751 723 l 823 849 l 702 849 l 702 1128 l 964 1128 l 964 849 l 887 723 l 751 723 z "},"Ŧ":{"ha":1041,"x_min":34,"x_max":1007,"o":"m 760 478 l 760 0 l 281 0 l 281 478 l 216 478 l 216 650 l 281 650 l 281 871 l 34 871 l 34 1128 l 1007 1128 l 1007 871 l 760 871 l 760 650 l 825 650 l 825 478 l 760 478 z "},"ŧ":{"ha":773,"x_min":34,"x_max":740,"o":"m 152 537 l 152 607 l 34 607 l 34 777 l 152 777 l 152 1128 l 612 1128 l 612 777 l 740 777 l 740 607 l 612 607 l 612 537 l 691 537 l 691 365 l 612 365 l 612 0 l 152 0 l 152 365 l 82 365 l 83 537 l 152 537 z "},"Ũ":{"ha":1126,"x_min":34,"x_max":1093,"o":"m 622 1135 l 1093 1135 l 1092 895 l 1092 262 q 1027 52 1092 113 q 938 6 996 21 q 798 -8 880 -8 l 315 -8 q 184 6 238 -8 q 97 53 131 21 q 49 137 64 86 q 34 262 34 189 l 34 1135 l 315 1135 l 504 1135 l 504 329 q 517 267 504 286 q 562 249 531 249 q 607 267 593 249 q 622 329 622 286 l 622 1135 m 909 1350 q 687 1217 807 1217 q 534 1261 628 1217 q 467 1280 492 1280 q 347 1213 416 1280 l 251 1340 q 465 1454 356 1454 q 607 1416 527 1454 q 684 1391 659 1391 q 813 1476 740 1391 l 909 1350 z "},"ũ":{"ha":1124,"x_min":34,"x_max":1090,"o":"m 1090 890 l 1090 0 l 356 1 q 115 64 196 1 q 34 254 34 127 l 34 890 l 497 890 l 497 269 q 562 201 497 201 q 611 217 595 201 q 626 269 626 233 l 626 890 l 1090 890 m 913 1107 q 691 974 812 974 q 538 1018 633 974 q 471 1037 496 1037 q 351 970 420 1037 l 256 1097 q 469 1211 360 1211 q 611 1173 531 1211 q 688 1148 663 1148 q 818 1233 744 1148 l 913 1107 z "},"Ū":{"ha":1126,"x_min":34,"x_max":1093,"o":"m 622 1135 l 1093 1135 l 1092 895 l 1092 262 q 1027 52 1092 113 q 938 6 996 21 q 798 -8 880 -8 l 315 -8 q 184 6 238 -8 q 97 53 131 21 q 49 137 64 86 q 34 262 34 189 l 34 1135 l 315 1135 l 504 1135 l 504 329 q 517 267 504 286 q 562 249 531 249 q 607 267 593 249 q 622 329 622 286 l 622 1135 m 824 1398 l 824 1226 l 276 1226 l 276 1398 l 824 1398 z "},"ū":{"ha":1124,"x_min":34,"x_max":1090,"o":"m 1090 890 l 1090 0 l 356 1 q 115 64 196 1 q 34 254 34 127 l 34 890 l 497 890 l 497 269 q 562 201 497 201 q 611 217 595 201 q 626 269 626 233 l 626 890 l 1090 890 m 836 1151 l 836 979 l 288 979 l 288 1151 l 836 1151 z "},"Ŭ":{"ha":1126,"x_min":34,"x_max":1093,"o":"m 622 1135 l 1093 1135 l 1092 895 l 1092 262 q 1027 52 1092 113 q 938 6 996 21 q 798 -8 880 -8 l 315 -8 q 184 6 238 -8 q 97 53 131 21 q 49 137 64 86 q 34 262 34 189 l 34 1135 l 315 1135 l 504 1135 l 504 329 q 517 267 504 286 q 562 249 531 249 q 607 267 593 249 q 622 329 622 286 l 622 1135 m 805 1465 q 805 1463 805 1462 q 786 1369 805 1414 q 734 1292 767 1325 q 657 1240 701 1258 q 563 1221 612 1221 q 469 1240 514 1221 q 392 1292 426 1258 q 341 1369 359 1325 q 322 1463 321 1414 q 321 1465 321 1462 l 492 1465 q 530 1403 496 1418 q 597 1403 563 1388 q 635 1465 630 1418 l 805 1465 z "},"ŭ":{"ha":1124,"x_min":34,"x_max":1090,"o":"m 1090 890 l 1090 0 l 356 1 q 115 64 196 1 q 34 254 34 127 l 34 890 l 497 890 l 497 269 q 562 201 497 201 q 611 217 595 201 q 626 269 626 233 l 626 890 l 1090 890 m 804 1223 q 804 1221 804 1220 q 785 1127 804 1172 q 733 1050 766 1084 q 656 998 700 1017 q 562 979 611 979 q 468 998 513 979 q 391 1050 425 1017 q 340 1127 358 1084 q 321 1221 320 1172 q 320 1223 320 1220 l 491 1223 q 529 1161 495 1176 q 596 1161 562 1146 q 634 1223 629 1176 l 804 1223 z "},"Ů":{"ha":1126,"x_min":34,"x_max":1093,"o":"m 622 1135 l 1093 1135 l 1092 895 l 1092 262 q 1027 52 1092 113 q 938 6 996 21 q 798 -8 880 -8 l 315 -8 q 184 6 238 -8 q 97 53 131 21 q 49 137 64 86 q 34 262 34 189 l 34 1135 l 315 1135 l 504 1135 l 504 329 q 517 267 504 286 q 562 249 531 249 q 607 267 593 249 q 622 329 622 286 l 622 1135 m 549 1606 q 687 1548 630 1606 q 743 1413 743 1492 q 685 1277 743 1334 q 549 1221 629 1221 q 413 1277 469 1221 q 357 1413 357 1333 q 413 1548 357 1492 q 549 1606 470 1606 m 549 1478 q 504 1459 523 1478 q 485 1413 485 1440 q 504 1368 485 1387 q 550 1349 523 1349 q 595 1368 576 1349 q 614 1413 614 1387 q 596 1459 614 1440 q 549 1478 576 1478 z "},"ů":{"ha":1124,"x_min":34,"x_max":1090,"o":"m 1090 890 l 1090 0 l 356 1 q 115 64 196 1 q 34 254 34 127 l 34 890 l 497 890 l 497 269 q 562 201 497 201 q 611 217 595 201 q 626 269 626 233 l 626 890 l 1090 890 m 562 1364 q 699 1307 642 1364 q 755 1172 755 1251 q 698 1036 755 1093 q 562 980 642 980 q 425 1036 481 980 q 369 1172 369 1092 q 425 1307 369 1251 q 562 1364 483 1364 m 562 1237 q 516 1218 535 1237 q 497 1172 497 1199 q 516 1126 497 1145 q 562 1107 535 1107 q 608 1126 589 1107 q 627 1172 627 1146 q 608 1218 627 1199 q 562 1237 589 1237 z "},"Ű":{"ha":1126,"x_min":34,"x_max":1093,"o":"m 622 1135 l 1093 1135 l 1092 895 l 1092 262 q 1027 52 1092 113 q 938 6 996 21 q 798 -8 880 -8 l 315 -8 q 184 6 238 -8 q 97 53 131 21 q 49 137 64 86 q 34 262 34 189 l 34 1135 l 315 1135 l 504 1135 l 504 329 q 517 267 504 286 q 562 249 531 249 q 607 267 593 249 q 622 329 622 286 l 622 1135 m 890 1518 l 798 1221 l 586 1221 l 677 1518 l 890 1518 m 596 1518 l 504 1221 l 292 1221 l 383 1518 l 596 1518 z "},"ű":{"ha":1124,"x_min":34,"x_max":1090,"o":"m 1090 890 l 1090 0 l 356 1 q 115 64 196 1 q 34 254 34 127 l 34 890 l 497 890 l 497 269 q 562 201 497 201 q 611 217 595 201 q 626 269 626 233 l 626 890 l 1090 890 m 904 1276 l 812 979 l 600 979 l 691 1276 l 904 1276 m 610 1276 l 518 979 l 306 979 l 397 1276 l 610 1276 z "},"Ų":{"ha":1126,"x_min":34,"x_max":1093,"o":"m 449 -8 l 315 -8 q 184 6 238 -8 q 97 53 131 21 q 49 137 64 86 q 34 262 34 189 l 34 1135 l 315 1135 l 504 1135 l 504 329 q 517 267 504 286 q 562 249 531 249 q 607 267 593 249 q 622 329 622 286 l 622 1135 l 1093 1135 l 1092 895 l 1092 262 q 1027 52 1092 113 q 938 6 996 21 q 798 -8 880 -8 q 609 -73 666 -24 q 539 -190 534 -142 q 614 -251 544 -237 q 727 -251 674 -262 l 727 -356 q 542 -406 658 -385 q 282 -402 352 -428 q 209 -329 222 -380 q 230 -214 197 -279 q 336 -84 263 -148 q 449 -8 382 -43 z "},"ų":{"ha":1124,"x_min":34,"x_max":1090,"o":"m 786 0 l 356 1 q 115 64 196 1 q 34 254 34 127 l 34 890 l 497 890 l 497 269 q 562 201 497 201 q 611 217 595 201 q 626 269 626 233 l 626 890 l 1090 890 l 1090 0 q 951 -86 998 -39 q 901 -180 897 -142 q 955 -229 904 -218 q 1039 -232 998 -238 l 1039 -317 q 793 -365 910 -360 q 626 -349 677 -370 q 574 -290 583 -332 q 589 -198 565 -250 q 665 -93 613 -144 q 786 0 721 -38 z "},"Ŵ":{"ha":1672,"x_min":34,"x_max":1638,"o":"m 1004 1128 l 1095 612 l 1180 1128 l 1638 1128 l 1400 1 l 934 1 l 836 478 l 737 1 l 271 1 l 34 1128 l 493 1128 l 577 612 l 668 1128 l 1004 1128 m 914 1223 l 849 1326 l 784 1223 l 586 1223 l 762 1497 l 937 1497 l 937 1497 l 1113 1223 l 914 1223 z "},"ŵ":{"ha":1703,"x_min":34,"x_max":1669,"o":"m 916 980 l 851 1084 l 787 980 l 588 980 l 764 1254 l 939 1254 l 939 1254 l 1115 980 l 916 980 m 1669 1 l 1669 890 l 1206 890 l 1206 269 q 1145 201 1206 203 q 1085 269 1085 203 l 1085 890 l 618 890 l 618 269 q 558 201 618 203 q 497 269 497 203 l 497 890 l 34 890 l 34 254 q 115 64 34 127 q 356 1 196 1 l 1669 1 z "},"Ŷ":{"ha":1222,"x_min":34,"x_max":1188,"o":"m 378 1 l 378 427 l 34 1128 l 487 1128 l 611 858 l 735 1128 l 1188 1128 l 843 427 l 843 1 l 378 1 m 676 1221 l 611 1325 l 546 1221 l 348 1221 l 524 1495 l 699 1495 l 699 1495 l 874 1221 l 676 1221 z "},"ŷ":{"ha":1122,"x_min":34,"x_max":1088,"o":"m 628 890 l 1088 890 l 1088 -25 q 1072 -147 1088 -108 q 1020 -210 1056 -186 q 926 -245 984 -235 q 784 -256 869 -256 l 85 -256 l 85 -86 l 517 -86 q 605 -75 581 -86 q 631 -4 629 -64 q 459 -5 527 -5 l 355 -5 q 114 61 195 -5 q 34 254 34 128 l 34 890 l 498 890 l 498 270 q 513 217 498 233 q 565 201 528 201 q 613 217 598 201 q 629 270 628 233 l 628 890 m 637 980 l 572 1084 l 507 980 l 309 980 l 485 1254 l 660 1254 l 660 1254 l 836 980 l 637 980 z "},"Ź":{"ha":960,"x_min":34,"x_max":926,"o":"m 926 1128 l 926 892 l 586 258 l 926 258 l 926 1 l 34 1 l 34 242 l 373 871 l 64 871 l 64 1128 l 926 1128 m 724 1493 l 577 1221 l 358 1221 l 505 1493 l 724 1493 z "},"ź":{"ha":926,"x_min":34,"x_max":892,"o":"m 34 0 l 34 162 l 367 704 l 66 704 l 66 890 l 870 890 l 870 726 l 537 182 l 892 182 l 892 0 l 34 0 m 707 1252 l 560 980 l 341 980 l 488 1252 l 707 1252 z "},"Ż":{"ha":960,"x_min":34,"x_max":926,"o":"m 926 1128 l 926 892 l 586 258 l 926 258 l 926 1 l 34 1 l 34 242 l 373 871 l 64 871 l 64 1128 l 926 1128 m 623 1461 l 337 1461 l 337 1221 l 623 1221 l 623 1461 z "},"ż":{"ha":926,"x_min":34,"x_max":892,"o":"m 34 0 l 34 162 l 367 704 l 66 704 l 66 890 l 870 890 l 870 726 l 537 182 l 892 182 l 892 0 l 34 0 m 606 1220 l 320 1220 l 320 980 l 606 980 l 606 1220 z "},"ſ":{"ha":651,"x_min":34,"x_max":617,"o":"m 34 925 q 50 1021 34 982 q 101 1083 66 1060 q 195 1117 137 1107 q 339 1128 253 1128 l 617 1128 l 617 890 l 605 890 q 517 879 541 890 q 494 842 494 868 l 494 0 l 34 0 l 34 925 z "},"Ǻ":{"ha":1179,"x_min":34,"x_max":1145,"o":"m 589 1339 q 544 1320 563 1339 q 525 1275 525 1301 q 544 1229 525 1248 q 589 1210 563 1210 q 635 1229 616 1210 q 654 1275 654 1248 q 635 1320 654 1301 q 589 1339 616 1339 m 714 1128 l 930 1128 l 1145 0 l 685 0 l 657 244 l 520 244 l 493 0 l 34 0 l 249 1128 l 464 1128 q 453 1139 458 1133 q 397 1275 397 1195 q 453 1410 397 1354 q 589 1467 510 1467 q 726 1410 669 1467 q 783 1275 783 1354 q 725 1138 783 1196 q 714 1128 720 1133 m 838 1792 l 691 1520 l 472 1520 l 618 1792 l 838 1792 m 549 493 l 630 493 l 589 877 l 549 493 z "},"ǻ":{"ha":1122,"x_min":34,"x_max":1088,"o":"m 635 257 l 635 395 l 573 374 q 511 338 528 359 q 494 277 494 317 l 494 257 q 563 186 494 186 q 617 203 599 186 q 635 257 635 220 m 561 1122 q 515 1103 534 1122 q 496 1058 496 1084 q 515 1012 496 1031 q 561 993 534 993 q 607 1012 588 993 q 626 1058 626 1031 q 607 1103 626 1084 q 561 1122 588 1122 m 656 890 l 783 890 q 926 880 867 890 q 1020 845 984 869 q 1072 782 1057 821 q 1088 687 1088 743 l 1088 0 l 359 0 q 124 62 203 -3 q 34 303 44 126 q 355 574 57 567 l 632 574 l 632 652 q 616 708 633 693 q 563 723 599 723 q 511 707 527 723 q 495 652 495 690 l 495 623 l 49 623 l 50 687 q 65 783 50 744 q 117 846 81 822 q 212 880 153 869 q 355 890 270 890 l 465 890 q 425 922 443 903 q 368 1058 368 978 q 424 1193 369 1137 q 561 1250 481 1250 q 698 1193 641 1250 q 754 1058 754 1137 q 697 921 754 979 q 656 890 678 903 m 816 1560 l 670 1288 l 451 1288 l 597 1560 l 816 1560 z "},"Ǽ":{"ha":1604,"x_min":34,"x_max":1570,"o":"m 603 493 l 704 493 l 706 874 l 603 493 m 688 0 l 689 244 l 552 244 l 493 0 l 34 0 l 396 1128 l 1570 1128 l 1570 871 l 1124 871 l 1124 747 l 1528 747 l 1528 490 l 1124 490 l 1124 257 l 1570 257 l 1570 0 l 688 0 m 1143 1495 l 997 1223 l 778 1223 l 924 1495 l 1143 1495 z "},"ǽ":{"ha":1729,"x_min":34,"x_max":1695,"o":"m 635 257 l 635 395 l 573 374 q 511 338 528 359 q 494 277 494 317 l 494 257 q 563 186 494 186 q 617 203 599 186 q 635 257 635 220 m 1097 648 l 1097 577 l 1235 577 l 1234 648 q 1165 723 1234 723 q 1113 705 1129 723 q 1097 648 1097 688 m 359 0 q 124 62 203 -3 q 34 303 44 126 q 355 574 39 538 l 632 573 l 632 652 q 616 708 633 693 q 563 723 599 723 q 511 707 527 723 q 495 652 495 690 l 495 623 l 49 623 l 50 687 q 65 783 50 744 q 117 846 81 822 q 212 880 153 869 q 355 890 270 890 l 1390 890 q 1533 877 1475 887 q 1627 842 1591 867 q 1679 779 1664 818 q 1695 685 1695 741 l 1695 417 l 1101 417 l 1101 236 q 1165 168 1101 168 q 1214 184 1198 168 q 1229 236 1229 200 l 1229 350 l 1695 350 l 1695 200 q 1679 105 1695 143 q 1627 42 1664 66 q 1533 9 1591 18 q 1390 1 1475 1 l 359 0 m 1108 1251 l 962 979 l 743 979 l 889 1251 l 1108 1251 z "},"Ǿ":{"ha":1126,"x_min":34,"x_max":1092,"o":"m 622 626 l 504 370 l 504 329 q 518 267 504 286 q 563 249 531 249 q 608 267 594 249 q 622 329 622 286 l 622 626 m 786 1126 l 834 1232 l 905 1232 l 855 1124 q 933 1114 898 1121 q 1024 1071 988 1100 q 1076 996 1059 1042 q 1092 886 1092 950 l 1092 262 q 1027 52 1092 113 q 938 6 996 21 q 798 -8 881 -8 l 330 -8 l 281 -114 l 211 -114 l 260 -6 q 185 6 218 -3 q 97 53 131 21 q 49 137 64 86 q 34 262 34 189 l 34 886 q 101 1070 34 1013 q 316 1126 169 1126 l 786 1126 m 504 523 l 622 778 l 622 799 q 562 881 622 881 q 517 861 531 881 q 504 799 504 842 l 504 523 m 807 1495 l 660 1223 l 441 1223 l 588 1495 l 807 1495 z "},"ǿ":{"ha":1127,"x_min":34,"x_max":1094,"o":"m 276 0 q 195 9 230 3 q 101 43 137 19 q 50 106 65 67 q 34 201 34 144 l 34 688 q 50 783 34 744 q 101 846 66 822 q 195 880 137 869 q 338 890 253 890 l 765 890 l 833 1014 l 900 1014 l 832 890 q 931 880 888 888 q 1026 845 989 869 q 1077 782 1062 821 q 1094 688 1093 743 l 1094 201 q 1077 106 1093 144 q 1025 44 1061 68 q 931 9 989 19 q 788 -1 873 -1 l 342 -1 l 284 -107 l 217 -107 l 276 0 m 627 517 l 499 284 l 499 237 q 563 170 499 170 q 612 185 596 170 q 627 237 627 201 l 627 517 m 499 406 l 627 638 l 627 650 q 563 718 627 718 q 514 702 530 718 q 499 650 499 686 l 499 406 m 807 1251 l 661 979 l 441 979 l 588 1251 l 807 1251 z "},"΄":{"ha":433,"x_min":34,"x_max":399,"o":"m 399 1494 l 253 1222 l 34 1222 l 180 1494 l 399 1494 z "},"΅":{"ha":815,"x_min":34,"x_max":781,"o":"m 602 1659 l 520 1287 l 315 1287 l 397 1659 l 602 1659 m 320 1223 l 34 1223 l 34 983 l 320 983 l 320 1223 m 781 1223 l 495 1223 l 495 983 l 781 983 l 781 1223 z "},"·":{"ha":401,"x_min":34,"x_max":367,"o":"m 367 704 l 34 704 l 34 425 l 367 425 l 367 704 z "},"ΐ":{"ha":526,"x_min":-109,"x_max":638,"o":"m 34 0 l 34 890 l 492 890 l 492 0 l 34 0 m 459 1659 l 378 1287 l 172 1287 l 254 1659 l 459 1659 m 177 1223 l -109 1223 l -109 983 l 177 983 l 177 1223 m 638 1223 l 352 1223 l 352 983 l 638 983 l 638 1223 z "},"Ё":{"ha":898,"x_min":34,"x_max":864,"o":"m 34 0 l 34 1128 l 864 1128 l 864 871 l 489 871 l 489 693 l 822 693 l 822 436 l 489 436 l 489 257 l 864 257 l 864 0 l 34 0 m 372 1223 l 85 1223 l 85 1462 l 372 1462 l 372 1223 m 833 1223 l 547 1223 l 547 1462 l 833 1462 l 833 1223 z "},"Ђ":{"ha":1464,"x_min":34,"x_max":1430,"o":"m 760 596 l 760 0 l 281 0 l 281 871 l 34 871 l 34 1128 l 1007 1128 l 1007 871 l 760 871 l 760 785 l 1124 785 q 1267 774 1209 785 q 1362 741 1326 764 q 1414 679 1398 717 q 1430 588 1430 642 l 1430 196 q 1414 103 1430 140 q 1362 41 1398 65 q 1267 8 1326 18 q 1124 -3 1209 -3 l 848 -3 l 848 186 q 900 165 864 165 q 963 231 963 165 l 963 530 q 948 581 963 566 q 900 596 933 596 l 760 596 z "},"Ѓ":{"ha":794,"x_min":34,"x_max":760,"o":"m 34 0 l 34 1128 l 760 1128 l 760 871 l 512 871 l 512 0 l 34 0 m 630 1494 l 484 1222 l 265 1222 l 411 1494 l 630 1494 z "},"Є":{"ha":1097,"x_min":34,"x_max":1063,"o":"m 491 493 l 491 338 q 505 276 491 295 q 548 256 518 256 q 606 338 606 256 l 606 360 l 1063 360 l 1063 244 q 1047 133 1063 179 q 997 58 1031 87 q 908 15 962 28 q 777 1 854 1 l 308 1 q 100 59 165 1 q 34 244 34 117 l 34 858 q 49 983 34 932 q 96 1066 63 1035 q 181 1113 129 1098 q 308 1127 233 1127 l 777 1127 q 913 1113 857 1127 q 1000 1068 970 1098 q 1063 858 1063 1007 l 1063 771 l 606 771 l 606 791 q 592 855 606 836 q 548 873 578 873 q 504 854 518 873 q 491 791 491 834 l 491 666 l 704 666 l 704 493 l 491 493 z "},"Ѕ":{"ha":1134,"x_min":34,"x_max":1100,"o":"m 326 0 q 107 52 181 0 q 37 227 34 105 l 37 424 l 513 424 l 513 348 q 571 270 513 270 q 616 289 602 270 q 630 354 630 309 q 627 397 630 380 q 616 426 625 413 q 592 447 608 438 q 550 466 576 456 l 227 586 q 76 674 114 627 q 37 806 37 724 l 37 923 q 110 1076 37 1024 q 329 1127 184 1127 l 808 1127 q 1027 1076 954 1127 q 1100 923 1100 1024 l 1100 794 l 627 794 l 627 807 q 566 882 627 882 q 526 867 541 882 q 510 828 510 852 q 513 807 510 815 q 524 790 515 798 q 550 773 533 782 q 594 754 566 764 l 970 608 q 1030 575 1006 594 q 1071 529 1055 556 q 1094 465 1087 502 q 1100 376 1100 427 l 1100 255 q 1028 56 1098 112 q 806 0 958 0 l 326 0 z "},"І":{"ha":526,"x_min":34,"x_max":492,"o":"m 34 0 l 34 1128 l 492 1128 l 492 0 l 34 0 z "},"Ї":{"ha":526,"x_min":-102,"x_max":645,"o":"m 34 0 l 34 1128 l 492 1128 l 492 0 l 34 0 m 184 1223 l -102 1223 l -102 1462 l 184 1462 l 184 1223 m 645 1223 l 359 1223 l 359 1462 l 645 1462 l 645 1223 z "},"Ј":{"ha":1099,"x_min":34,"x_max":1065,"o":"m 1065 1128 l 1065 262 q 1001 51 1065 111 q 772 -8 938 -8 l 316 -8 q 185 6 238 -8 q 97 53 131 21 q 49 137 64 86 q 34 262 34 189 l 34 475 l 484 475 l 484 329 q 498 267 484 286 q 542 249 512 249 q 588 267 574 249 q 603 329 603 286 l 603 1128 l 1065 1128 z "},"Љ":{"ha":1877,"x_min":34,"x_max":1843,"o":"m 1320 165 q 1383 231 1383 165 l 1383 516 q 1368 567 1383 552 q 1320 583 1353 583 l 1257 583 l 1257 231 q 1320 165 1257 165 m 793 3 l 792 1 l 792 859 l 676 859 l 676 333 q 571 104 676 203 q 297 1 466 6 q 34 1 295 1 l 34 263 q 152 270 120 262 q 220 322 220 288 q 222 1128 220 356 l 1247 1128 l 1247 1128 l 1251 1128 l 1251 771 l 1542 771 q 1683 761 1626 771 q 1776 727 1741 751 q 1827 666 1812 704 q 1843 574 1843 628 l 1843 196 q 1827 103 1843 140 q 1776 41 1812 65 q 1626 1 1741 18 l 793 1 l 793 3 z "},"Њ":{"ha":1690,"x_min":34,"x_max":1656,"o":"m 1069 231 q 1132 165 1069 165 q 1195 231 1195 165 l 1195 516 q 1180 567 1195 552 q 1132 583 1165 583 l 1069 583 l 1069 231 m 607 771 l 607 1128 l 1064 1128 l 1064 771 l 1354 771 q 1496 761 1438 771 q 1589 727 1553 751 q 1640 666 1624 704 q 1656 574 1656 628 l 1656 196 q 1640 103 1656 140 q 1589 41 1624 65 q 1438 1 1553 18 l 606 1 l 607 583 l 492 583 l 492 0 l 34 0 l 34 1128 l 492 1128 l 492 771 l 607 771 z "},"Ћ":{"ha":1381,"x_min":34,"x_max":1347,"o":"m 281 0 l 281 871 l 34 871 l 34 1128 l 1007 1128 l 1007 871 l 760 871 l 760 782 l 1028 780 q 1267 714 1186 780 q 1347 522 1347 648 l 1347 0 l 888 0 l 888 510 q 824 577 888 577 q 775 562 790 577 q 760 510 760 546 l 760 0 l 281 0 z "},"Ќ":{"ha":1207,"x_min":34,"x_max":1174,"o":"m 622 928 q 628 1018 622 928 q 707 1128 634 1107 l 1174 1128 q 1089 903 1094 1079 q 966 548 1084 727 l 1128 0 l 658 0 l 491 515 l 491 0 l 34 0 l 34 1126 l 491 1126 l 491 671 q 622 928 609 749 m 851 1494 l 704 1222 l 485 1222 l 632 1494 l 851 1494 z "},"Ў":{"ha":1333,"x_min":34,"x_max":1299,"o":"m 841 1128 l 666 764 l 492 1128 l 34 1128 l 350 373 q 240 256 400 256 l 149 256 l 149 0 l 471 0 q 960 399 768 0 l 1299 1128 l 841 1128 m 905 1466 q 906 1465 906 1464 q 887 1371 906 1415 q 835 1294 868 1327 q 758 1242 802 1260 q 664 1223 713 1223 q 570 1242 615 1223 q 493 1294 527 1260 q 441 1371 459 1327 q 422 1465 422 1415 q 422 1466 422 1464 l 592 1466 q 631 1404 597 1419 q 697 1404 664 1389 q 735 1466 731 1419 l 905 1466 z "},"Џ":{"ha":1099,"x_min":34,"x_max":1065,"o":"m 405 0 l 34 0 l 34 1128 l 491 1128 l 491 255 l 608 255 l 608 1128 l 1065 1128 l 1065 0 l 694 0 l 694 -193 l 405 -193 l 405 0 z "},"А":{"ha":1179,"x_min":34,"x_max":1145,"o":"m 34 0 l 249 1128 l 930 1128 l 1145 0 l 685 0 l 657 244 l 520 244 l 493 0 l 34 0 m 549 493 l 630 493 l 589 877 l 549 493 z "},"Б":{"ha":1130,"x_min":34,"x_max":1096,"o":"m 633 298 q 674 315 657 298 q 692 356 692 332 q 676 397 692 380 q 636 415 660 415 l 489 415 l 489 298 l 632 298 l 632 298 q 633 298 633 298 l 633 298 m 1096 347 q 998 105 1096 206 q 760 1 900 5 l 760 0 l 34 0 l 34 1128 l 935 1128 l 935 871 l 489 871 l 489 693 l 732 693 q 1004 592 905 693 q 1096 347 1096 497 z "},"В":{"ha":1108,"x_min":34,"x_max":1074,"o":"m 492 871 l 492 712 l 543 712 q 594 730 578 712 q 609 791 609 748 q 595 854 609 837 q 543 871 581 871 l 492 871 m 492 259 l 543 259 q 595 276 581 259 q 609 339 609 294 l 609 386 q 595 448 609 430 q 543 466 581 466 l 492 466 l 492 259 m 34 1 l 34 1128 l 776 1128 q 913 1113 856 1128 q 1005 1066 970 1098 q 1057 982 1041 1034 q 1074 860 1074 931 q 1030 688 1074 748 q 883 604 986 628 q 1028 508 983 580 q 1074 291 1074 435 q 1007 66 1074 131 q 776 1 940 1 l 34 1 z "},"Г":{"ha":794,"x_min":34,"x_max":760,"o":"m 34 0 l 34 1128 l 760 1128 l 760 871 l 512 871 l 512 0 l 34 0 z "},"Д":{"ha":1315,"x_min":34,"x_max":1281,"o":"m 699 862 q 607 267 682 510 l 734 267 l 734 862 l 699 862 m 1281 -192 l 1011 -192 l 1011 -14 l 307 -13 l 306 -192 l 34 -192 l 34 253 l 157 253 q 283 1133 272 500 l 1156 1133 l 1156 253 l 1281 253 l 1281 -192 z "},"Е":{"ha":898,"x_min":34,"x_max":864,"o":"m 34 0 l 34 1128 l 864 1128 l 864 871 l 489 871 l 489 693 l 822 693 l 822 436 l 489 436 l 489 257 l 864 257 l 864 0 l 34 0 z "},"Ж":{"ha":1893,"x_min":34,"x_max":1859,"o":"m 1176 1128 l 1176 647 q 1323 884 1310 747 l 1323 944 l 1325 944 q 1392 1129 1336 1078 l 1859 1129 q 1791 942 1802 1049 l 1791 942 q 1746 732 1791 821 q 1623 579 1709 646 l 1813 0 l 1342 0 l 1176 490 l 1176 0 l 717 0 l 717 490 l 550 0 l 79 0 l 270 579 q 147 732 184 671 q 101 942 102 821 l 101 942 q 34 1129 91 1049 l 501 1129 q 568 944 557 1078 l 569 944 l 569 884 q 716 647 583 747 l 717 1128 l 1176 1128 z "},"З":{"ha":1091,"x_min":34,"x_max":1057,"o":"m 1057 244 q 989 59 1057 117 q 776 1 922 1 l 313 1 q 104 56 174 1 q 34 215 34 111 l 34 411 l 493 411 l 493 340 q 506 279 494 298 q 548 259 518 259 q 590 278 577 259 q 603 340 604 297 l 603 406 q 527 487 603 487 l 428 487 l 428 743 l 519 743 q 603 820 603 743 q 587 871 603 851 q 547 891 571 891 q 504 872 520 891 q 488 822 488 852 l 488 801 l 34 801 l 34 914 q 105 1073 34 1018 q 314 1128 176 1128 l 777 1128 q 986 1073 915 1128 q 1057 914 1057 1018 l 1057 840 q 1014 698 1057 752 q 873 610 971 644 q 959 579 925 598 q 1016 529 994 559 q 1048 456 1038 499 q 1057 352 1057 412 l 1057 244 z "},"И":{"ha":1227,"x_min":34,"x_max":1193,"o":"m 733 0 l 733 531 l 511 0 l 34 0 l 34 1128 l 495 1128 l 495 663 l 694 1128 l 1193 1128 l 1193 0 l 733 0 z "},"Й":{"ha":1227,"x_min":34,"x_max":1193,"o":"m 733 0 l 733 531 l 511 0 l 34 0 l 34 1128 l 495 1128 l 495 663 l 694 1128 l 1193 1128 l 1193 0 l 733 0 m 876 1466 q 877 1465 877 1464 q 858 1371 877 1415 q 806 1294 839 1327 q 729 1242 772 1260 q 635 1223 684 1223 q 541 1242 586 1223 q 464 1294 497 1260 q 412 1371 430 1327 q 393 1465 393 1415 q 393 1466 393 1464 l 563 1466 q 601 1404 568 1419 q 668 1404 635 1389 q 706 1466 702 1419 l 876 1466 z "},"К":{"ha":1207,"x_min":34,"x_max":1174,"o":"m 622 928 q 628 1018 622 928 q 707 1128 634 1107 l 1174 1128 q 1089 903 1094 1079 q 966 548 1084 727 l 1128 0 l 658 0 l 491 515 l 491 0 l 34 0 l 34 1126 l 491 1126 l 491 671 q 622 928 609 749 z "},"Л":{"ha":1281,"x_min":34,"x_max":1247,"o":"m 1247 1128 l 1247 1 l 792 1 l 792 859 l 676 859 l 676 333 q 571 104 676 203 q 297 1 467 6 q 34 1 295 1 l 34 263 q 220 391 220 263 l 220 1128 l 1247 1128 z "},"М":{"ha":1520,"x_min":34,"x_max":1486,"o":"m 615 0 l 492 480 l 492 0 l 34 0 l 34 1128 l 611 1128 l 760 676 l 908 1128 l 1486 1128 l 1486 0 l 1027 0 l 1027 480 l 904 0 l 615 0 z "},"Н":{"ha":1099,"x_min":34,"x_max":1065,"o":"m 34 0 l 34 1128 l 491 1128 l 491 746 l 608 746 l 608 1128 l 1065 1128 l 1065 0 l 608 0 l 608 489 l 491 489 l 491 0 l 34 0 z "},"О":{"ha":1126,"x_min":34,"x_max":1092,"o":"m 504 799 l 504 329 q 518 267 504 286 q 563 249 531 249 q 608 267 594 249 q 622 329 622 286 l 622 799 q 562 881 622 881 q 517 861 531 881 q 504 799 504 842 m 316 -8 q 185 6 238 -8 q 97 53 131 21 q 49 137 64 86 q 34 262 34 189 l 34 895 q 101 1078 34 1021 q 316 1135 169 1135 l 798 1135 q 933 1122 877 1135 q 1024 1079 988 1108 q 1076 1004 1059 1050 q 1092 895 1092 958 l 1092 262 q 1027 52 1092 113 q 938 6 996 21 q 798 -8 881 -8 l 316 -8 z "},"П":{"ha":1099,"x_min":34,"x_max":1065,"o":"m 34 0 l 34 1128 l 1065 1128 l 1065 0 l 608 0 l 608 873 l 491 873 l 491 0 l 34 0 z "},"Р":{"ha":1113,"x_min":34,"x_max":1079,"o":"m 556 873 l 494 873 l 494 557 l 554 557 q 604 575 589 557 q 619 637 619 593 l 619 792 q 604 855 619 836 q 556 873 590 873 m 34 0 l 34 1128 l 787 1128 q 921 1114 866 1128 q 1012 1071 977 1100 q 1063 995 1047 1042 q 1079 885 1079 949 l 1079 574 q 1014 361 1079 421 q 787 301 951 301 l 494 301 l 494 0 l 34 0 z "},"С":{"ha":1097,"x_min":34,"x_max":1063,"o":"m 1063 469 l 1063 244 q 1047 133 1063 179 q 997 58 1031 87 q 908 15 963 28 q 777 1 854 1 l 308 1 q 100 59 165 1 q 34 244 34 117 l 34 874 q 49 999 34 948 q 96 1083 64 1051 q 180 1129 128 1115 q 308 1144 233 1144 l 777 1144 q 913 1129 857 1144 q 1000 1084 969 1115 q 1063 874 1063 1023 l 1063 726 l 606 726 l 606 808 q 592 871 606 852 q 548 890 578 890 q 504 870 517 890 q 491 808 491 851 l 491 338 q 504 276 491 295 q 548 256 517 256 q 606 338 606 256 l 606 469 l 1063 469 m 1063 475 l 1063 243 q 1047 132 1063 178 q 997 57 1031 86 q 908 14 963 28 q 777 0 854 0 l 308 0 q 99 58 165 0 q 34 243 34 117 l 34 859 q 49 984 34 932 q 96 1067 64 1035 q 180 1114 128 1099 q 308 1128 233 1128 l 777 1128 q 913 1114 856 1128 q 1000 1068 969 1099 q 1063 859 1063 1007 l 1063 710 l 606 710 l 606 792 q 592 856 606 837 q 548 874 578 874 q 504 855 517 874 q 491 792 491 836 l 491 338 q 504 275 491 294 q 548 256 517 256 q 606 338 606 256 l 606 475 l 1063 475 z "},"Т":{"ha":1041,"x_min":34,"x_max":1007,"o":"m 281 0 l 281 871 l 34 871 l 34 1128 l 1007 1128 l 1007 871 l 760 871 l 760 0 l 281 0 z "},"У":{"ha":1333,"x_min":34,"x_max":1299,"o":"m 841 1128 l 666 764 l 492 1128 l 34 1128 l 350 373 q 240 256 400 256 l 149 256 l 149 0 l 471 0 q 960 399 768 0 l 1299 1128 l 841 1128 z "},"Ф":{"ha":1483,"x_min":34,"x_max":1450,"o":"m 988 1063 l 1157 1063 q 1291 1049 1236 1063 q 1382 1006 1347 1036 q 1433 931 1417 977 q 1450 820 1449 884 l 1449 340 q 1384 127 1449 187 q 1157 67 1321 67 l 988 67 l 988 0 l 526 0 l 526 67 l 327 67 q 99 127 163 67 q 34 340 34 187 l 34 820 q 50 931 34 884 q 102 1006 66 977 q 192 1049 137 1036 q 326 1063 248 1063 l 526 1063 l 526 1128 l 988 1128 l 988 1063 m 526 323 l 526 809 l 465 809 q 418 790 432 809 q 403 727 403 772 l 403 437 q 418 341 403 359 q 468 323 433 323 l 526 323 m 988 809 l 988 323 l 1047 323 q 1096 341 1081 323 q 1111 437 1111 359 l 1111 727 q 1096 790 1111 772 q 1048 809 1082 809 l 988 809 z "},"Х":{"ha":1141,"x_min":34,"x_max":1107,"o":"m 34 0 l 210 567 l 42 1128 l 493 1128 l 571 813 l 649 1128 l 1099 1128 l 932 567 l 1107 0 l 661 0 l 571 393 l 482 0 l 34 0 z "},"Ц":{"ha":1229,"x_min":34,"x_max":1195,"o":"m 1065 257 l 1195 257 l 1195 -193 l 905 -193 l 905 1 l 34 1 l 34 1128 l 491 1128 l 491 255 l 608 255 l 608 1128 l 1065 1128 l 1065 257 z "},"Ч":{"ha":1115,"x_min":34,"x_max":1081,"o":"m 1081 1128 l 1081 0 l 622 0 l 622 237 l 353 239 q 114 305 195 239 q 34 497 34 371 l 34 1128 l 494 1128 l 494 510 q 557 442 494 442 q 606 458 591 442 q 622 510 622 474 l 622 1128 l 1081 1128 z "},"Ш":{"ha":1468,"x_min":34,"x_max":1434,"o":"m 34 0 l 34 1128 l 453 1128 l 453 255 l 531 255 l 531 1128 l 936 1128 l 936 255 l 1015 255 l 1015 1128 l 1434 1128 l 1434 0 l 34 0 z "},"Щ":{"ha":1595,"x_min":34,"x_max":1561,"o":"m 1272 0 l 34 0 l 34 1128 l 453 1128 l 453 255 l 531 255 l 531 1128 l 936 1128 l 936 255 l 1015 255 l 1015 1128 l 1434 1128 l 1434 257 l 1561 257 l 1561 -193 l 1272 -193 l 1272 0 z "},"Ъ":{"ha":1378,"x_min":34,"x_max":1344,"o":"m 881 298 q 922 315 905 298 q 939 356 939 332 q 924 397 939 380 q 884 415 908 415 l 736 415 l 736 298 l 880 298 l 880 298 q 880 298 880 298 l 881 298 m 736 1129 l 736 693 l 980 693 q 1251 592 1153 693 q 1344 347 1344 497 q 1245 105 1344 206 q 1007 1 1147 5 l 1007 0 l 281 0 l 281 871 l 34 871 l 34 1129 l 736 1129 z "},"Ы":{"ha":1652,"x_min":34,"x_max":1618,"o":"m 633 298 q 674 315 657 298 q 692 356 692 332 q 676 397 692 380 q 636 415 660 415 l 489 415 l 489 298 l 632 298 l 632 298 q 633 298 633 298 l 633 298 m 34 1128 l 489 1129 l 489 693 l 732 693 q 1004 592 905 693 q 1096 347 1096 497 q 998 105 1096 206 q 760 1 900 5 l 760 0 l 34 0 l 34 1128 m 1159 0 l 1159 1128 l 1618 1128 l 1618 0 l 1159 0 z "},"Ь":{"ha":1130,"x_min":34,"x_max":1096,"o":"m 633 298 q 674 315 657 298 q 692 356 692 332 q 676 397 692 380 q 636 415 660 415 l 489 415 l 489 298 l 632 298 l 632 298 q 633 298 633 298 l 633 298 m 34 1128 l 489 1129 l 489 693 l 732 693 q 1004 592 905 693 q 1096 347 1096 497 q 998 105 1096 206 q 760 1 900 5 l 760 0 l 34 0 l 34 1128 z "},"Э":{"ha":1097,"x_min":34,"x_max":1063,"o":"m 393 493 l 393 666 l 606 666 l 606 791 q 593 854 606 834 q 549 873 579 873 q 505 855 518 873 q 491 791 491 836 l 491 771 l 34 771 l 34 858 q 97 1068 34 1007 q 183 1113 127 1098 q 320 1127 240 1127 l 789 1127 q 916 1113 864 1127 q 1001 1066 968 1098 q 1048 983 1034 1035 q 1063 858 1063 932 l 1063 244 q 997 59 1063 117 q 789 1 932 1 l 320 1 q 189 15 243 1 q 100 58 135 28 q 50 133 65 87 q 34 244 34 179 l 34 360 l 491 360 l 491 338 q 549 256 491 256 q 592 276 579 256 q 606 338 606 295 l 606 493 l 393 493 z "},"Ю":{"ha":1700,"x_min":34,"x_max":1666,"o":"m 1078 807 l 1078 338 q 1092 276 1078 295 q 1136 257 1105 257 q 1182 276 1167 257 q 1196 338 1196 295 l 1196 807 q 1136 889 1196 889 q 1092 870 1105 889 q 1078 807 1078 850 m 608 691 l 608 903 q 675 1086 608 1029 q 889 1143 742 1143 l 1372 1143 q 1507 1130 1451 1143 q 1598 1088 1563 1117 q 1650 1013 1633 1059 q 1666 903 1666 967 l 1666 271 q 1601 60 1666 121 q 1512 15 1570 29 q 1372 0 1454 0 l 889 0 q 759 15 812 0 q 672 62 705 29 q 623 146 638 95 q 608 271 608 197 l 608 438 l 492 438 l 492 8 l 34 8 l 34 1127 l 492 1127 l 492 691 l 608 691 z "},"Я":{"ha":1113,"x_min":34,"x_max":1079,"o":"m 557 873 q 509 855 524 873 q 494 792 494 836 l 494 729 q 509 666 494 685 q 559 648 525 648 l 619 648 l 619 873 l 557 873 m 619 328 q 497 0 498 328 l 37 0 q 167 414 38 327 q 99 453 125 429 q 34 665 34 512 l 34 885 q 50 995 34 949 q 101 1071 66 1042 q 192 1114 137 1100 q 327 1128 248 1128 l 1079 1128 l 1079 0 l 619 0 l 619 328 z "},"а":{"ha":1122,"x_min":34,"x_max":1088,"o":"m 635 257 l 635 395 l 573 374 q 511 338 528 359 q 494 277 494 317 l 494 257 q 563 186 494 186 q 617 203 599 186 q 635 257 635 220 m 632 574 l 632 652 q 616 708 633 693 q 563 723 599 723 q 511 707 527 723 q 495 652 495 690 l 495 623 l 49 623 l 50 687 q 65 783 50 744 q 117 846 81 822 q 212 880 153 869 q 355 890 270 890 l 783 890 q 926 880 867 890 q 1020 845 984 869 q 1072 782 1057 821 q 1088 687 1088 743 l 1088 0 l 359 0 q 124 62 203 -3 q 34 303 44 126 q 355 574 57 567 l 632 574 z "},"б":{"ha":1122,"x_min":34,"x_max":1088,"o":"m 34 916 q 50 1037 34 998 q 102 1100 66 1076 q 195 1135 137 1125 q 338 1146 253 1146 l 795 1146 q 966 1170 881 1144 l 966 999 q 794 976 879 976 l 565 976 q 491 890 485 976 q 663 889 595 889 q 767 889 731 889 q 1007 826 926 889 q 1088 635 1088 762 l 1088 254 q 1007 61 1088 127 q 771 0 926 -6 l 333 0 q 34 238 34 0 l 34 916 m 494 269 q 509 217 494 233 q 558 201 525 201 q 624 269 624 201 l 624 620 q 608 672 624 656 q 557 688 593 688 q 509 672 524 688 q 494 620 494 656 l 494 269 z "},"в":{"ha":1108,"x_min":34,"x_max":1074,"o":"m 492 688 l 492 562 l 543 562 q 594 576 579 562 q 609 624 609 590 q 595 674 609 661 q 543 688 581 688 l 492 688 m 492 204 l 543 204 q 595 218 581 204 q 609 268 609 232 l 609 304 q 595 354 609 339 q 543 368 581 368 l 492 368 l 492 204 m 34 1 l 34 891 l 776 891 q 913 879 856 891 q 1005 841 970 867 q 1057 776 1041 816 q 1074 679 1074 735 q 1030 543 1074 590 q 883 476 986 496 q 1028 401 983 458 q 1074 230 1074 344 q 1007 52 1074 104 q 776 1 940 1 l 34 1 z "},"г":{"ha":803,"x_min":34,"x_max":769,"o":"m 769 890 l 769 687 l 489 687 l 489 0 l 34 0 l 34 890 l 769 890 z "},"д":{"ha":1315,"x_min":34,"x_max":1281,"o":"m 689 671 q 596 207 671 396 l 724 207 l 724 671 l 689 671 m 1280 207 l 1281 207 l 1280 142 l 1280 -158 l 991 -158 l 991 0 l 325 1 l 325 -158 l 34 -158 l 34 207 l 34 207 l 34 211 l 103 211 q 283 883 283 211 l 1156 883 l 1156 211 l 1280 211 l 1280 207 z "},"е":{"ha":1127,"x_min":34,"x_max":1094,"o":"m 1094 200 q 1078 105 1094 143 q 1026 42 1062 66 q 931 8 989 18 q 788 -3 873 -3 l 338 -3 q 195 8 253 -3 q 101 42 137 18 q 50 104 66 65 q 34 200 34 143 l 34 685 q 50 781 34 742 q 101 843 66 820 q 195 877 137 867 q 338 887 253 887 l 788 887 q 931 877 873 887 q 1026 842 989 867 q 1078 779 1062 818 q 1094 685 1094 741 l 1094 417 l 499 417 l 499 236 q 563 168 499 168 q 612 184 596 168 q 627 236 627 200 l 627 350 l 1094 350 l 1094 200 m 495 648 l 495 577 l 633 577 l 632 648 q 563 723 632 723 q 511 705 527 723 q 495 648 495 688 z "},"ж":{"ha":1752,"x_min":34,"x_max":1718,"o":"m 653 1 l 653 401 l 492 1 l 34 1 l 219 474 l 44 883 l 507 883 l 653 529 l 653 883 l 1099 883 l 1099 529 l 1245 883 l 1708 883 l 1533 474 l 1718 1 l 1260 1 l 1099 401 l 1098 404 l 1098 1 l 653 1 z "},"з":{"ha":1091,"x_min":34,"x_max":1058,"o":"m 1058 193 q 990 47 1058 93 q 777 1 922 1 l 314 1 q 104 44 174 1 q 34 170 34 87 l 34 325 l 494 325 l 494 269 q 506 220 494 236 q 548 205 519 205 q 591 220 577 205 q 604 269 604 234 l 604 321 q 527 385 604 385 l 428 385 l 428 587 l 520 587 q 604 648 604 587 q 588 688 604 672 q 547 704 572 704 q 505 689 521 704 q 489 649 489 673 l 489 633 l 34 633 l 34 722 q 105 848 34 804 q 314 891 176 891 l 777 891 q 986 848 915 891 q 1057 722 1057 804 l 1057 663 q 1015 552 1057 594 q 873 483 972 509 q 960 457 925 473 q 1016 418 995 442 q 1048 360 1038 395 q 1057 278 1057 326 l 1058 193 z "},"и":{"ha":1227,"x_min":34,"x_max":1193,"o":"m 733 0 l 733 419 l 511 0 l 34 0 l 34 890 l 495 890 l 495 523 l 694 890 l 1193 890 l 1193 0 l 733 0 z "},"й":{"ha":1227,"x_min":34,"x_max":1193,"o":"m 733 0 l 733 419 l 511 0 l 34 0 l 34 890 l 495 890 l 495 523 l 694 890 l 1193 890 l 1193 0 l 733 0 m 855 1223 q 856 1221 855 1220 q 837 1127 855 1172 q 784 1050 818 1084 q 707 998 751 1017 q 613 979 663 979 q 519 998 564 979 q 443 1050 476 1017 q 391 1127 409 1084 q 372 1221 372 1172 q 372 1223 372 1220 l 542 1223 q 580 1161 547 1176 q 647 1161 613 1146 q 685 1223 680 1176 l 855 1223 z "},"к":{"ha":1207,"x_min":34,"x_max":1174,"o":"m 622 733 q 628 803 622 733 q 707 890 634 874 l 1174 890 q 1089 713 1094 852 q 966 432 1084 574 l 1128 0 l 658 0 l 492 406 l 491 0 l 34 0 l 34 889 l 491 889 l 492 530 q 622 733 609 591 z "},"л":{"ha":1281,"x_min":34,"x_max":1247,"o":"m 1247 890 l 1247 1 l 792 1 l 792 678 l 675 678 l 675 320 q 571 83 676 160 q 297 1 466 5 q 34 1 295 1 l 34 208 q 219 320 219 208 l 219 891 l 1247 890 z "},"м":{"ha":1520,"x_min":34,"x_max":1486,"o":"m 615 0 l 492 376 l 492 0 l 34 0 l 34 890 l 611 890 l 760 537 l 908 890 l 1486 890 l 1486 0 l 1027 0 l 1027 376 l 904 0 l 615 0 z "},"н":{"ha":1099,"x_min":34,"x_max":1065,"o":"m 34 0 l 34 890 l 491 890 l 491 589 l 608 589 l 608 890 l 1065 890 l 1065 0 l 608 0 l 608 386 l 491 386 l 491 0 l 34 0 z "},"о":{"ha":1125,"x_min":34,"x_max":1092,"o":"m 498 649 l 498 237 q 562 169 498 169 q 611 185 595 169 q 626 237 626 201 l 626 649 q 562 717 626 717 q 513 701 529 717 q 498 649 498 685 m 34 686 q 50 782 34 743 q 101 844 66 821 q 195 878 136 868 q 337 889 253 889 l 787 889 q 929 878 871 889 q 1024 844 987 868 q 1076 780 1060 819 q 1092 686 1092 742 l 1092 201 q 1076 106 1092 144 q 1024 44 1060 68 q 929 9 987 19 q 787 -1 871 -1 l 337 -1 q 195 9 253 -1 q 101 43 136 19 q 50 105 66 66 q 34 201 34 144 l 34 686 z "},"п":{"ha":1099,"x_min":34,"x_max":1065,"o":"m 34 0 l 34 890 l 1065 890 l 1065 0 l 608 0 l 608 689 l 491 689 l 491 0 l 34 0 z "},"р":{"ha":1127,"x_min":34,"x_max":1094,"o":"m 499 656 l 499 253 q 563 186 499 186 q 612 202 596 186 q 627 253 627 217 l 627 656 q 563 722 627 722 q 499 656 499 722 m 494 -256 l 34 -256 l 34 692 q 50 786 34 748 q 101 847 66 824 q 195 880 137 870 q 338 890 253 890 l 788 890 q 931 880 873 890 q 1026 846 989 870 q 1078 785 1062 823 q 1094 692 1094 747 l 1094 195 q 1078 103 1094 141 q 1026 42 1062 65 q 931 8 990 18 q 788 -2 873 -2 l 494 -2 l 494 -256 z "},"с":{"ha":1127,"x_min":34,"x_max":1094,"o":"m 1094 200 q 1078 105 1094 143 q 1026 42 1062 66 q 931 8 989 18 q 788 -3 873 -3 l 338 -3 q 195 8 253 -3 q 101 42 137 18 q 50 104 66 65 q 34 200 34 143 l 34 685 q 101 843 34 798 q 195 877 135 865 q 290 885 224 882 q 460 887 356 887 l 788 887 q 931 877 873 887 q 1026 842 989 867 q 1078 779 1062 818 q 1094 685 1094 741 l 1094 549 l 627 549 l 627 648 q 563 715 627 715 q 514 700 530 715 q 499 648 499 684 l 499 236 q 563 168 499 168 q 612 184 596 168 q 627 236 627 200 l 627 378 l 1094 378 l 1094 200 z "},"т":{"ha":1041,"x_min":34,"x_max":1007,"o":"m 281 0 l 281 687 l 34 687 l 34 890 l 1007 890 l 1007 687 l 760 687 l 760 0 l 281 0 z "},"у":{"ha":1122,"x_min":34,"x_max":1088,"o":"m 628 890 l 1088 890 l 1088 -25 q 1072 -147 1088 -108 q 1020 -210 1056 -186 q 926 -245 984 -235 q 784 -256 869 -256 l 85 -256 l 85 -86 l 517 -86 q 605 -75 581 -86 q 631 -4 629 -64 q 459 -5 527 -5 l 355 -5 q 114 61 195 -5 q 34 254 34 128 l 34 890 l 498 890 l 498 270 q 513 217 498 233 q 565 201 528 201 q 613 217 598 201 q 629 270 628 233 l 628 890 z "},"ф":{"ha":1725,"x_min":34,"x_max":1691,"o":"m 628 165 l 628 231 l 628 635 l 628 701 l 565 701 q 516 686 531 701 q 500 635 500 671 l 500 231 q 565 165 500 165 l 628 165 m 1097 702 l 1097 636 l 1097 233 l 1097 166 l 1161 166 q 1209 182 1194 166 q 1224 233 1224 197 l 1225 636 q 1161 702 1225 702 l 1097 702 m 632 -3 l 340 -3 q 196 8 255 -3 q 102 41 138 18 q 50 103 66 65 q 34 196 34 140 l 34 693 q 50 784 34 747 q 102 846 66 822 q 196 879 138 869 q 339 890 255 890 l 634 890 l 634 1128 l 1094 1128 l 1094 884 l 1385 884 q 1529 873 1470 884 q 1623 840 1587 863 q 1675 778 1659 816 q 1691 685 1691 741 l 1691 198 q 1675 106 1691 144 q 1623 45 1659 68 q 1529 11 1587 21 q 1385 1 1470 1 l 1091 1 l 1091 -260 l 631 -260 l 632 -3 z "},"х":{"ha":1226,"x_min":34,"x_max":1192,"o":"m 731 890 l 1192 890 l 999 455 l 1189 0 l 709 0 l 614 375 l 517 0 l 37 0 l 227 455 l 34 890 l 495 890 l 611 557 l 731 890 z "},"ц":{"ha":1229,"x_min":34,"x_max":1195,"o":"m 1065 211 l 1195 211 l 1195 -158 l 905 -158 l 905 1 l 34 1 l 34 890 l 491 890 l 491 209 l 608 209 l 608 890 l 1065 890 l 1065 211 z "},"ч":{"ha":1115,"x_min":34,"x_max":1081,"o":"m 1081 890 l 1081 0 l 621 0 l 621 188 l 353 189 q 114 241 195 189 q 34 392 34 293 l 34 890 l 494 890 l 494 402 q 557 349 494 349 q 606 361 591 349 q 621 402 621 374 l 621 890 l 1081 890 z "},"ш":{"ha":1468,"x_min":34,"x_max":1434,"o":"m 34 0 l 34 890 l 453 890 l 453 201 l 531 201 l 531 890 l 936 890 l 936 201 l 1015 201 l 1015 890 l 1434 890 l 1434 0 l 34 0 z "},"щ":{"ha":1595,"x_min":34,"x_max":1561,"o":"m 1272 -2 l 34 -2 l 34 889 l 453 889 l 453 199 l 531 199 l 531 889 l 936 889 l 936 199 l 1015 199 l 1015 889 l 1434 889 l 1434 201 l 1561 201 l 1561 -154 l 1272 -154 l 1272 -2 z "},"ъ":{"ha":1238,"x_min":34,"x_max":1205,"o":"m 190 889 l 644 890 l 644 546 l 841 546 q 1112 467 1013 546 q 1204 274 1204 392 q 1106 83 1205 162 q 868 1 1008 4 l 868 0 l 190 0 l 190 686 l 34 686 l 34 889 l 190 889 m 732 241 q 759 253 748 241 q 769 279 770 264 q 760 306 770 295 q 735 317 750 317 l 642 317 l 642 241 l 732 241 l 732 242 q 732 241 732 242 l 732 241 z "},"ы":{"ha":1652,"x_min":34,"x_max":1618,"o":"m 34 889 l 489 890 l 489 546 l 732 546 q 1004 467 905 546 q 1096 274 1096 392 q 998 83 1097 162 q 760 1 900 4 l 760 0 l 34 0 l 34 889 m 1159 0 l 1159 889 l 1618 889 l 1618 0 l 1159 0 m 579 241 q 606 253 595 241 q 616 279 616 264 q 607 306 616 295 q 582 317 596 317 l 489 317 l 489 241 l 579 241 l 579 242 q 579 241 579 242 l 579 241 z "},"ь":{"ha":1130,"x_min":34,"x_max":1097,"o":"m 579 241 q 606 253 595 241 q 616 279 616 264 q 607 306 616 295 q 582 317 596 317 l 489 317 l 489 241 l 579 241 l 579 242 q 579 241 579 242 l 579 241 m 34 889 l 489 890 l 489 546 l 732 546 q 1004 467 905 546 q 1096 274 1096 392 q 998 83 1097 162 q 760 1 900 4 l 760 0 l 34 0 l 34 889 z "},"э":{"ha":1097,"x_min":34,"x_max":1063,"o":"m 393 397 l 393 532 l 606 532 l 606 629 q 592 678 606 663 q 549 693 579 693 q 505 678 518 693 q 491 629 491 664 l 491 613 l 34 613 l 34 681 q 97 844 34 797 q 184 879 127 868 q 320 891 240 891 l 789 891 q 916 879 864 891 q 1001 843 968 868 q 1048 779 1033 819 q 1063 681 1063 739 l 1063 190 q 997 46 1063 92 q 789 1 932 1 l 320 1 q 189 12 243 1 q 100 45 134 22 q 50 104 65 68 q 34 190 34 139 l 34 281 l 491 281 l 491 264 q 549 200 491 200 q 593 215 579 200 q 606 264 606 230 l 606 397 l 393 397 z "},"ю":{"ha":1625,"x_min":34,"x_max":1591,"o":"m 1022 628 l 1022 263 q 1036 215 1022 230 q 1079 200 1049 200 q 1123 215 1109 200 q 1136 263 1136 230 l 1136 628 q 1079 692 1136 692 q 1036 677 1049 692 q 1022 628 1022 662 m 568 538 l 568 703 q 633 846 568 802 q 840 890 698 890 l 1306 890 q 1437 880 1383 890 q 1525 847 1491 870 q 1575 789 1559 824 q 1591 703 1591 753 l 1591 211 q 1528 47 1591 94 q 1442 11 1498 23 q 1306 0 1386 0 l 840 0 q 714 11 766 0 q 630 48 662 23 q 583 114 597 74 q 568 211 568 154 l 568 341 l 477 341 l 477 6 l 34 6 l 34 885 l 477 885 l 477 538 l 568 538 z "},"я":{"ha":1113,"x_min":34,"x_max":1079,"o":"m 556 689 q 509 675 523 689 q 494 625 494 660 l 494 530 q 509 481 494 495 q 559 467 525 467 l 619 467 l 618 689 l 556 689 m 551 238 q 407 1 406 165 l 34 1 q 122 271 38 181 q 99 285 109 277 q 34 453 34 332 l 34 698 q 50 785 34 749 q 101 845 66 822 q 192 879 137 868 q 327 890 248 890 l 1079 890 l 1079 0 l 619 0 l 619 238 l 551 238 z "},"ё":{"ha":1127,"x_min":34,"x_max":1094,"o":"m 1094 200 q 1078 105 1094 143 q 1026 42 1062 66 q 931 8 989 18 q 788 -3 873 -3 l 338 -3 q 195 8 253 -3 q 101 42 137 18 q 50 104 66 65 q 34 200 34 143 l 34 685 q 50 781 34 742 q 101 843 66 820 q 195 877 137 867 q 338 887 253 887 l 788 887 q 931 877 873 887 q 1026 842 989 867 q 1078 779 1062 818 q 1094 685 1094 741 l 1094 417 l 499 417 l 499 236 q 563 168 499 168 q 612 184 596 168 q 627 236 627 200 l 627 350 l 1094 350 l 1094 200 m 495 648 l 495 577 l 633 577 l 632 648 q 563 723 632 723 q 511 705 527 723 q 495 648 495 688 m 476 980 l 190 980 l 190 1219 l 476 1219 l 476 980 m 938 980 l 651 980 l 651 1219 l 938 1219 l 938 980 z "},"ђ":{"ha":1117,"x_min":-43,"x_max":1083,"o":"m 490 933 l 490 890 l 767 890 q 1003 830 923 896 q 1083 637 1083 764 l 1083 -93 q 779 -291 1083 -291 l 501 -291 l 501 -54 l 513 -54 q 625 15 624 -56 l 624 15 l 624 622 q 560 690 624 690 q 512 674 527 690 q 496 622 496 659 l 496 -1 l 37 -1 l 37 0 l 37 0 l 37 890 l 37 890 l 37 933 l -43 933 l -43 1072 l 37 1072 l 37 1127 l 490 1127 l 490 1072 l 744 1072 l 744 933 l 490 933 z "},"ѓ":{"ha":803,"x_min":34,"x_max":769,"o":"m 769 890 l 769 687 l 489 687 l 489 0 l 34 0 l 34 890 l 769 890 m 622 1251 l 475 979 l 256 979 l 403 1251 l 622 1251 z "},"є":{"ha":1097,"x_min":34,"x_max":1063,"o":"m 491 397 l 491 264 q 504 215 491 230 q 548 200 517 200 q 605 264 606 200 l 606 281 l 1063 281 l 1063 190 q 1047 104 1063 139 q 997 45 1031 68 q 908 12 962 22 q 777 1 853 1 l 307 1 q 99 46 164 1 q 34 190 34 92 l 34 681 q 48 779 34 739 q 96 843 63 819 q 180 879 128 868 q 307 891 232 891 l 777 891 q 913 879 857 891 q 1000 844 969 868 q 1062 681 1062 797 l 1062 613 l 605 613 l 606 629 q 592 678 605 664 q 548 693 578 693 q 504 678 517 693 q 491 629 491 663 l 491 532 l 704 532 l 704 397 l 491 397 z "},"ѕ":{"ha":1127,"x_min":34,"x_max":1094,"o":"m 1094 200 q 1077 105 1093 143 q 1025 42 1061 66 q 931 8 989 18 q 788 -3 872 -3 l 338 -3 q 195 8 253 -3 q 101 42 136 18 q 50 104 65 65 q 34 200 34 143 l 34 309 l 499 309 l 499 236 q 563 168 499 168 q 612 184 596 168 q 627 236 627 200 l 627 259 q 520 347 627 319 l 253 412 q 85 483 128 444 q 42 602 42 522 l 42 685 q 58 781 42 742 q 110 843 74 820 q 204 877 146 867 q 348 887 263 887 l 788 887 q 931 877 872 887 q 1025 842 989 867 q 1077 779 1061 818 q 1093 685 1093 741 l 1094 625 l 632 625 l 632 648 q 568 715 632 715 q 523 702 541 715 q 505 666 505 688 q 509 641 505 652 q 526 620 513 630 q 564 601 539 610 q 631 583 589 592 l 831 532 q 1039 445 986 492 q 1094 307 1094 399 l 1094 200 z "},"і":{"ha":526,"x_min":34,"x_max":492,"o":"m 34 0 l 34 890 l 492 890 l 492 0 l 34 0 m 34 936 l 34 1127 l 492 1127 l 492 936 l 34 936 z "},"ї":{"ha":526,"x_min":-109,"x_max":638,"o":"m 34 0 l 34 890 l 492 890 l 492 0 l 34 0 m 177 1223 l -109 1223 l -109 983 l 177 983 l 177 1223 m 638 1223 l 352 1223 l 352 983 l 638 983 l 638 1223 z "},"ј":{"ha":526,"x_min":34,"x_max":492,"o":"m 34 -254 l 34 890 l 492 890 l 492 -254 l 34 -254 m 34 936 l 34 1127 l 492 1127 l 492 936 l 34 936 z "},"љ":{"ha":1874,"x_min":34,"x_max":1840,"o":"m 1316 131 q 1379 183 1379 131 l 1379 407 q 1364 447 1379 435 q 1316 459 1349 459 l 1253 459 l 1253 407 l 1253 183 q 1316 131 1253 131 m 219 891 l 899 890 l 1248 890 l 1248 608 l 1538 608 q 1680 600 1622 608 q 1773 573 1737 592 q 1824 525 1808 555 q 1840 453 1840 495 l 1840 155 q 1824 81 1840 111 q 1772 33 1808 51 q 1622 1 1737 14 l 792 1 l 792 678 l 676 678 l 676 320 q 571 83 676 160 q 297 1 467 5 l 231 1 q 34 1 143 1 l 34 208 q 219 320 219 208 l 219 891 z "},"њ":{"ha":1690,"x_min":34,"x_max":1656,"o":"m 1069 182 q 1132 130 1069 130 q 1195 182 1195 130 l 1196 408 q 1180 448 1195 436 q 1132 460 1165 460 l 1069 460 l 1069 182 m 607 608 l 607 890 l 1064 890 l 1064 609 l 1354 609 q 1496 601 1438 609 q 1589 574 1553 592 q 1640 526 1624 555 q 1656 453 1656 496 l 1656 154 q 1640 81 1656 111 q 1589 33 1624 51 q 1438 1 1553 14 l 607 1 l 607 460 l 492 460 l 492 0 l 34 0 l 34 890 l 492 890 l 492 608 l 607 608 z "},"ћ":{"ha":1127,"x_min":-30,"x_max":1094,"o":"m 506 933 l 506 890 l 774 889 q 1013 823 932 889 q 1094 631 1094 757 l 1094 0 l 634 0 l 634 618 q 570 686 634 686 q 522 670 537 686 q 506 618 506 654 l 506 0 l 46 0 l 46 933 l -30 933 l -30 1072 l 46 1072 l 46 1128 l 506 1128 l 506 1072 l 582 1072 l 582 933 l 506 933 z "},"ќ":{"ha":1163,"x_min":34,"x_max":1129,"o":"m 825 1251 l 678 979 l 459 979 l 606 1251 l 825 1251 m 34 0 l 34 890 l 492 890 l 492 531 l 643 890 l 1119 890 l 939 477 l 1129 0 l 659 0 l 492 407 l 492 0 l 34 0 z "},"ў":{"ha":1122,"x_min":34,"x_max":1088,"o":"m 628 890 l 1088 890 l 1088 -25 q 1072 -147 1088 -108 q 1020 -210 1056 -186 q 926 -245 984 -235 q 784 -256 869 -256 l 85 -256 l 85 -86 l 517 -86 q 605 -75 581 -86 q 631 -4 629 -64 q 459 -5 527 -5 l 355 -5 q 114 61 195 -5 q 34 254 34 128 l 34 890 l 498 890 l 498 270 q 513 217 498 233 q 565 201 528 201 q 613 217 598 201 q 629 270 628 233 l 628 890 m 808 1222 q 809 1220 809 1219 q 790 1126 809 1171 q 738 1049 771 1083 q 661 997 705 1016 q 567 978 616 978 q 473 997 518 978 q 396 1049 430 1016 q 345 1126 362 1083 q 326 1220 325 1171 q 325 1222 325 1219 l 478 1222 q 525 1151 483 1175 q 609 1151 567 1128 q 655 1222 651 1175 l 808 1222 z "},"џ":{"ha":1099,"x_min":34,"x_max":1065,"o":"m 405 -4 l 34 -4 l 34 889 l 491 889 l 491 198 l 608 198 l 608 889 l 1065 889 l 1065 -4 l 694 -4 l 694 -157 l 405 -157 l 405 -4 z "},"Ґ":{"ha":866,"x_min":34,"x_max":832,"o":"m 512 871 l 512 0 l 34 0 l 34 1128 l 582 1128 l 582 1222 l 832 1222 l 832 869 l 512 871 z "},"ґ":{"ha":866,"x_min":34,"x_max":832,"o":"m 512 682 l 512 0 l 34 0 l 34 884 l 582 884 l 582 979 l 832 979 l 832 681 l 512 682 z "},"Ẁ":{"ha":1672,"x_min":34,"x_max":1638,"o":"m 1004 1128 l 1095 612 l 1180 1128 l 1638 1128 l 1400 1 l 934 1 l 836 478 l 737 1 l 271 1 l 34 1128 l 493 1128 l 577 612 l 668 1128 l 1004 1128 m 811 1493 l 958 1221 l 739 1221 l 592 1493 l 811 1493 z "},"ẁ":{"ha":1703,"x_min":34,"x_max":1669,"o":"m 804 1252 l 950 980 l 731 980 l 585 1252 l 804 1252 m 1669 1 l 1669 890 l 1206 890 l 1206 269 q 1145 201 1206 203 q 1085 269 1085 203 l 1085 890 l 618 890 l 618 269 q 558 201 618 203 q 497 269 497 203 l 497 890 l 34 890 l 34 254 q 115 64 34 127 q 356 1 196 1 l 1669 1 z "},"Ẃ":{"ha":1672,"x_min":34,"x_max":1638,"o":"m 1004 1128 l 1095 612 l 1180 1128 l 1638 1128 l 1400 1 l 934 1 l 836 478 l 737 1 l 271 1 l 34 1128 l 493 1128 l 577 612 l 668 1128 l 1004 1128 m 1080 1493 l 933 1221 l 714 1221 l 861 1493 l 1080 1493 z "},"ẃ":{"ha":1703,"x_min":34,"x_max":1669,"o":"m 1073 1252 l 926 980 l 707 980 l 853 1252 l 1073 1252 m 1669 1 l 1669 890 l 1206 890 l 1206 269 q 1145 201 1206 203 q 1085 269 1085 203 l 1085 890 l 618 890 l 618 269 q 558 201 618 203 q 497 269 497 203 l 497 890 l 34 890 l 34 254 q 115 64 34 127 q 356 1 196 1 l 1669 1 z "},"Ẅ":{"ha":1672,"x_min":34,"x_max":1638,"o":"m 1004 1128 l 1095 612 l 1180 1128 l 1638 1128 l 1400 1 l 934 1 l 836 478 l 737 1 l 271 1 l 34 1128 l 493 1128 l 577 612 l 668 1128 l 1004 1128 m 754 1223 l 468 1223 l 468 1462 l 754 1462 l 754 1223 m 1215 1223 l 929 1223 l 929 1462 l 1215 1462 l 1215 1223 z "},"ẅ":{"ha":1703,"x_min":34,"x_max":1669,"o":"m 752 980 l 466 980 l 466 1220 l 752 1220 l 752 980 m 1213 980 l 927 980 l 927 1220 l 1213 1220 l 1213 980 m 1669 1 l 1669 890 l 1206 890 l 1206 269 q 1145 201 1206 203 q 1085 269 1085 203 l 1085 890 l 618 890 l 618 269 q 558 201 618 203 q 497 269 497 203 l 497 890 l 34 890 l 34 254 q 115 64 34 127 q 356 1 196 1 l 1669 1 z "},"Ỳ":{"ha":1222,"x_min":34,"x_max":1188,"o":"m 378 1 l 378 427 l 34 1128 l 487 1128 l 611 858 l 735 1128 l 1188 1128 l 843 427 l 843 1 l 378 1 m 586 1493 l 733 1221 l 514 1221 l 367 1493 l 586 1493 z "},"ỳ":{"ha":1122,"x_min":34,"x_max":1088,"o":"m 628 890 l 1088 890 l 1088 -25 q 1072 -147 1088 -108 q 1020 -210 1056 -186 q 926 -245 984 -235 q 784 -256 869 -256 l 85 -256 l 85 -86 l 517 -86 q 605 -75 581 -86 q 631 -4 629 -64 q 459 -5 527 -5 l 355 -5 q 114 61 195 -5 q 34 254 34 128 l 34 890 l 498 890 l 498 270 q 513 217 498 233 q 565 201 528 201 q 613 217 598 201 q 629 270 628 233 l 628 890 m 537 1252 l 683 980 l 464 980 l 318 1252 l 537 1252 z "},"―":{"ha":948,"x_min":34,"x_max":914,"o":"m 34 693 l 914 693 l 914 436 l 34 436 l 34 693 z "},"‗":{"ha":917,"x_min":34,"x_max":883,"o":"m 34 -92 l 883 -92 l 883 -349 l 34 -349 l 34 -92 z "},"‛":{"ha":401,"x_min":34,"x_max":367,"o":"m 247 723 l 110 723 l 34 848 l 34 1127 l 367 1127 l 367 848 l 175 848 l 247 723 z "},"′":{"ha":398,"x_min":34,"x_max":364,"o":"m 364 1494 l 159 1152 l 34 1152 l 145 1494 l 364 1494 z "},"″":{"ha":653,"x_min":34,"x_max":620,"o":"m 364 1494 l 159 1152 l 34 1152 l 145 1494 l 364 1494 m 620 1494 l 414 1152 l 289 1152 l 400 1494 l 620 1494 z "},"‼":{"ha":957,"x_min":34,"x_max":923,"o":"m 445 338 l 34 338 l 34 1128 l 445 1128 l 445 338 m 445 -1 l 34 -1 l 34 278 l 445 278 l 445 -1 m 923 338 l 512 338 l 512 1128 l 923 1128 l 923 338 m 923 -1 l 512 -1 l 512 278 l 923 278 l 923 -1 z "},"‾":{"ha":836,"x_min":34,"x_max":802,"o":"m 34 1223 l 802 1223 l 802 966 l 34 966 l 34 1223 z "},"ⁿ":{"ha":608,"x_min":34,"x_max":574,"o":"m 34 669 l 34 1127 l 410 1127 q 532 1096 490 1131 q 574 997 573 1062 l 573 669 l 336 669 l 336 989 q 303 1024 336 1024 q 278 1016 286 1024 q 271 989 271 1008 l 271 669 l 34 669 z "},"₣":{"ha":1068,"x_min":34,"x_max":1034,"o":"m 588 137 l 588 1 l 133 0 l 133 137 l 34 137 l 34 312 l 133 312 l 133 1128 l 1034 1128 l 1034 871 l 588 871 l 588 693 l 992 693 l 992 436 l 588 436 l 588 312 l 697 312 l 697 137 l 588 137 z "},"₤":{"ha":1037,"x_min":34,"x_max":1003,"o":"m 594 319 q 573 258 587 289 l 1003 258 l 1003 0 l 99 0 l 99 256 l 100 256 l 99 257 q 146 319 129 289 l 34 319 l 34 435 l 173 435 q 150 494 168 466 q 144 504 146 499 l 34 504 l 34 620 l 90 620 q 63 737 71 676 l 63 737 l 62 882 q 121 1073 63 1019 q 329 1127 179 1127 l 743 1127 q 862 1114 813 1127 q 941 1071 911 1101 q 985 995 971 1042 q 998 882 999 948 l 999 689 l 590 689 l 590 821 q 577 877 590 860 q 537 894 565 894 q 495 877 508 894 q 483 821 483 860 l 482 738 l 483 738 q 520 620 481 699 l 670 620 l 670 504 l 582 504 q 601 435 595 470 l 670 435 l 670 319 l 594 319 z "},"₧":{"ha":2814,"x_min":34,"x_max":2780,"o":"m 504 873 l 448 873 l 448 557 l 503 557 q 547 575 533 557 q 561 637 561 593 l 561 792 q 547 855 561 836 q 504 873 534 873 m 34 0 l 34 1128 l 711 1128 q 832 1114 783 1128 q 914 1071 882 1100 q 960 995 946 1042 q 975 885 975 949 l 975 574 q 916 361 975 421 q 711 301 859 301 l 448 301 l 448 0 l 34 0 m 1114 777 l 1114 1128 l 1574 1128 l 1574 777 l 1702 777 l 1702 607 l 1574 607 l 1574 0 l 1114 0 l 1114 607 l 996 607 l 996 777 l 1114 777 m 2780 200 q 2764 105 2780 143 q 2712 42 2748 66 q 2617 8 2676 18 q 2474 -3 2559 -3 l 2024 -3 q 1881 8 1940 -3 q 1787 42 1823 18 q 1736 104 1752 65 q 1720 200 1720 143 l 1720 309 l 2185 309 l 2185 236 q 2249 168 2185 168 q 2298 184 2283 168 q 2313 236 2313 200 l 2313 259 q 2206 347 2313 319 l 1940 412 q 1772 483 1815 444 q 1729 602 1729 522 l 1729 685 q 1745 781 1729 742 q 1797 843 1761 820 q 1891 877 1833 867 q 2034 887 1949 887 l 2474 887 q 2617 877 2559 887 q 2712 842 2676 867 q 2764 779 2748 818 q 2780 685 2780 741 l 2780 625 l 2319 625 l 2319 648 q 2255 715 2319 715 q 2209 702 2227 715 q 2191 666 2191 688 q 2195 641 2191 652 q 2213 620 2199 630 q 2251 601 2226 610 q 2317 583 2276 592 l 2517 532 q 2726 445 2673 492 q 2780 307 2780 399 l 2780 200 z "},"℅":{"ha":1246,"x_min":34,"x_max":1212,"o":"m 1171 1270 l 171 -60 l 34 -60 l 1034 1270 l 1171 1270 m 905 90 q 819 114 844 90 q 794 197 794 137 l 794 446 q 820 519 794 496 q 905 542 847 542 l 1096 542 q 1149 537 1127 542 q 1185 519 1172 531 q 1206 490 1199 508 q 1212 446 1212 471 l 1212 197 q 1186 113 1212 137 q 1096 90 1161 90 l 905 90 m 980 407 l 980 220 q 985 196 980 203 q 1003 189 990 189 q 1021 196 1015 189 q 1026 220 1026 203 l 1026 407 q 1003 440 1026 440 q 985 432 990 440 q 980 407 980 425 m 489 883 l 489 796 q 483 753 489 771 q 463 724 476 735 q 429 707 450 713 q 378 702 408 702 l 197 702 q 116 724 141 702 q 91 796 91 747 l 91 1040 q 97 1088 91 1068 q 115 1120 102 1108 q 147 1138 127 1133 q 197 1144 168 1144 l 378 1144 q 431 1138 409 1144 q 464 1121 452 1133 q 489 1040 489 1097 l 489 982 l 312 982 l 312 1014 q 307 1038 312 1031 q 290 1046 301 1046 q 273 1038 278 1046 q 268 1014 268 1030 l 268 832 q 273 808 268 816 q 290 801 278 801 q 312 832 312 801 l 312 883 l 489 883 z "},"ℓ":{"ha":635,"x_min":34,"x_max":601,"o":"m 310 393 q 251 152 256 200 q 259 119 248 119 q 310 178 277 119 q 354 212 330 212 q 387 172 390 212 q 327 56 381 113 q 205 -1 273 -1 q 119 46 148 -1 q 101 212 91 93 q 105 247 103 236 q 69 227 84 227 q 45 241 55 227 q 36 275 34 255 q 61 321 38 297 q 131 394 111 372 q 282 805 194 632 q 486 979 371 979 q 572 938 544 979 q 595 836 601 898 q 310 393 578 638 m 352 558 q 438 681 392 598 q 489 826 483 763 q 478 865 492 865 q 352 558 435 865 z "},"№":{"ha":2022,"x_min":34,"x_max":1988,"o":"m 34 0 l 34 1128 l 533 1128 l 732 663 l 732 1128 l 1193 1128 l 1193 0 l 716 0 l 494 531 l 494 0 l 34 0 m 1588 677 l 1588 399 q 1631 353 1588 353 q 1664 364 1653 353 q 1674 399 1674 375 l 1674 677 q 1631 723 1674 723 q 1598 712 1608 723 q 1588 677 1588 701 m 1275 702 q 1285 767 1275 741 q 1320 809 1296 793 q 1383 832 1344 825 q 1479 839 1422 839 l 1783 839 q 1879 832 1840 839 q 1942 808 1918 825 q 1977 765 1967 792 q 1988 702 1988 739 l 1988 375 q 1977 310 1988 336 q 1942 268 1967 285 q 1879 245 1918 252 q 1783 238 1840 238 l 1479 238 q 1383 245 1422 238 q 1320 268 1344 252 q 1285 310 1296 284 q 1275 375 1275 336 l 1275 702 m 1980 179 l 1980 1 l 1290 1 l 1290 179 l 1980 179 z "},"¤":{"ha":1052,"x_min":34,"x_max":1018,"o":"m 36 126 l 190 280 q 127 488 127 369 q 190 696 127 608 l 34 852 l 159 977 l 316 822 q 531 884 405 884 q 735 823 646 884 l 889 976 l 1015 852 l 860 697 q 925 488 925 603 q 863 282 925 371 l 1018 126 l 895 1 l 739 156 q 526 92 648 92 q 315 155 411 92 l 160 2 l 36 126 m 714 488 q 659 621 714 566 q 526 676 605 676 q 394 621 449 676 q 339 488 339 566 q 394 355 339 410 q 526 299 450 299 q 659 355 604 299 q 714 488 714 410 z "},"Ș":{"ha":1134,"x_min":34,"x_max":1100,"o":"m 326 0 q 107 52 181 0 q 37 227 34 105 l 37 424 l 513 424 l 513 348 q 571 270 513 270 q 616 289 602 270 q 630 354 630 309 q 627 397 630 380 q 616 426 625 413 q 592 447 608 438 q 550 466 576 456 l 227 586 q 76 674 114 627 q 37 806 37 724 l 37 923 q 110 1076 37 1024 q 329 1127 184 1127 l 808 1127 q 1027 1076 954 1127 q 1100 923 1100 1024 l 1100 794 l 627 794 l 627 807 q 566 882 627 882 q 526 867 541 882 q 510 828 510 852 q 513 807 510 815 q 524 790 515 798 q 550 773 533 782 q 594 754 566 764 l 970 608 q 1030 575 1006 594 q 1071 529 1055 556 q 1094 465 1087 502 q 1100 376 1100 427 l 1100 255 q 1028 56 1098 112 q 806 0 958 0 l 326 0 m 511 -413 l 569 -312 l 413 -312 l 413 -85 l 683 -85 l 683 -312 l 621 -413 l 511 -413 z "},"ș":{"ha":1127,"x_min":34,"x_max":1094,"o":"m 1094 200 q 1077 105 1093 143 q 1025 42 1061 66 q 931 8 989 18 q 788 -3 872 -3 l 338 -3 q 195 8 253 -3 q 101 42 136 18 q 50 104 65 65 q 34 200 34 143 l 34 309 l 499 309 l 499 236 q 563 168 499 168 q 612 184 596 168 q 627 236 627 200 l 627 259 q 520 347 627 319 l 253 412 q 85 483 128 444 q 42 602 42 522 l 42 685 q 58 781 42 742 q 110 843 74 820 q 204 877 146 867 q 348 887 263 887 l 788 887 q 931 877 872 887 q 1025 842 989 867 q 1077 779 1061 818 q 1093 685 1093 741 l 1094 625 l 632 625 l 632 648 q 568 715 632 715 q 523 702 541 715 q 505 666 505 688 q 509 641 505 652 q 526 620 513 630 q 564 601 539 610 q 631 583 589 592 l 831 532 q 1039 445 986 492 q 1094 307 1094 399 l 1094 200 m 511 -413 l 569 -312 l 413 -312 l 413 -85 l 683 -85 l 683 -312 l 621 -413 l 511 -413 z "},"Ț":{"ha":1041,"x_min":34,"x_max":1007,"o":"m 281 0 l 281 871 l 34 871 l 34 1128 l 1007 1128 l 1007 871 l 760 871 l 760 0 l 281 0 m 483 -413 l 541 -312 l 386 -312 l 386 -85 l 655 -85 l 655 -312 l 593 -413 l 483 -413 z "},"ț":{"ha":773,"x_min":34,"x_max":740,"o":"m 152 777 l 152 1128 l 611 1128 l 611 777 l 740 777 l 739 607 l 611 607 l 611 0 l 152 0 l 152 607 l 34 607 l 34 777 l 152 777 m 349 -413 l 407 -312 l 252 -312 l 252 -85 l 522 -85 l 522 -312 l 459 -413 l 349 -413 z "},"≈":{"ha":769,"x_min":34,"x_max":735,"o":"m 735 420 q 387 381 573 316 q 34 306 200 447 l 34 554 q 395 633 208 697 q 735 668 581 568 l 735 420 m 735 720 q 387 682 573 616 q 34 606 200 747 l 34 854 q 395 933 208 998 q 735 969 581 869 l 735 720 z "},"Ѝ":{"ha":1227,"x_min":34,"x_max":1193,"o":"m 733 0 l 733 531 l 511 0 l 34 0 l 34 1128 l 495 1128 l 495 663 l 694 1128 l 1193 1128 l 1193 0 l 733 0 m 589 1493 l 735 1221 l 516 1221 l 370 1493 l 589 1493 z "},"ѝ":{"ha":1227,"x_min":34,"x_max":1193,"o":"m 733 0 l 733 419 l 511 0 l 34 0 l 34 890 l 495 890 l 495 523 l 694 890 l 1193 890 l 1193 0 l 733 0 m 589 1252 l 735 980 l 516 980 l 370 1252 l 589 1252 z "},"ѐ":{"ha":1127,"x_min":34,"x_max":1094,"o":"m 1094 200 q 1078 105 1094 143 q 1026 42 1062 66 q 931 8 989 18 q 788 -3 873 -3 l 338 -3 q 195 8 253 -3 q 101 42 137 18 q 50 104 66 65 q 34 200 34 143 l 34 685 q 50 781 34 742 q 101 843 66 820 q 195 877 137 867 q 338 887 253 887 l 788 887 q 931 877 873 887 q 1026 842 989 867 q 1078 779 1062 818 q 1094 685 1094 741 l 1094 417 l 499 417 l 499 236 q 563 168 499 168 q 612 184 596 168 q 627 236 627 200 l 627 350 l 1094 350 l 1094 200 m 495 648 l 495 577 l 633 577 l 632 648 q 563 723 632 723 q 511 705 527 723 q 495 648 495 688 m 539 1251 l 686 979 l 467 979 l 320 1251 l 539 1251 z "},"ª":{"ha":764,"x_min":34,"x_max":730,"o":"m 431 748 l 431 831 l 390 818 q 349 797 360 809 q 337 760 337 784 l 337 748 q 383 706 337 706 q 419 716 407 706 q 431 748 431 726 m 429 938 l 429 985 q 418 1019 429 1009 q 383 1028 407 1028 q 349 1018 359 1028 q 338 985 338 1008 l 338 968 l 44 968 l 44 1006 q 55 1064 44 1040 q 89 1101 65 1087 q 151 1122 113 1115 q 245 1128 190 1128 l 528 1128 q 622 1122 584 1128 q 685 1101 661 1115 q 719 1063 709 1086 q 730 1006 730 1039 l 730 594 l 248 594 q 93 631 146 592 q 34 775 40 670 q 245 938 49 934 l 429 938 z "},"¬":{"ha":933,"x_min":34,"x_max":899,"o":"m 644 710 l 34 710 l 34 947 l 899 947 l 899 544 l 644 544 l 644 710 z "},"º":{"ha":665,"x_min":34,"x_max":631,"o":"m 296 990 l 296 757 q 332 719 296 719 q 360 728 351 719 q 368 757 368 736 l 368 990 q 332 1028 368 1028 q 305 1019 313 1028 q 296 990 296 1010 m 34 1011 q 43 1065 34 1043 q 72 1100 52 1087 q 125 1119 92 1114 q 205 1125 158 1125 l 459 1125 q 540 1119 507 1125 q 593 1100 573 1114 q 622 1064 613 1086 q 631 1011 631 1042 l 631 736 q 622 683 631 704 q 593 647 613 661 q 540 628 573 634 q 459 622 507 622 l 205 622 q 125 628 158 622 q 72 647 92 634 q 43 682 52 661 q 34 736 34 704 l 34 1011 z "},"Ѐ":{"ha":898,"x_min":34,"x_max":864,"o":"m 460 1493 l 606 1221 l 387 1221 l 241 1493 l 460 1493 m 34 0 l 34 1128 l 864 1128 l 864 871 l 489 871 l 489 693 l 822 693 l 822 436 l 489 436 l 489 257 l 864 257 l 864 0 l 34 0 z "},"ƒ":{"ha":893,"x_min":34,"x_max":859,"o":"m 350 735 l 429 735 q 534 941 465 870 q 745 1012 604 1012 q 859 1001 794 1012 l 811 827 q 748 836 774 836 q 681 818 701 836 q 646 735 661 800 l 769 735 l 721 557 l 598 557 l 459 57 q 394 -101 431 -48 q 288 -182 357 -153 q 136 -211 219 -211 q 34 -204 106 -211 l 83 -26 q 150 -33 131 -33 q 202 -23 184 -33 q 228 1 220 -13 q 249 60 236 15 l 380 557 l 296 557 l 350 735 z "},"π":{"ha":1114,"x_min":39,"x_max":1071,"o":"m 1071 0 l 613 0 l 613 689 l 497 689 l 497 0 l 39 0 l 39 888 l 39 890 l 1071 890 l 1071 888 l 1071 0 z "},"Ά":{"ha":1357,"x_min":36,"x_max":1323,"o":"m 401 1129 l 255 857 l 36 857 l 182 1129 l 401 1129 m 716 493 l 818 493 l 767 877 l 716 493 m 212 0 l 427 1128 l 1108 1128 l 1323 0 l 863 0 l 834 244 l 698 244 l 671 0 l 212 0 z "},"Έ":{"ha":1294,"x_min":34,"x_max":1260,"o":"m 399 1128 l 253 856 l 34 856 l 180 1128 l 399 1128 m 430 0 l 430 1128 l 1260 1128 l 1260 871 l 885 871 l 885 693 l 1218 693 l 1218 436 l 885 436 l 885 257 l 1260 257 l 1260 0 l 430 0 z "},"Ή":{"ha":1482,"x_min":34,"x_max":1449,"o":"m 399 1128 l 253 857 l 34 857 l 180 1128 l 399 1128 m 417 0 l 417 1128 l 874 1128 l 874 746 l 991 746 l 991 1128 l 1449 1128 l 1449 0 l 991 0 l 991 489 l 874 489 l 874 0 l 417 0 z "},"Ί":{"ha":908,"x_min":34,"x_max":874,"o":"m 416 0 l 416 1128 l 874 1128 l 874 0 l 416 0 m 399 1129 l 253 857 l 34 857 l 180 1129 l 399 1129 z "},"Ό":{"ha":1439,"x_min":34,"x_max":1405,"o":"m 817 799 l 817 329 q 831 267 817 286 q 876 249 844 249 q 921 267 907 249 q 935 329 935 286 l 935 799 q 876 881 935 881 q 831 861 844 881 q 817 799 817 842 m 629 -8 q 498 6 551 -8 q 411 53 444 21 q 362 137 377 86 q 347 262 347 189 l 347 895 q 414 1078 347 1021 q 629 1135 481 1135 l 1111 1135 q 1246 1122 1190 1135 q 1337 1079 1302 1108 q 1389 1004 1373 1050 q 1405 895 1405 958 l 1405 262 q 1340 52 1405 113 q 1251 6 1309 21 q 1111 -8 1194 -8 l 629 -8 m 399 1127 l 253 855 l 34 855 l 180 1127 l 399 1127 z "},"Ύ":{"ha":1597,"x_min":34,"x_max":1563,"o":"m 754 1 l 754 427 l 409 1128 l 863 1128 l 986 858 l 1111 1128 l 1563 1128 l 1219 427 l 1219 1 l 754 1 m 399 1127 l 253 855 l 34 855 l 180 1127 l 399 1127 z "},"Ώ":{"ha":1499,"x_min":34,"x_max":1464,"o":"m 399 1127 l 253 855 l 34 855 l 180 1127 l 399 1127 m 858 93 q 776 6 859 5 l 315 6 l 315 253 l 448 253 q 415 277 429 264 q 353 486 353 336 l 353 897 q 420 1080 353 1022 q 633 1138 487 1138 l 1137 1138 q 1271 1124 1216 1138 q 1362 1081 1326 1110 q 1413 1006 1397 1052 q 1429 897 1429 960 l 1429 486 q 1364 276 1429 335 q 1333 253 1351 263 l 1464 253 l 1464 6 l 1018 6 q 929 93 929 5 l 929 259 q 943 283 929 279 q 968 305 956 287 q 980 367 980 323 l 980 799 q 886 881 980 881 q 793 799 793 881 l 793 367 q 806 305 793 323 q 839 283 819 287 q 858 260 858 279 l 858 93 z "},"Α":{"ha":1179,"x_min":34,"x_max":1145,"o":"m 34 0 l 249 1128 l 930 1128 l 1145 0 l 685 0 l 657 244 l 520 244 l 493 0 l 34 0 m 549 493 l 630 493 l 589 877 l 549 493 z "},"Β":{"ha":1108,"x_min":34,"x_max":1074,"o":"m 492 871 l 492 712 l 543 712 q 594 730 578 712 q 609 791 609 748 q 595 854 609 837 q 543 871 581 871 l 492 871 m 492 259 l 543 259 q 595 276 581 259 q 609 339 609 294 l 609 386 q 595 448 609 430 q 543 466 581 466 l 492 466 l 492 259 m 34 1 l 34 1128 l 776 1128 q 913 1113 856 1128 q 1005 1066 970 1098 q 1057 982 1041 1034 q 1074 860 1074 931 q 1030 688 1074 748 q 883 604 986 628 q 1028 508 983 580 q 1074 291 1074 435 q 1007 66 1074 131 q 776 1 940 1 l 34 1 z "},"Γ":{"ha":794,"x_min":34,"x_max":760,"o":"m 34 0 l 34 1128 l 760 1128 l 760 871 l 512 871 l 512 0 l 34 0 z "},"Δ":{"ha":1147,"x_min":34,"x_max":1113,"o":"m 34 1 l 275 1128 l 870 1128 l 1113 1 l 34 1 m 586 837 l 471 256 l 676 256 l 586 837 z "},"Ε":{"ha":898,"x_min":34,"x_max":864,"o":"m 864 0 l 864 257 l 489 257 l 489 436 l 822 436 l 822 693 l 489 693 l 489 871 l 864 871 l 864 1128 l 34 1128 l 34 0 l 864 0 z "},"Ζ":{"ha":960,"x_min":34,"x_max":926,"o":"m 926 1128 l 926 892 l 586 258 l 926 258 l 926 1 l 34 1 l 34 242 l 373 871 l 64 871 l 64 1128 l 926 1128 z "},"Η":{"ha":1099,"x_min":34,"x_max":1065,"o":"m 34 0 l 34 1128 l 491 1128 l 491 746 l 608 746 l 608 1128 l 1065 1128 l 1065 0 l 608 0 l 608 489 l 491 489 l 491 0 l 34 0 z "},"Θ":{"ha":1126,"x_min":34,"x_max":1092,"o":"m 316 0 q 185 14 238 0 q 97 62 131 29 q 49 146 64 94 q 34 262 34 197 l 34 889 q 101 1072 34 1016 q 316 1129 169 1129 l 798 1129 q 933 1116 877 1129 q 1024 1074 988 1103 q 1076 999 1059 1045 q 1092 889 1092 953 l 1092 262 q 1027 60 1092 121 q 938 14 996 29 q 798 0 881 0 l 316 0 m 657 257 q 713 265 690 257 q 748 289 736 273 q 774 400 774 321 l 774 728 q 768 786 774 762 q 747 826 761 810 q 711 848 733 841 q 657 855 688 855 l 464 855 q 379 825 406 855 q 352 728 352 795 l 352 400 q 358 334 352 361 q 377 290 364 307 q 412 265 391 273 q 464 257 433 257 l 657 257 m 723 694 l 723 435 l 402 435 l 402 694 l 723 694 z "},"Ι":{"ha":526,"x_min":34,"x_max":492,"o":"m 34 0 l 34 1128 l 492 1128 l 492 0 l 34 0 z "},"Κ":{"ha":1163,"x_min":34,"x_max":1129,"o":"m 34 0 l 34 1128 l 492 1128 l 492 672 l 643 1128 l 1119 1128 l 939 604 l 1129 0 l 659 0 l 492 515 l 492 0 l 34 0 z "},"Λ":{"ha":1147,"x_min":34,"x_max":1113,"o":"m 870 1128 l 1113 1 l 653 1 l 573 718 l 494 1 l 34 1 l 275 1128 l 870 1128 z "},"Μ":{"ha":1655,"x_min":34,"x_max":1622,"o":"m 683 0 l 492 621 l 492 0 l 34 0 l 34 1128 l 685 1128 l 827 660 l 969 1128 l 1622 1128 l 1622 0 l 1162 0 l 1162 621 l 972 0 l 683 0 z "},"Ν":{"ha":1227,"x_min":34,"x_max":1193,"o":"m 34 0 l 34 1128 l 533 1128 l 732 663 l 732 1128 l 1193 1128 l 1193 0 l 716 0 l 494 531 l 494 0 l 34 0 z "},"Ξ":{"ha":968,"x_min":34,"x_max":935,"o":"m 867 694 l 867 435 l 105 435 l 105 694 l 867 694 m 931 1132 l 931 869 l 34 869 l 34 1132 l 931 1132 m 935 265 l 935 2 l 38 2 l 38 265 l 935 265 z "},"Ο":{"ha":1126,"x_min":34,"x_max":1092,"o":"m 504 792 l 504 338 q 518 276 504 295 q 563 257 531 257 q 608 276 594 257 q 622 338 622 295 l 622 792 q 562 874 622 874 q 517 855 531 874 q 504 792 504 835 m 316 0 q 185 15 238 0 q 97 62 131 30 q 49 146 64 95 q 34 271 34 198 l 34 888 q 101 1071 34 1015 q 316 1128 169 1128 l 798 1128 q 933 1115 877 1128 q 1024 1073 988 1102 q 1076 998 1059 1044 q 1092 888 1092 952 l 1092 271 q 1027 60 1092 121 q 938 15 996 30 q 798 0 881 0 l 316 0 z "},"Π":{"ha":1099,"x_min":34,"x_max":1065,"o":"m 34 0 l 34 1128 l 1065 1128 l 1065 0 l 608 0 l 608 873 l 491 873 l 491 0 l 34 0 z "},"Ρ":{"ha":1113,"x_min":34,"x_max":1079,"o":"m 556 873 l 494 873 l 494 557 l 554 557 q 604 575 589 557 q 619 637 619 593 l 619 792 q 604 855 619 836 q 556 873 590 873 m 34 0 l 34 1128 l 787 1128 q 921 1114 866 1128 q 1012 1071 977 1100 q 1063 995 1047 1042 q 1079 885 1079 949 l 1079 574 q 1014 361 1079 421 q 787 301 951 301 l 494 301 l 494 0 l 34 0 z "},"Σ":{"ha":969,"x_min":34,"x_max":935,"o":"m 34 0 l 231 581 l 34 1128 l 935 1128 l 935 871 l 597 871 l 706 582 l 597 257 l 935 257 l 935 0 l 34 0 z "},"Υ":{"ha":1222,"x_min":34,"x_max":1188,"o":"m 378 1 l 378 427 l 34 1128 l 487 1128 l 611 858 l 735 1128 l 1188 1128 l 843 427 l 843 1 l 378 1 z "},"Φ":{"ha":1483,"x_min":34,"x_max":1450,"o":"m 988 979 l 1157 979 q 1291 965 1236 979 q 1382 922 1347 951 q 1433 846 1417 892 q 1450 735 1449 800 l 1449 425 q 1384 212 1449 272 q 1157 152 1321 152 l 988 152 l 988 0 l 526 0 l 526 152 l 327 152 q 99 212 163 152 q 34 425 34 272 l 34 735 q 50 846 34 800 q 102 922 66 892 q 192 965 137 951 q 326 979 248 979 l 526 979 l 526 1128 l 988 1128 l 988 979 m 526 408 l 526 724 l 465 724 q 418 706 432 724 q 403 643 403 687 l 403 488 q 418 426 403 444 q 468 408 433 408 l 526 408 m 988 724 l 988 408 l 1047 408 q 1096 426 1081 408 q 1111 488 1111 444 l 1111 643 q 1096 706 1111 687 q 1048 724 1082 724 l 988 724 z "},"Χ":{"ha":1141,"x_min":34,"x_max":1107,"o":"m 34 0 l 210 567 l 42 1128 l 493 1128 l 571 813 l 649 1128 l 1099 1128 l 932 567 l 1107 0 l 661 0 l 571 393 l 482 0 l 34 0 z "},"Ψ":{"ha":1483,"x_min":34,"x_max":1449,"o":"m 1111 1129 l 1157 1129 l 1449 1130 l 1449 598 q 1384 386 1449 446 q 1157 326 1321 326 l 988 326 l 988 0 l 526 0 l 526 326 l 326 326 q 99 386 162 326 q 34 598 34 446 l 34 1130 l 326 1129 l 403 1129 l 403 662 q 418 600 403 618 q 468 582 433 582 l 526 582 l 526 1128 l 988 1128 l 988 582 l 1047 582 q 1096 600 1081 582 q 1111 662 1111 618 l 1111 1129 z "},"Ω":{"ha":1217,"x_min":34,"x_max":1183,"o":"m 577 93 q 495 6 577 5 l 34 6 l 34 253 l 166 253 q 134 277 148 264 q 72 486 72 336 l 72 897 q 138 1080 72 1022 q 352 1138 205 1138 l 855 1138 q 990 1124 934 1138 q 1080 1081 1045 1110 q 1132 1006 1116 1052 q 1148 897 1148 960 l 1148 486 q 1082 276 1148 335 q 1051 253 1069 263 l 1183 253 l 1183 6 l 736 6 q 648 93 648 5 l 648 259 q 661 283 648 279 q 687 305 675 287 q 699 367 699 323 l 699 799 q 605 881 699 881 q 511 799 511 881 l 511 367 q 525 305 511 323 q 557 283 538 287 q 577 260 577 279 l 577 93 z "},"Ϊ":{"ha":526,"x_min":-111,"x_max":637,"o":"m 34 0 l 34 1128 l 492 1128 l 492 0 l 34 0 m 176 1223 l -111 1223 l -111 1462 l 176 1462 l 176 1223 m 637 1223 l 351 1223 l 351 1462 l 637 1462 l 637 1223 z "},"Ϋ":{"ha":1222,"x_min":34,"x_max":1188,"o":"m 378 1 l 378 427 l 34 1128 l 487 1128 l 611 858 l 735 1128 l 1188 1128 l 843 427 l 843 1 l 378 1 m 521 1223 l 235 1223 l 235 1462 l 521 1462 l 521 1223 m 982 1223 l 696 1223 l 696 1462 l 982 1462 l 982 1223 z "},"ά":{"ha":1207,"x_min":34,"x_max":1174,"o":"m 626 650 q 562 718 626 718 q 513 702 529 718 q 498 650 498 686 l 498 238 q 562 171 498 171 q 610 186 595 171 q 626 238 626 202 l 626 650 m 1092 455 l 1171 0 l 337 0 q 195 10 253 0 q 101 44 136 21 q 50 106 66 68 q 34 202 34 145 l 34 688 q 50 783 34 745 q 101 846 66 822 q 195 880 136 869 q 337 890 253 890 l 1174 890 l 1092 455 m 847 1251 l 701 979 l 482 979 l 628 1251 l 847 1251 z "},"έ":{"ha":1091,"x_min":34,"x_max":1057,"o":"m 789 1251 l 642 979 l 423 979 l 570 1251 l 789 1251 m 34 278 q 43 360 34 326 q 75 418 53 395 q 131 457 97 442 q 217 482 166 472 q 76 551 119 509 q 34 663 34 594 l 34 722 q 105 847 34 804 q 314 891 176 891 l 777 891 q 986 847 915 891 q 1057 722 1057 804 l 1057 633 l 603 633 l 603 649 q 586 689 602 673 q 544 704 570 704 q 503 688 519 704 q 487 648 487 672 q 571 587 487 587 l 663 587 l 663 385 l 564 385 q 487 321 488 385 l 488 269 q 500 220 487 234 q 543 205 513 205 q 585 220 572 205 q 597 269 597 236 l 597 325 l 1057 325 l 1057 170 q 987 44 1057 87 q 777 1 917 1 l 314 1 q 101 47 169 1 q 34 193 34 93 l 34 278 z "},"ή":{"ha":1114,"x_min":34,"x_max":1080,"o":"m 34 0 l 34 890 l 764 890 q 1000 829 919 895 q 1080 637 1080 763 l 1080 -259 l 621 -259 l 621 622 q 557 690 621 690 q 509 674 524 690 q 493 622 493 658 l 493 0 l 34 0 m 801 1251 l 654 979 l 435 979 l 582 1251 l 801 1251 z "},"ί":{"ha":549,"x_min":34,"x_max":515,"o":"m 34 0 l 34 890 l 492 890 l 492 0 l 34 0 m 515 1251 l 369 979 l 150 979 l 296 1251 l 515 1251 z "},"ΰ":{"ha":1116,"x_min":34,"x_max":1082,"o":"m 555 0 l 356 1 q 115 64 196 1 q 34 254 34 127 l 34 890 l 497 890 l 497 269 q 558 201 497 203 q 618 269 618 203 l 618 890 l 1082 890 l 1082 254 q 1000 64 1082 127 q 760 1 919 1 l 561 0 l 555 0 m 752 1659 l 671 1287 l 465 1287 l 547 1659 l 752 1659 m 470 1223 l 184 1223 l 184 983 l 470 983 l 470 1223 m 931 1223 l 645 1223 l 645 983 l 931 983 l 931 1223 z "},"α":{"ha":1207,"x_min":34,"x_max":1174,"o":"m 626 650 q 562 718 626 718 q 513 702 529 718 q 498 650 498 686 l 498 238 q 562 171 498 171 q 610 186 595 171 q 626 238 626 202 l 626 650 m 1092 455 l 1171 0 l 337 0 q 195 10 253 0 q 101 44 136 21 q 50 106 66 68 q 34 202 34 145 l 34 688 q 50 783 34 745 q 101 846 66 822 q 195 880 136 869 q 337 890 253 890 l 1174 890 l 1092 455 z "},"β":{"ha":1090,"x_min":34,"x_max":1057,"o":"m 511 490 l 511 745 l 520 745 q 604 823 604 745 q 547 893 604 885 q 473 874 493 893 q 457 824 457 858 l 457 805 l 458 805 l 458 414 l 458 414 l 458 343 q 493 277 458 291 q 566 276 529 262 q 604 343 604 290 l 604 409 q 527 490 604 490 l 511 490 m 1014 701 q 873 613 971 647 q 959 582 925 601 q 1016 532 994 562 q 1047 459 1038 503 q 1057 355 1057 414 l 1057 247 q 989 63 1057 121 q 776 4 922 4 l 458 4 l 458 -259 l 34 -259 l 34 805 l 35 805 l 35 916 q 106 1075 35 1020 q 314 1130 177 1130 l 776 1130 q 985 1075 915 1130 q 1057 916 1057 1020 l 1057 842 q 1014 701 1057 755 z "},"γ":{"ha":1222,"x_min":34,"x_max":1188,"o":"m 378 -255 l 378 337 l 34 891 l 487 891 l 611 636 l 735 891 l 1188 891 l 843 337 l 843 -255 l 378 -255 z "},"δ":{"ha":1103,"x_min":34,"x_max":1069,"o":"m 613 395 q 551 458 614 458 q 504 444 519 458 q 489 395 489 429 l 489 224 q 551 161 489 161 q 598 176 584 161 q 614 224 613 191 l 613 395 m 978 590 q 1069 430 1069 547 l 1069 191 q 1054 101 1069 137 q 1003 42 1038 65 q 910 10 968 20 q 771 0 854 0 l 331 0 q 191 10 249 0 q 100 42 134 20 q 50 100 65 64 q 34 191 34 137 l 34 430 q 50 520 34 484 q 100 579 65 556 q 192 611 134 601 q 331 621 248 621 l 334 621 q 152 833 165 708 l 152 949 q 223 1081 152 1036 q 432 1127 295 1127 l 783 1127 q 994 1081 922 1127 q 1064 949 1064 1036 l 1064 814 l 721 814 l 721 855 q 661 913 721 913 q 616 898 630 913 q 601 848 601 882 q 607 809 601 822 q 625 792 609 805 l 625 793 l 978 590 z "},"ε":{"ha":1091,"x_min":34,"x_max":1057,"o":"m 34 278 q 43 360 34 326 q 75 418 53 395 q 131 457 97 442 q 217 482 166 472 q 76 551 119 509 q 34 663 34 594 l 34 722 q 105 847 34 804 q 314 891 176 891 l 777 891 q 986 847 915 891 q 1057 722 1057 804 l 1057 633 l 603 633 l 603 649 q 586 689 602 673 q 544 704 570 704 q 503 688 519 704 q 487 648 487 672 q 571 587 487 587 l 663 587 l 663 385 l 564 385 q 487 321 488 385 l 488 269 q 500 220 487 234 q 543 205 513 205 q 585 220 572 205 q 597 269 597 236 l 597 325 l 1057 325 l 1057 170 q 987 44 1057 87 q 777 1 917 1 l 314 1 q 101 47 169 1 q 34 193 34 93 l 34 278 z "},"ζ":{"ha":964,"x_min":28,"x_max":924,"o":"m 924 880 q 430 395 411 518 q 581 270 449 271 l 657 270 q 854 217 787 270 q 921 62 921 163 l 921 6 l 921 6 l 921 -52 q 854 -207 921 -153 q 657 -260 787 -260 l 438 -260 l 438 -128 l 438 -128 l 471 -128 q 549 -61 549 -128 l 549 -59 q 471 8 549 8 l 358 9 q 28 342 28 9 q 231 726 28 561 l 393 867 l 28 867 l 28 1128 l 924 1128 l 924 880 z "},"η":{"ha":1114,"x_min":34,"x_max":1080,"o":"m 34 0 l 34 890 l 764 890 q 1000 829 919 895 q 1080 637 1080 763 l 1080 -259 l 621 -259 l 621 622 q 557 690 621 690 q 509 674 524 690 q 493 622 493 658 l 493 0 l 34 0 z "},"θ":{"ha":1120,"x_min":34,"x_max":1086,"o":"m 618 675 l 618 799 q 559 881 618 881 q 515 861 528 881 q 501 799 502 842 l 501 675 l 618 675 m 501 450 l 502 329 q 515 267 501 286 q 559 249 529 249 q 605 267 591 249 q 619 329 618 286 l 618 450 l 501 450 m 314 0 q 96 61 160 0 q 34 270 34 120 l 34 897 q 100 1080 34 1022 q 314 1138 167 1138 l 793 1138 q 928 1124 872 1138 q 1019 1081 983 1110 q 1070 1006 1054 1052 q 1086 897 1086 960 l 1086 270 q 1021 59 1086 118 q 794 0 958 0 l 314 0 z "},"ι":{"ha":526,"x_min":34,"x_max":492,"o":"m 34 0 l 34 890 l 492 890 l 492 0 l 34 0 z "},"κ":{"ha":1163,"x_min":34,"x_max":1129,"o":"m 34 0 l 34 890 l 492 890 l 492 530 l 643 890 l 1119 890 l 939 477 l 1129 0 l 659 0 l 492 407 l 492 0 l 34 0 z "},"λ":{"ha":1222,"x_min":34,"x_max":1188,"o":"m 646 1128 l 1188 1 l 735 1 l 611 272 l 487 1 l 34 1 l 378 702 l 181 1128 l 646 1128 z "},"μ":{"ha":1116,"x_min":34,"x_max":1083,"o":"m 34 0 l 34 0 l 34 883 l 502 883 l 501 231 q 510 215 505 221 q 559 199 526 199 q 623 267 623 199 l 623 883 l 1083 883 l 1082 252 q 1002 63 1082 126 q 763 1 922 1 l 501 0 l 501 -257 l 34 -257 l 34 0 z "},"ν":{"ha":1167,"x_min":34,"x_max":1134,"o":"m 907 0 l 259 0 l 34 890 l 495 890 l 582 294 l 671 890 l 1134 890 l 907 0 z "},"ξ":{"ha":1014,"x_min":34,"x_max":981,"o":"m 980 11 l 981 -55 q 914 -208 980 -155 q 720 -261 848 -261 l 503 -261 l 503 -122 l 503 -122 q 542 -103 528 -122 q 556 -62 554 -87 q 542 -20 554 -36 q 503 -2 528 -2 l 503 -1 l 293 -1 q 96 58 159 -1 q 34 243 34 116 l 34 352 q 43 455 34 412 q 72 529 52 499 q 124 578 92 559 q 203 610 156 598 q 74 698 113 644 q 34 840 34 752 l 34 914 q 100 1074 34 1018 q 293 1128 165 1128 l 720 1128 q 912 1074 846 1128 q 977 914 977 1018 l 977 801 l 558 801 l 558 822 q 543 872 558 852 q 504 891 529 891 q 467 871 482 891 q 452 821 452 851 q 529 743 452 743 l 614 743 l 614 487 l 523 487 q 452 406 452 487 l 452 339 q 464 277 452 296 q 503 258 476 258 q 505 259 503 258 l 505 258 l 720 258 q 914 204 848 258 q 981 51 980 152 l 980 11 l 980 11 z "},"ο":{"ha":1125,"x_min":34,"x_max":1092,"o":"m 498 649 l 498 237 q 562 169 498 169 q 611 185 595 169 q 626 237 626 201 l 626 649 q 562 717 626 717 q 513 701 529 717 q 498 649 498 685 m 34 686 q 50 782 34 743 q 101 844 66 821 q 195 878 136 868 q 337 889 253 889 l 787 889 q 929 878 871 889 q 1024 844 987 868 q 1076 780 1060 819 q 1092 686 1092 742 l 1092 201 q 1076 106 1092 144 q 1024 44 1060 68 q 929 9 987 19 q 787 -1 871 -1 l 337 -1 q 195 9 253 -1 q 101 43 136 19 q 50 105 66 66 q 34 201 34 144 l 34 686 z "},"ρ":{"ha":1127,"x_min":34,"x_max":1094,"o":"m 499 656 l 499 253 q 563 186 499 186 q 612 202 596 186 q 627 253 627 217 l 627 656 q 563 722 627 722 q 499 656 499 722 m 494 -256 l 34 -256 l 34 692 q 50 786 34 748 q 101 847 66 824 q 195 880 137 870 q 338 890 253 890 l 788 890 q 931 880 873 890 q 1026 846 989 870 q 1078 785 1062 823 q 1094 692 1094 747 l 1094 195 q 1078 103 1094 141 q 1026 42 1062 65 q 931 8 990 18 q 788 -2 873 -2 l 494 -2 l 494 -256 z "},"ς":{"ha":1174,"x_min":34,"x_max":1140,"o":"m 653 542 l 653 645 q 586 716 653 716 q 535 699 551 716 q 519 645 519 683 l 519 215 q 587 144 519 144 l 833 144 q 1053 108 978 144 q 1128 3 1128 71 l 1128 -2 l 1128 -2 l 1128 -45 q 1053 -205 1128 -150 q 833 -260 978 -260 l 587 -260 l 587 -140 l 588 -140 q 631 -121 615 -140 q 648 -76 646 -104 q 631 -46 646 -58 q 587 -34 615 -34 l 587 -34 l 351 -34 q 202 -23 263 -34 q 104 12 140 -12 q 50 77 67 37 q 34 177 34 118 l 34 684 q 104 849 34 802 q 202 884 139 872 q 301 892 231 889 q 478 895 372 895 l 821 895 q 970 884 909 895 q 1069 848 1031 873 q 1123 782 1107 823 q 1140 684 1140 742 l 1140 542 l 653 542 z "},"σ":{"ha":1244,"x_min":34,"x_max":1211,"o":"m 1091 713 q 1092 686 1092 701 l 1092 201 q 1076 106 1092 144 q 1024 44 1060 68 q 929 9 987 19 q 787 -1 871 -1 l 337 -1 q 195 9 253 -1 q 101 43 136 19 q 50 105 66 66 q 34 201 34 144 l 34 686 q 50 782 34 743 q 101 844 66 821 q 195 878 136 868 q 337 889 253 889 l 1210 889 l 1211 713 l 1091 713 m 588 713 l 549 713 l 549 716 q 513 701 526 713 q 498 649 498 685 l 498 237 q 562 169 498 169 q 611 185 595 169 q 626 237 626 201 l 626 649 q 588 713 626 702 z "},"τ":{"ha":1041,"x_min":34,"x_max":1007,"o":"m 281 0 l 281 687 l 34 687 l 34 890 l 1007 890 l 1007 687 l 760 687 l 760 0 l 281 0 z "},"υ":{"ha":1116,"x_min":34,"x_max":1082,"o":"m 555 0 l 356 1 q 115 64 196 1 q 34 254 34 127 l 34 890 l 497 890 l 497 269 q 558 201 497 203 q 618 269 618 203 l 618 890 l 1082 890 l 1082 254 q 1000 64 1082 127 q 760 1 919 1 l 561 0 l 555 0 z "},"φ":{"ha":1576,"x_min":26,"x_max":1532,"o":"m 1150 656 q 1088 722 1150 722 q 1025 656 1025 722 l 1025 250 l 1026 184 l 1088 184 q 1135 199 1125 189 q 1150 250 1150 214 l 1150 656 m 1466 847 q 1516 785 1500 823 q 1532 692 1532 747 l 1532 192 q 1516 100 1532 138 q 1466 38 1501 62 q 1373 4 1430 15 q 1233 -6 1316 -6 l 1020 -6 l 1020 -260 l 569 -260 l 570 -6 l 326 -6 q 186 4 243 -6 q 93 38 129 15 q 42 100 58 62 q 26 192 26 138 l 27 692 q 42 785 26 747 q 93 847 58 823 q 185 881 128 870 q 326 891 243 891 l 439 891 l 439 721 q 430 719 430 719 q 402 708 412 716 q 386 686 391 700 q 381 655 380 673 l 380 249 q 473 188 382 188 l 564 188 l 564 250 q 563 743 563 592 q 649 874 563 838 q 734 891 691 892 l 1233 891 q 1373 881 1316 891 q 1466 847 1430 870 z "},"χ":{"ha":1226,"x_min":34,"x_max":1192,"o":"m 731 890 l 1192 890 l 999 327 l 1189 -261 l 709 -261 l 614 224 l 517 -261 l 37 -261 l 227 327 l 34 890 l 495 890 l 611 459 l 731 890 z "}}}
